<?xml version="1.0" standalone="no"?>
<!DOCTYPE svg PUBLIC "-//W3C//DTD SVG 1.1//EN" "http://www.w3.org/Graphics/SVG/1.1/DTD/svg11.dtd" >
<svg xmlns="http://www.w3.org/2000/svg" xmlns:xlink="http://www.w3.org/1999/xlink" version="1.1">
<metadata></metadata>
<defs>
<font id="core_sans_a_55_mediumregular" horiz-adv-x="860" >
<font-face units-per-em="2048" ascent="1638" descent="-410" />
<missing-glyph horiz-adv-x="614" />
<glyph unicode="&#xfb00;" horiz-adv-x="1402" d="M29 868v193h186v92q0 177 90 259.5t285 82.5q86 0 143 -8v-191q-61 7 -108 7q-93 0 -130.5 -39.5t-37.5 -122.5v-80h399v92q0 177 90 259.5t285 82.5q86 0 143 -8v-191q-61 7 -108 7q-93 0 -130.5 -39.5t-37.5 -122.5v-80h256v-193h-256v-868h-242v868h-399v-868h-242 v868h-186z" />
<glyph unicode="&#xfb01;" horiz-adv-x="1257" d="M29 868v193h186v92q0 178 89.5 260t285.5 82q76 0 129 -6v-193q-54 7 -98 7q-90 0 -127 -39.5t-37 -122.5v-80h653v-1061h-242v868h-411v-868h-242v868h-186zM840 1366q0 63 43 105t106 42t106.5 -42t43.5 -105t-43.5 -105t-106.5 -42t-106 42t-43 105z" />
<glyph unicode="&#xfb02;" horiz-adv-x="1236" d="M29 868v193h186v92q0 178 87 260t280 82q122 0 266 -35v35h242v-1495h-242v1280q-122 23 -227 23q-90 0 -127 -39.5t-37 -122.5v-80h254v-193h-254v-868h-242v868h-186z" />
<glyph unicode="&#xfb03;" horiz-adv-x="1898" d="M29 868v193h186v92q0 177 90 259.5t285 82.5q86 0 143 -8v-191q-61 7 -108 7q-93 0 -130.5 -39.5t-37.5 -122.5v-80h399v92q0 178 89.5 260t285.5 82q77 0 129 -6v-193q-54 7 -98 7q-90 0 -127 -39.5t-37 -122.5v-80h653v-1061h-242v868h-411v-868h-242v868h-399v-868 h-242v868h-186zM1481 1366q0 63 43 105t106 42t106.5 -42t43.5 -105t-43.5 -105t-106.5 -42t-106 42t-43 105z" />
<glyph unicode="&#xfb04;" horiz-adv-x="1878" d="M29 868v193h186v92q0 177 90 259.5t285 82.5q86 0 143 -8v-191q-61 7 -108 7q-93 0 -130.5 -39.5t-37.5 -122.5v-80h399v92q0 178 87 260t280 82q123 0 266 -35v35h242v-1495h-242v1280q-122 23 -227 23q-90 0 -127 -39.5t-37 -122.5v-80h254v-193h-254v-868h-242v868 h-399v-868h-242v868h-186z" />
<glyph horiz-adv-x="682" />
<glyph unicode="&#xd;" horiz-adv-x="485" />
<glyph horiz-adv-x="0" />
<glyph unicode=" "  horiz-adv-x="614" />
<glyph unicode="&#x09;" horiz-adv-x="614" />
<glyph unicode="&#xa0;" horiz-adv-x="614" />
<glyph unicode="!" horiz-adv-x="614" d="M160 125q0 63 42.5 106t104.5 43t105 -43t43 -106t-43 -106.5t-105 -43.5t-104.5 43.5t-42.5 106.5zM172 1073v361h270v-361l-49 -700h-172z" />
<glyph unicode="&#x22;" horiz-adv-x="1048" d="M197 1434h247v-66l-55 -504h-164zM604 1434h248v-66l-55 -504h-164z" />
<glyph unicode="#" horiz-adv-x="1445" d="M68 344v191h241l64 370h-221v191h254l57 338h227l-57 -338h309l59 338h228l-60 -338h209v-191h-241l-64 -370h223v-191h-256l-57 -344h-227l57 344h-309l-58 -344h-227l57 344h-208zM537 535h309l63 370h-309z" />
<glyph unicode="$" horiz-adv-x="1253" d="M68 227l184 144q138 -151 321 -174v440q-6 0 -8 2q-230 64 -332 167.5t-102 264.5q0 170 116.5 275t325.5 112v180h138v-188q244 -39 401 -219l-176 -135q-99 105 -225 135v-393q242 -72 349 -173t107 -272q0 -183 -122 -294.5t-334 -121.5v-178h-138v181 q-313 31 -505 247zM389 1077q0 -66 39.5 -111t144.5 -85v358q-91 -9 -137.5 -51.5t-46.5 -110.5zM711 197q91 12 144.5 60.5t53.5 119.5q0 78 -43 126.5t-155 88.5v-395z" />
<glyph unicode="%" horiz-adv-x="1832" d="M158 1081q0 162 90.5 264.5t243.5 102.5t243 -102.5t90 -264.5t-90 -264t-243 -102t-243.5 102t-90.5 264zM348 68l998 1392l139 -96l-998 -1393zM362 1081q0 -186 130 -186q129 0 129 186q0 187 -129 187q-130 0 -130 -187zM1008 350q0 162 90 264.5t243 102.5 t243.5 -102.5t90.5 -264.5t-90.5 -264t-243.5 -102t-243 102t-90 264zM1212 350q0 -186 129 -186t129 186q0 187 -129 187t-129 -187z" />
<glyph unicode="&#x26;" horiz-adv-x="1353" d="M98 356q0 125 60 219t200 179q-82 106 -112.5 184.5t-30.5 165.5q0 160 107 257t288 97q162 0 272.5 -98t110.5 -260q0 -117 -68.5 -214t-219.5 -188l247 -286q85 110 135 229l205 -94q-78 -177 -188 -309l205 -238h-314l-67 80q-164 -105 -367 -105q-207 0 -335 106 t-128 275zM356 365q0 -80 59.5 -127.5t174.5 -47.5q97 0 192 62l-280 330q-87 -59 -116.5 -107.5t-29.5 -109.5zM469 1098q0 -40 4 -64t25.5 -67.5t66.5 -102.5q101 58 140.5 113.5t39.5 130.5q0 61 -38 102t-97 41q-66 0 -103.5 -43t-37.5 -110z" />
<glyph unicode="'" horiz-adv-x="620" d="M186 1434h248v-66l-55 -504h-164z" />
<glyph unicode="(" horiz-adv-x="768" d="M197 635q0 510 321 907l160 -78q-256 -382 -256 -829q0 -448 256 -830l-160 -77q-321 397 -321 907z" />
<glyph unicode=")" horiz-adv-x="768" d="M90 -195q256 382 256 830q0 447 -256 829l160 78q321 -397 321 -907t-321 -907z" />
<glyph unicode="*" horiz-adv-x="1126" d="M117 543l278 137l-278 135l106 182l256 -174l-20 312h209l-21 -312l256 174l107 -182l-279 -135l279 -137l-107 -183l-256 175l21 -310h-209l20 310l-256 -175z" />
<glyph unicode="+" horiz-adv-x="1261" d="M117 584v190h401v414h225v-414h402v-190h-402v-416h-225v416h-401z" />
<glyph unicode="," horiz-adv-x="630" d="M84 -272l162 567l229 -78l-223 -543z" />
<glyph unicode="-" horiz-adv-x="827" d="M117 575v207h594v-207h-594z" />
<glyph unicode="." horiz-adv-x="630" d="M168 125q0 63 42.5 106t104.5 43t105 -43t43 -106t-43 -106.5t-105 -43.5t-104.5 43.5t-42.5 106.5z" />
<glyph unicode="/" horiz-adv-x="1060" d="M4 -154l868 1717l185 -107l-871 -1718z" />
<glyph unicode="0" horiz-adv-x="1261" d="M94 717q0 129 21 240.5t64 204t106 158.5t151 102t195 36q176 0 298.5 -97.5t180 -261.5t57.5 -382q0 -162 -33.5 -296t-98.5 -234.5t-168 -156t-236 -55.5q-107 0 -195 36.5t-151 102t-106 158t-64 204.5t-21 241zM352 717q0 -256 71 -390t208 -134t207.5 134t70.5 390 t-70.5 390t-207.5 134t-208 -134t-71 -390z" />
<glyph unicode="1" horiz-adv-x="1261" d="M184 1126l422 308h225v-1434h-253v1145l-248 -178z" />
<glyph unicode="2" horiz-adv-x="1261" d="M113 1210q90 116 221.5 182t277.5 66q214 0 342.5 -112.5t128.5 -313.5q0 -81 -34.5 -171.5t-89 -173t-131.5 -170.5t-153 -160t-163 -144h592v-213h-950v190q111 92 194 166t178 170t156 176t102 166.5t41 159.5q0 102 -57 157.5t-166 55.5q-87 0 -169.5 -42.5 t-145.5 -119.5z" />
<glyph unicode="3" horiz-adv-x="1261" d="M98 211l176 143q133 -161 332 -161q125 0 199 55t74 153q0 62 -25 108.5t-70.5 73.5t-102.5 40.5t-126 13.5h-135v213h133q125 0 200.5 55.5t75.5 153.5q0 86 -56 134t-159 48q-83 0 -161.5 -37t-139.5 -106l-172 139q97 109 224 165t268 56q203 0 328.5 -100.5 t125.5 -272.5q0 -124 -64.5 -212.5t-164.5 -124.5q133 -41 206 -131.5t73 -225.5q0 -184 -136 -300t-374 -116q-166 0 -302.5 62.5t-226.5 173.5z" />
<glyph unicode="4" horiz-adv-x="1261" d="M74 287v202l688 945h235v-934h183v-213h-183v-287h-254v287h-669zM348 500h395v542z" />
<glyph unicode="5" horiz-adv-x="1261" d="M125 207l174 143q71 -85 147 -121t170 -36q115 0 185.5 66.5t70.5 174.5q0 120 -78.5 186t-215.5 66q-162 0 -304 -49l-51 33v764h834v-213h-580v-340q83 22 182 22q213 0 342 -128t129 -347q0 -198 -131.5 -325.5t-367.5 -127.5q-324 0 -506 232z" />
<glyph unicode="6" horiz-adv-x="1261" d="M123 684q0 394 139 584t391 190q140 0 254 -57t191 -170l-183 -121q-51 68 -109.5 99.5t-139.5 31.5q-263 0 -287 -426q138 121 317 121q206 0 333.5 -134.5t127.5 -348.5t-137.5 -346t-362.5 -132q-252 0 -393 173t-141 536zM375 606q16 -413 276 -413q123 0 185.5 68 t62.5 196q0 127 -65 196.5t-187 69.5q-152 0 -272 -117z" />
<glyph unicode="7" horiz-adv-x="1261" d="M131 1221v213h973v-209l-543 -1225h-270l543 1221h-703z" />
<glyph unicode="8" horiz-adv-x="1261" d="M98 399q0 119 59 214.5t171 156.5q-170 122 -170 301q0 170 126.5 278.5t342.5 108.5t345.5 -109.5t129.5 -275.5q0 -101 -50 -186.5t-141 -141.5q131 -69 190.5 -158t59.5 -204q0 -183 -146.5 -294.5t-385.5 -111.5q-241 0 -386 113t-145 309zM356 399q0 -96 77.5 -150 t197.5 -54t196 46.5t76 131.5q0 29 -6.5 51.5t-16 42t-34.5 39t-48 35t-71.5 38.5t-89.5 41t-117 50q-78 -47 -121 -118t-43 -153zM416 1071q0 -69 65 -122t236 -118q60 38 93.5 96.5t33.5 125.5q0 89 -57 138.5t-156 49.5t-157 -46t-58 -124z" />
<glyph unicode="9" horiz-adv-x="1261" d="M104 981q0 214 137.5 345.5t362.5 131.5q123 0 219.5 -40.5t168 -124.5t109.5 -221t38 -322q0 -204 -41.5 -355.5t-118.5 -242t-178.5 -134t-229.5 -43.5q-246 0 -411 162l164 156q93 -100 247 -100q280 0 312 425q-137 -120 -318 -120q-206 0 -333.5 134.5t-127.5 348.5 zM362 977q0 -127 65 -196.5t187 -69.5q154 0 273 116q-16 414 -277 414q-123 0 -185.5 -68t-62.5 -196z" />
<glyph unicode=":" horiz-adv-x="630" d="M168 125q0 63 42.5 106t104.5 43t105 -43t43 -106t-43 -106.5t-105 -43.5t-104.5 43.5t-42.5 106.5zM168 936q0 63 42.5 106t104.5 43t105 -43t43 -106t-43 -106.5t-105 -43.5t-104.5 43.5t-42.5 106.5z" />
<glyph unicode=";" horiz-adv-x="630" d="M55 -272l162 567l229 -78l-223 -543zM168 936q0 63 42.5 106t104.5 43t105 -43t43 -106t-43 -106.5t-105 -43.5t-104.5 43.5t-42.5 106.5z" />
<glyph unicode="&#x3c;" horiz-adv-x="1261" d="M209 600v156l741 469l103 -178l-594 -369l594 -369l-103 -178z" />
<glyph unicode="=" horiz-adv-x="1261" d="M117 346v189h1028v-189h-1028zM117 823v189h1028v-189h-1028z" />
<glyph unicode="&#x3e;" horiz-adv-x="1261" d="M209 309l594 369l-594 369l102 178l742 -469v-156l-742 -469z" />
<glyph unicode="?" horiz-adv-x="1118" d="M88 1241q78 99 200 158t257 59q202 0 319 -97t117 -271q0 -121 -57.5 -215.5t-182.5 -178.5q-75 -50 -103 -99t-28 -132v-92h-254v108q0 118 46.5 205t152.5 156q97 63 132.5 115.5t35.5 123.5q0 75 -52.5 117.5t-146.5 42.5q-77 0 -147.5 -37t-122.5 -98zM336 125 q0 63 42.5 106t104.5 43t105 -43t43 -106t-43 -106.5t-105 -43.5t-104.5 43.5t-42.5 106.5z" />
<glyph unicode="@" horiz-adv-x="1972" d="M141 561q0 187 60 351t168 285t268 191t350 70q150 0 283 -43.5t234.5 -122.5t175.5 -185t112.5 -235.5t38.5 -269.5q0 -104 -20.5 -190.5t-62 -155t-111.5 -107t-162 -38.5q-89 0 -156 32.5t-100 94.5q-57 -65 -136.5 -102.5t-160.5 -37.5q-129 0 -220 60.5 t-133.5 161.5t-42.5 235q0 204 102 330.5t294 126.5q153 0 268 -115v90h215v-586q0 -65 29 -100t79 -35q168 0 168 336q0 207 -92.5 373t-251 258t-350.5 92q-145 0 -273.5 -55.5t-221.5 -154.5t-147 -242.5t-54 -311.5q0 -134 34.5 -254t97.5 -212.5t149 -160.5t192 -103.5 t223 -35.5q123 0 245 42t214 116l76 -117q-104 -81 -245.5 -126.5t-289.5 -45.5q-190 0 -350 70t-268 191t-168 285t-60 351zM741 555q0 -138 50 -213.5t170 -75.5q132 0 229 115v346q-100 115 -229 115q-120 0 -170 -74.5t-50 -212.5z" />
<glyph unicode="A" horiz-adv-x="1429" d="M39 0l526 1434h299l527 -1434h-273l-112 328h-584l-111 -328h-272zM496 541h438l-219 645z" />
<glyph unicode="B" horiz-adv-x="1310" d="M158 0v1434h512q234 0 362.5 -106t128.5 -279q0 -103 -52 -181.5t-148 -111.5q130 -30 201 -120.5t71 -219.5q0 -195 -136.5 -305.5t-396.5 -110.5h-542zM412 213h268q153 0 224 51.5t71 157.5t-71 157.5t-224 51.5h-268v-418zM412 844h241q127 0 188.5 45t61.5 143 t-62 143.5t-188 45.5h-241v-377z" />
<glyph unicode="C" horiz-adv-x="1421" d="M88 717q0 219 84 387.5t239 261t359 92.5q195 0 347 -83.5t237 -227.5l-209 -113q-137 207 -365 207q-191 0 -312.5 -137.5t-121.5 -386.5t121.5 -386.5t312.5 -137.5q229 0 365 206l209 -112q-85 -145 -237 -228.5t-347 -83.5q-204 0 -359 93t-239 261.5t-84 387.5z" />
<glyph unicode="D" horiz-adv-x="1429" d="M158 0v1434h495q320 0 504 -194.5t184 -522.5t-184 -522.5t-504 -194.5h-495zM412 213h225q210 0 328 130.5t118 373.5t-118 373.5t-328 130.5h-225v-1008z" />
<glyph unicode="E" horiz-adv-x="1183" d="M158 0v1434h925v-213h-671v-377h600v-213h-600v-418h690v-213h-944z" />
<glyph unicode="F" horiz-adv-x="1122" d="M158 0v1434h925v-213h-671v-418h600v-213h-600v-590h-254z" />
<glyph unicode="G" horiz-adv-x="1474" d="M88 717q0 218 84.5 387t236.5 261.5t347 92.5q203 0 353 -80t241 -229l-209 -113q-67 104 -158 154.5t-219 50.5q-177 0 -297.5 -139.5t-120.5 -384.5q0 -123 34.5 -223t95.5 -165.5t142.5 -100.5t176.5 -35q103 0 186.5 32.5t128.5 93.5v238h-324v213h570v-543 q-93 -121 -238.5 -186.5t-326.5 -65.5q-205 0 -365 93.5t-249 263t-89 385.5z" />
<glyph unicode="H" horiz-adv-x="1470" d="M158 0v1434h254v-570h647v570h254v-1434h-254v651h-647v-651h-254z" />
<glyph unicode="I" horiz-adv-x="589" d="M168 0v1434h254v-1434h-254z" />
<glyph unicode="J" horiz-adv-x="1212" d="M57 268l205 113q103 -188 287 -188q123 0 187.5 82t64.5 225v934h254v-928q0 -246 -129 -388.5t-369 -142.5q-167 0 -296.5 76t-203.5 217z" />
<glyph unicode="K" horiz-adv-x="1318" d="M158 0v1434h254v-705l534 705h291l-459 -590l522 -844h-280l-391 649l-217 -278v-371h-254z" />
<glyph unicode="L" horiz-adv-x="1122" d="M158 0v1434h254v-1221h671v-213h-925z" />
<glyph unicode="M" horiz-adv-x="1769" d="M158 0v1434h250l477 -867l477 867h250v-1434h-254v989l-395 -729h-156l-395 729v-989h-254z" />
<glyph unicode="N" horiz-adv-x="1474" d="M158 0v1434h245l660 -1012v1012h254v-1434h-246l-659 1012v-1012h-254z" />
<glyph unicode="O" horiz-adv-x="1495" d="M88 717q0 157 45 292t128 235t208.5 157t278.5 57q203 0 354 -98.5t228 -265.5t77 -377t-77 -377t-228 -266t-354 -99t-354.5 99t-228.5 266t-77 377zM346 717q0 -241 108.5 -382.5t293.5 -141.5t293 141.5t108 382.5t-108 382.5t-293 141.5t-293.5 -141.5t-108.5 -382.5 z" />
<glyph unicode="P" horiz-adv-x="1255" d="M158 0v1434h475q263 0 409 -117.5t146 -343.5q0 -225 -146 -342t-409 -117h-221v-514h-254zM412 727h206q157 0 234.5 59.5t77.5 186.5q0 129 -77 188.5t-235 59.5h-206v-494z" />
<glyph unicode="Q" horiz-adv-x="1495" d="M88 717q0 157 45 292t128 235t208.5 157t278.5 57q203 0 354 -98.5t228 -265.5t77 -377q0 -296 -154 -502l193 -207l-168 -155l-195 208q-147 -86 -335 -86q-203 0 -354.5 99t-228.5 266t-77 377zM346 717q0 -241 108.5 -382.5t293.5 -141.5q100 0 176 40l-197 216 l168 155l186 -203q68 133 68 316q0 241 -108 382.5t-293 141.5t-293.5 -141.5t-108.5 -382.5z" />
<glyph unicode="R" horiz-adv-x="1331" d="M158 0v1434h499q263 0 405 -109.5t142 -323.5q0 -152 -77 -254t-220 -143l385 -604h-278l-350 571h-252v-571h-254zM412 784h247q150 0 218.5 51.5t68.5 165.5t-69 167t-218 53h-247v-437z" />
<glyph unicode="S" horiz-adv-x="1253" d="M68 227l184 144q163 -178 399 -178q116 0 187 51t71 133q0 98 -70 151.5t-274 110.5q-230 64 -332 167.5t-102 264.5q0 176 124 281.5t345 105.5q151 0 284 -58.5t228 -168.5l-176 -135q-136 145 -318 145q-114 0 -171.5 -44t-57.5 -120q0 -79 61.5 -131.5t231.5 -99.5 q259 -72 372 -174t113 -279q0 -192 -135 -305t-366 -113q-180 0 -333 64t-265 188z" />
<glyph unicode="T" horiz-adv-x="1191" d="M39 1221v213h1114v-213h-430v-1221h-254v1221h-430z" />
<glyph unicode="U" horiz-adv-x="1499" d="M158 569v865h254v-865q0 -376 338 -376q337 0 337 376v865h254v-865q0 -193 -75.5 -328.5t-207 -200.5t-308.5 -65q-271 0 -431.5 153t-160.5 441z" />
<glyph unicode="V" horiz-adv-x="1429" d="M39 1434h272l404 -1145l403 1145h273l-527 -1434h-299z" />
<glyph unicode="W" horiz-adv-x="2076" d="M39 1434h264l324 -1096l276 1096h271l276 -1096l324 1096h264l-422 -1434h-316l-262 1040l-262 -1040h-315z" />
<glyph unicode="X" horiz-adv-x="1306" d="M31 0l467 743l-430 691h282l303 -490l303 490h283l-430 -691l467 -743h-283l-340 547l-340 -547h-282z" />
<glyph unicode="Y" horiz-adv-x="1298" d="M29 1434h274l346 -631l346 631h275l-494 -869v-565h-254v565z" />
<glyph unicode="Z" horiz-adv-x="1185" d="M63 0v203l732 1016h-693v215h1000v-203l-731 -1016h751v-215h-1059z" />
<glyph unicode="[" horiz-adv-x="856" d="M236 -266v1802h581v-178h-356v-1448h356v-176h-581z" />
<glyph unicode="\" horiz-adv-x="1060" d="M4 1456l182 107l871 -1717l-185 -108z" />
<glyph unicode="]" horiz-adv-x="856" d="M39 -90h356v1448h-356v178h582v-1802h-582v176z" />
<glyph unicode="^" horiz-adv-x="1282" d="M158 842l389 596h188l389 -596l-174 -117l-309 453l-309 -453z" />
<glyph unicode="_" horiz-adv-x="1024" d="M0 -209h1024v-139h-1024v139z" />
<glyph unicode="`" horiz-adv-x="811" d="M190 1399l140 133l291 -293l-103 -104z" />
<glyph unicode="a" horiz-adv-x="1157" d="M76 322q0 152 112.5 249t286.5 97q177 0 311 -103v101q0 107 -55 164t-186 57q-151 0 -271 -99l-139 140q186 157 438 157q128 0 218 -33t141 -96t73.5 -143.5t22.5 -187.5v-625h-242v88q-116 -113 -311 -113q-174 0 -286.5 97.5t-112.5 249.5zM322 322q0 -73 57 -111.5 t158 -38.5q151 0 249 94v111q-105 94 -249 94q-101 0 -158 -38t-57 -111z" />
<glyph unicode="b" horiz-adv-x="1247" d="M137 0v1495h242v-537q134 127 319 127q216 0 337.5 -149t121.5 -406t-121.5 -406t-337.5 -149q-185 0 -319 127v-102h-242zM379 287q46 -53 117 -83t141 -30q138 0 206 93t68 263t-68 263.5t-206 93.5q-70 0 -141 -30t-117 -83v-487z" />
<glyph unicode="c" horiz-adv-x="1118" d="M78 530q0 248 142 401.5t382 153.5q155 0 273 -67.5t190 -190.5l-186 -98q-54 80 -117 120t-150 40q-133 0 -210.5 -95.5t-77.5 -263.5t77.5 -263t210.5 -95q87 0 150 40t117 120l186 -99q-72 -123 -190 -190.5t-273 -67.5q-240 0 -382 153.5t-142 401.5z" />
<glyph unicode="d" horiz-adv-x="1247" d="M90 530q0 257 121.5 406t337.5 149q185 0 319 -127v537h242v-1495h-242v102q-134 -127 -319 -127q-216 0 -337.5 149t-121.5 406zM336 530q0 -170 68 -263t206 -93q70 0 141 30t117 83v487q-46 53 -117 83t-141 30q-138 0 -206 -93.5t-68 -263.5z" />
<glyph unicode="e" horiz-adv-x="1187" d="M78 530q0 244 143.5 399.5t374.5 155.5q228 0 371 -156.5t143 -404.5q0 -59 -4 -82h-782q17 -122 100 -196t205 -74q154 0 264 135l170 -121q-75 -102 -186.5 -156.5t-245.5 -54.5q-249 0 -401 154.5t-152 400.5zM322 627h544q-9 120 -84 191t-186 71q-113 0 -185 -69 t-89 -193z" />
<glyph unicode="f" horiz-adv-x="761" d="M29 868v193h186v92q0 177 90 259.5t285 82.5q86 0 143 -8v-191q-61 7 -108 7q-93 0 -130.5 -39.5t-37.5 -122.5v-80h256v-193h-256v-868h-242v868h-186z" />
<glyph unicode="g" horiz-adv-x="1247" d="M90 530q0 257 121.5 406t337.5 149q185 0 319 -127v103h242v-1016q0 -244 -129 -374t-365 -130q-150 0 -273.5 57t-205.5 162l174 117q122 -149 293 -149q121 0 192.5 72t71.5 212v90q-134 -127 -319 -127q-216 0 -337.5 149t-121.5 406zM336 530q0 -170 68 -263t206 -93 q70 0 141 30t117 83v487q-46 53 -117 83t-141 30q-138 0 -206 -93.5t-68 -263.5z" />
<glyph unicode="h" horiz-adv-x="1239" d="M137 0v1495h242v-557q147 147 356 147q171 0 273 -103.5t102 -293.5v-688h-242v653q0 236 -204 236q-84 0 -161.5 -42t-123.5 -102v-745h-242z" />
<glyph unicode="i" horiz-adv-x="536" d="M119 1366q0 63 43 105t106 42t106.5 -42t43.5 -105t-43.5 -105t-106.5 -42t-106 42t-43 105zM147 0v1061h242v-1061h-242z" />
<glyph unicode="j" horiz-adv-x="536" d="M-106 -260q27 -2 90 -2q89 0 126 43t37 133v1147h242v-1120q0 -209 -91.5 -304.5t-305.5 -95.5q-58 0 -98 6v193zM119 1366q0 63 43 105t106 42t106.5 -42t43.5 -105t-43.5 -105t-106.5 -42t-106 42t-43 105z" />
<glyph unicode="k" horiz-adv-x="1132" d="M137 0v1495h242v-907l409 473h281l-360 -410l413 -651h-266l-295 483l-182 -209v-274h-242z" />
<glyph unicode="l" horiz-adv-x="536" d="M147 0v1495h242v-1495h-242z" />
<glyph unicode="m" horiz-adv-x="1837" d="M137 0v1061h242v-107q144 131 323 131q209 0 291 -157q168 157 371 157q166 0 255 -100.5t89 -290.5v-694h-242v655q0 117 -41.5 175.5t-138.5 58.5q-67 0 -135.5 -37t-110.5 -94q4 -31 4 -94v-664h-241v655q0 118 -40.5 176t-139.5 58q-68 0 -134 -33.5t-110 -87.5v-768 h-242z" />
<glyph unicode="n" horiz-adv-x="1239" d="M137 0v1061h242v-123q147 147 356 147q171 0 273 -103.5t102 -293.5v-688h-242v653q0 236 -204 236q-84 0 -161.5 -42t-123.5 -102v-745h-242z" />
<glyph unicode="o" horiz-adv-x="1212" d="M78 530q0 250 144 402.5t384 152.5q241 0 385 -152.5t144 -402.5t-144 -402.5t-385 -152.5q-240 0 -384 152.5t-144 402.5zM324 530q0 -167 74.5 -262.5t207.5 -95.5t208 95.5t75 262.5t-75 263t-208 96t-207.5 -96t-74.5 -263z" />
<glyph unicode="p" horiz-adv-x="1247" d="M137 -434v1495h242v-103q134 127 319 127q216 0 337.5 -149t121.5 -406t-121.5 -406t-337.5 -149q-185 0 -319 127v-536h-242zM379 287q46 -53 117 -83t141 -30q138 0 206 93t68 263t-68 263.5t-206 93.5q-70 0 -141 -30t-117 -83v-487z" />
<glyph unicode="q" horiz-adv-x="1247" d="M90 530q0 257 121.5 406t337.5 149q185 0 319 -127v103h242v-1495h-242v536q-134 -127 -319 -127q-216 0 -337.5 149t-121.5 406zM336 530q0 -170 68 -263t206 -93q70 0 141 30t117 83v487q-46 53 -117 83t-141 30q-138 0 -206 -93.5t-68 -263.5z" />
<glyph unicode="r" horiz-adv-x="794" d="M137 0v1061h242v-129q115 153 319 153q28 0 68 -4v-200q-40 4 -86 4q-93 0 -174 -43.5t-127 -116.5v-725h-242z" />
<glyph unicode="s" horiz-adv-x="1046" d="M57 180l170 135q64 -66 144.5 -104.5t163.5 -38.5q176 0 176 113q0 60 -47 95t-183 73q-203 57 -284.5 134.5t-81.5 203.5q0 133 102.5 213.5t286.5 80.5q262 0 426 -167l-160 -132q-46 49 -112.5 76t-133.5 27q-151 0 -151 -92q0 -47 48.5 -80.5t194.5 -75.5 q179 -53 266 -134.5t87 -209.5q0 -149 -107 -235.5t-307 -86.5q-314 0 -498 205z" />
<glyph unicode="t" horiz-adv-x="768" d="M29 868v193h186v317h242v-317h254v-193h-254v-522q0 -92 36.5 -133t129.5 -41q63 0 88 2v-192q-68 -7 -129 -7q-192 0 -279.5 90t-87.5 289v514h-186z" />
<glyph unicode="u" horiz-adv-x="1224" d="M127 446v615h242v-617q0 -133 67 -202.5t176 -69.5t176.5 69.5t67.5 202.5v617h242v-615q0 -233 -129.5 -352t-356.5 -119q-226 0 -355.5 119t-129.5 352z" />
<glyph unicode="v" horiz-adv-x="1128" d="M29 1061h254l282 -799l281 799h254l-402 -1061h-266z" />
<glyph unicode="w" horiz-adv-x="1679" d="M29 1061h254l225 -752l223 752h217l223 -752l228 752h252l-348 -1061h-246l-217 731l-217 -731h-246z" />
<glyph unicode="x" horiz-adv-x="1085" d="M20 0l367 553l-332 508h260l228 -350l227 350h260l-332 -508l367 -553h-260l-262 397l-262 -397h-261z" />
<glyph unicode="y" horiz-adv-x="1118" d="M29 1061h247l295 -739l271 739h248l-551 -1495h-248l164 442z" />
<glyph unicode="z" horiz-adv-x="974" d="M49 0v184l561 684h-528v193h823v-184l-561 -684h582v-193h-877z" />
<glyph unicode="{" horiz-adv-x="819" d="M121 545v178q88 0 146.5 55.5t58.5 149.5v229q0 204 66.5 291.5t238.5 87.5h149v-180h-139q-90 0 -90 -94v-297q0 -144 -43.5 -221.5t-161.5 -108.5q118 -31 161.5 -108.5t43.5 -223.5v-297q0 -92 90 -92h139v-180h-149q-305 0 -305 268v338q0 94 -58.5 149.5 t-146.5 55.5z" />
<glyph unicode="|" horiz-adv-x="616" d="M217 -410v1985h182v-1985h-182z" />
<glyph unicode="}" horiz-adv-x="819" d="M39 -86h139q90 0 90 92v297q0 146 43.5 223.5t161.5 108.5q-118 31 -161.5 108.5t-43.5 221.5v297q0 94 -90 94h-139v180h149q173 0 239.5 -87.5t66.5 -291.5v-229q0 -94 58 -149.5t146 -55.5v-178q-88 0 -146 -55.5t-58 -149.5v-338q0 -268 -306 -268h-149v180z" />
<glyph unicode="~" horiz-adv-x="1261" d="M84 545q22 134 108 219.5t207 85.5q72 0 133 -20.5t134 -69.5q103 -68 172 -68q101 0 137 127l203 -33q-22 -134 -108.5 -219.5t-207.5 -85.5q-72 0 -132.5 20.5t-133.5 69.5q-103 68 -172 68q-101 0 -137 -127z" />
<glyph unicode="&#xa1;" horiz-adv-x="614" d="M160 936q0 63 42.5 106t104.5 43t105 -43t43 -106t-43 -106.5t-105 -43.5t-104.5 43.5t-42.5 106.5zM172 -12l49 700h172l49 -700v-361h-270v361z" />
<glyph unicode="&#xa2;" horiz-adv-x="1118" d="M78 530q0 228 122.5 378t334.5 173v181h137v-181q130 -15 229.5 -80.5t163.5 -173.5l-186 -98q-86 132 -207 154v-707q121 22 207 156l186 -99q-133 -223 -393 -253v-181h-137v181q-212 22 -334.5 171.5t-122.5 378.5zM324 530q0 -141 56 -231t155 -117v697 q-99 -26 -155 -117.5t-56 -231.5z" />
<glyph unicode="&#xa3;" horiz-adv-x="1226" d="M78 0v197q160 116 160 301v176h-160v133h160v215q0 216 119 326t339 110q129 0 247.5 -52.5t191.5 -143.5l-177 -138q-43 53 -109 85t-134 32q-223 0 -223 -223v-211h401v-133h-401v-146q0 -214 -123 -315h798v-213h-1089z" />
<glyph unicode="&#xa4;" horiz-adv-x="1470" d="M158 264l184 187q-59 103 -59 229t59 229l-184 187l151 155l185 -188q106 67 241 67q136 0 242 -67l184 188l152 -155l-185 -187q60 -105 60 -229t-60 -229l185 -187l-152 -155l-184 188q-108 -68 -242 -68q-133 0 -241 68l-185 -188zM496 680q0 -117 66 -188.5 t173 -71.5t173.5 71.5t66.5 188.5t-66.5 188.5t-173.5 71.5t-173 -71.5t-66 -188.5z" />
<glyph unicode="&#xa5;" horiz-adv-x="1298" d="M29 1434h274l346 -631l346 631h275l-426 -748h340v-123h-408v-129h408v-123h-408v-311h-254v311h-407v123h407v129h-407v123h338z" />
<glyph unicode="&#xa6;" horiz-adv-x="616" d="M217 -209v668h182v-668h-182zM217 743v670h182v-670h-182z" />
<glyph unicode="&#xa7;" horiz-adv-x="1044" d="M88 -20l154 120q53 -58 123.5 -90.5t144.5 -32.5q88 0 133 37.5t45 96.5q0 58 -44.5 95.5t-168.5 69.5q-177 45 -263.5 126.5t-86.5 209.5q0 96 50.5 166t141.5 109q-194 86 -194 266q0 134 110 219.5t289 85.5q247 0 396 -162l-150 -116q-85 94 -229 94q-76 0 -122 -34 t-46 -87q0 -52 56 -89.5t187 -76.5q170 -50 245 -128.5t75 -199.5q0 -90 -52 -160t-141 -108q90 -38 142.5 -107.5t52.5 -160.5q0 -146 -108.5 -237t-305.5 -91q-133 0 -245 48t-189 137zM360 639q0 -69 42 -111.5t130 -62.5q75 18 119.5 64t44.5 110q0 69 -42 111.5 t-130 62.5q-73 -15 -118.5 -62t-45.5 -112z" />
<glyph unicode="&#xa8;" horiz-adv-x="811" d="M68 1325q0 54 37.5 91.5t91.5 37.5t91.5 -37.5t37.5 -91.5t-37.5 -91.5t-91.5 -37.5t-91.5 37.5t-37.5 91.5zM485 1325q0 54 37.5 91.5t91.5 37.5t91.5 -37.5t37.5 -91.5t-37.5 -91.5t-91.5 -37.5t-91.5 37.5t-37.5 91.5z" />
<glyph unicode="&#xa9;" horiz-adv-x="1691" d="M104 717q0 202 99.5 372.5t270 269.5t372.5 99q151 0 288.5 -58.5t236.5 -157.5t157.5 -236.5t58.5 -288.5q0 -202 -99 -372.5t-269.5 -270t-372.5 -99.5t-372.5 99.5t-270 270t-99.5 372.5zM219 717q0 -130 49.5 -247.5t133.5 -202.5t200 -135t244 -50t244 50t200 135 t133.5 202.5t49.5 247.5t-49.5 247.5t-133.5 202.5t-200 135t-244 50t-244 -50t-200 -135t-133.5 -202.5t-49.5 -247.5zM438 717q0 195 115.5 319.5t304.5 124.5q122 0 216 -56t149 -155l-144 -73q-83 122 -213 122q-110 0 -172.5 -76t-62.5 -206t62.5 -206.5t172.5 -76.5 q129 0 213 123l144 -74q-55 -99 -149 -155t-216 -56q-189 0 -304.5 125t-115.5 320z" />
<glyph unicode="&#xaa;" horiz-adv-x="921" d="M86 911q0 112 82 182t213 70q128 0 223 -63v51q0 69 -38.5 105t-127.5 36q-110 0 -200 -69l-109 114q137 113 328 113q168 0 256 -75.5t88 -209.5v-491h-197v65q-90 -80 -223 -80q-130 0 -212.5 70t-82.5 182zM270 911q0 -104 164 -104q43 0 89.5 18t80.5 49v84 q-75 60 -176 60q-75 0 -116.5 -27t-41.5 -80z" />
<glyph unicode="&#xab;" horiz-adv-x="1224" d="M98 594v90l449 326l102 -136l-336 -235l336 -236l-102 -135zM575 594v90l449 326l102 -136l-335 -235l335 -236l-102 -135z" />
<glyph unicode="&#xac;" horiz-adv-x="1261" d="M106 725v190h1029v-587h-224v397h-805z" />
<glyph unicode="&#xad;" horiz-adv-x="827" d="M117 575v207h594v-207h-594z" />
<glyph unicode="&#xae;" horiz-adv-x="1691" d="M104 717q0 202 99.5 372.5t270 269.5t372.5 99q151 0 288.5 -58.5t236.5 -157.5t157.5 -236.5t58.5 -288.5q0 -202 -99 -372.5t-269.5 -270t-372.5 -99.5t-372.5 99.5t-270 270t-99.5 372.5zM219 717q0 -130 49.5 -247.5t133.5 -202.5t200 -135t244 -50t244 50t200 135 t133.5 202.5t49.5 247.5t-49.5 247.5t-133.5 202.5t-200 135t-244 50t-244 -50t-200 -135t-133.5 -202.5t-49.5 -247.5zM535 289v854h321q151 0 239.5 -67.5t88.5 -190.5q0 -88 -45.5 -148t-128.5 -88l221 -360h-195l-192 336h-135v-336h-174zM709 764h135q162 0 162 121 q0 62 -38 92.5t-124 30.5h-135v-244z" />
<glyph unicode="&#xaf;" horiz-adv-x="811" d="M100 1243v164h611v-164h-611z" />
<glyph unicode="&#xb0;" horiz-adv-x="819" d="M127 1180q0 120 80 199t203 79t202.5 -79t79.5 -199t-79.5 -199.5t-202.5 -79.5t-203 79.5t-80 199.5zM281 1180q0 -57 36 -94t93 -37t93 37t36 94t-36 94t-93 37t-93 -37t-36 -94z" />
<glyph unicode="&#xb1;" horiz-adv-x="1261" d="M117 0v188h1028v-188h-1028zM117 680v190h401v402h225v-402h402v-190h-402v-401h-225v401h-401z" />
<glyph unicode="&#xb2;" d="M96 1294q132 156 328 156q135 0 217 -75.5t82 -203.5q0 -213 -346 -522h352v-164h-629v142q185 153 304.5 296t119.5 242q0 48 -31.5 81.5t-86.5 33.5q-97 0 -175 -88z" />
<glyph unicode="&#xb3;" d="M82 629l135 98q65 -96 182 -96q70 0 112 36.5t42 92.5q0 71 -54.5 106t-146.5 35h-92v152h92q82 0 128 33t46 92q0 51 -29 79.5t-85 28.5q-54 0 -93.5 -19t-72.5 -63l-133 101q121 145 309 145q135 0 218 -69.5t83 -188.5q0 -72 -40.5 -129t-104.5 -84 q75 -29 122.5 -86.5t47.5 -140.5q0 -123 -91 -203t-249 -80q-215 0 -326 160z" />
<glyph unicode="&#xb4;" horiz-adv-x="811" d="M190 1239l291 293l140 -133l-328 -264z" />
<glyph unicode="&#xb5;" horiz-adv-x="1247" d="M137 -434v1495h242v-772q38 -55 104 -84t140 -29q72 0 139.5 30.5t105.5 86.5v768h242v-1061h-242v84q-43 -52 -109 -80.5t-145 -28.5q-149 0 -235 86v-495h-242z" />
<glyph unicode="&#xb6;" horiz-adv-x="1222" d="M84 991q0 205 128 324t329 119h501v-1702h-186v1525h-88v-1525h-193v817h-34q-201 0 -329 118.5t-128 323.5z" />
<glyph unicode="&#xb7;" horiz-adv-x="630" d="M168 717q0 63 42.5 106t104.5 43t105 -43t43 -106t-43 -106.5t-105 -43.5t-104.5 43.5t-42.5 106.5z" />
<glyph unicode="&#xb8;" horiz-adv-x="811" d="M141 -412l90 109q47 -41 111 -41q46 0 73 19.5t27 54.5q0 42 -47 67t-127 27l-14 18l74 158h176l-45 -92q76 -19 121 -70t45 -121q0 -85 -69 -144.5t-198 -59.5q-125 0 -217 75z" />
<glyph unicode="&#xb9;" d="M137 1233l275 203h168v-951h-191v725l-139 -100z" />
<glyph unicode="&#xba;" horiz-adv-x="921" d="M74 1055q0 172 107.5 283.5t279.5 111.5t279.5 -111.5t107.5 -283.5t-107.5 -284t-279.5 -112t-279.5 112t-107.5 284zM272 1055q0 -110 51 -174t138 -64q86 0 137 64t51 174t-50.5 173.5t-137.5 63.5t-138 -63.5t-51 -173.5z" />
<glyph unicode="&#xbb;" horiz-adv-x="1224" d="M98 403l336 236l-336 235l103 136l448 -326v-90l-448 -326zM575 403l336 236l-336 235l103 136l448 -326v-90l-448 -326z" />
<glyph unicode="&#xbc;" horiz-adv-x="2076" d="M137 1233l275 203h168v-951h-191v725l-139 -100zM588 45l764 1419l139 -75l-764 -1420zM1272 193v155l428 600h194v-590h111v-165h-111v-193h-188v193h-434zM1481 358h225v318z" />
<glyph unicode="&#xbd;" horiz-adv-x="2076" d="M137 1233l275 203h168v-951h-191v725l-139 -100zM588 45l764 1419l139 -75l-764 -1420zM1313 809q132 156 327 156q135 0 217 -75.5t82 -203.5q0 -213 -346 -522h353v-164h-629v141q184 153 304 296.5t120 242.5q0 48 -32 81.5t-87 33.5q-96 0 -174 -88z" />
<glyph unicode="&#xbe;" horiz-adv-x="2076" d="M82 629l135 98q65 -96 182 -96q70 0 112 36.5t42 92.5q0 71 -54.5 106t-146.5 35h-92v152h92q82 0 128 33t46 92q0 51 -29 79.5t-85 28.5q-54 0 -93.5 -19t-72.5 -63l-133 101q121 145 309 145q135 0 218 -69.5t83 -188.5q0 -72 -40.5 -129t-104.5 -84 q75 -29 122.5 -86.5t47.5 -140.5q0 -123 -91 -203t-249 -80q-215 0 -326 160zM588 45l764 1419l139 -75l-764 -1420zM1272 193v155l428 600h194v-590h111v-165h-111v-193h-188v193h-434zM1481 358h225v318z" />
<glyph unicode="&#xbf;" horiz-adv-x="1118" d="M137 -29q0 121 57.5 215.5t182.5 178.5q75 50 103 99t28 132v92h254v-108q0 -118 -46.5 -205t-152.5 -156q-97 -63 -132.5 -115.5t-35.5 -123.5q0 -75 52.5 -117.5t146.5 -42.5q77 0 147.5 37t122.5 98l166 -135q-78 -99 -200 -158t-257 -59q-202 0 -319 97t-117 271z M487 936q0 63 43 106t105 43t104.5 -43t42.5 -106t-42.5 -106.5t-104.5 -43.5t-105 43.5t-43 106.5z" />
<glyph unicode="&#xc0;" horiz-adv-x="1429" d="M39 0l526 1434h299l527 -1434h-273l-112 328h-584l-111 -328h-272zM430 1796l139 133l291 -293l-102 -104zM496 541h438l-219 645z" />
<glyph unicode="&#xc1;" horiz-adv-x="1429" d="M39 0l526 1434h299l527 -1434h-273l-112 328h-584l-111 -328h-272zM496 541h438l-219 645zM569 1636l291 293l139 -133l-327 -264z" />
<glyph unicode="&#xc2;" horiz-adv-x="1429" d="M39 0l526 1434h299l527 -1434h-273l-112 328h-584l-111 -328h-272zM381 1622l264 276h139l265 -276l-109 -90l-225 199l-226 -199zM496 541h438l-219 645z" />
<glyph unicode="&#xc3;" horiz-adv-x="1429" d="M39 0h272l111 328h584l112 -328h273l-527 1434h-299zM367 1626q20 114 75.5 175t139.5 61q79 0 161 -58q55 -41 97 -41q57 0 71 86l152 -20q-20 -114 -75.5 -175t-139.5 -61q-80 0 -162 58q-55 41 -96 41q-58 0 -72 -86zM496 541l219 645l219 -645h-438z" />
<glyph unicode="&#xc4;" horiz-adv-x="1429" d="M39 0h272l111 328h584l112 -328h273l-527 1434h-299zM377 1722q0 54 37.5 91.5t91.5 37.5t91.5 -37.5t37.5 -91.5t-37.5 -91.5t-91.5 -37.5t-91.5 37.5t-37.5 91.5zM496 541l219 645l219 -645h-438zM795 1722q0 54 37.5 91.5t91.5 37.5t91.5 -37.5t37.5 -91.5 t-37.5 -91.5t-91.5 -37.5t-91.5 37.5t-37.5 91.5z" />
<glyph unicode="&#xc5;" horiz-adv-x="1429" d="M39 0l526 1434h299l527 -1434h-273l-112 328h-584l-111 -328h-272zM489 1726q0 92 65.5 156t160.5 64t160 -64t65 -156t-65 -155.5t-160 -63.5t-160.5 63.5t-65.5 155.5zM496 541h438l-219 645zM633 1726q0 -38 23 -62t59 -24t59 24t23 62t-23 62t-59 24t-59 -24t-23 -62 z" />
<glyph unicode="&#xc6;" horiz-adv-x="1826" d="M37 0l739 1434h950v-213h-563v-377h492v-213h-492v-418h582v-213h-836v324h-434l-162 -324h-276zM582 537h327v653z" />
<glyph unicode="&#xc7;" horiz-adv-x="1421" d="M88 717q0 219 84 387.5t239 261t359 92.5q195 0 347 -83.5t237 -227.5l-209 -113q-137 207 -365 207q-191 0 -312.5 -137.5t-121.5 -386.5t121.5 -386.5t312.5 -137.5q229 0 365 206l209 -112q-71 -123 -193 -202.5t-278 -100.5l-37 -76q76 -19 121 -70t45 -121 q0 -85 -69 -144.5t-198 -59.5q-125 0 -217 75l90 109q47 -41 111 -41q46 0 73 19.5t27 54.5q0 42 -47 67t-127 27l-14 18l64 138q-281 22 -449 222t-168 515z" />
<glyph unicode="&#xc8;" horiz-adv-x="1183" d="M158 0v1434h925v-213h-671v-377h600v-213h-600v-418h690v-213h-944zM362 1796l140 133l291 -293l-103 -104z" />
<glyph unicode="&#xc9;" horiz-adv-x="1183" d="M158 0v1434h925v-213h-671v-377h600v-213h-600v-418h690v-213h-944zM453 1636l290 293l140 -133l-328 -264z" />
<glyph unicode="&#xca;" horiz-adv-x="1183" d="M158 0v1434h925v-213h-671v-377h600v-213h-600v-418h690v-213h-944zM293 1622l264 276h139l265 -276l-109 -90l-225 199l-226 -199z" />
<glyph unicode="&#xcb;" horiz-adv-x="1183" d="M158 0v1434h925v-213h-671v-377h600v-213h-600v-418h690v-213h-944zM291 1722q0 54 37.5 91.5t91.5 37.5t91.5 -37.5t37.5 -91.5t-37.5 -91.5t-91.5 -37.5t-91.5 37.5t-37.5 91.5zM709 1722q0 54 37.5 91.5t91.5 37.5t91.5 -37.5t37.5 -91.5t-37.5 -91.5t-91.5 -37.5 t-91.5 37.5t-37.5 91.5z" />
<glyph unicode="&#xcc;" horiz-adv-x="589" d="M-35 1796l139 133l291 -293l-102 -104zM168 0v1434h254v-1434h-254z" />
<glyph unicode="&#xcd;" horiz-adv-x="589" d="M168 0v1434h254v-1434h-254zM195 1636l290 293l140 -133l-328 -264z" />
<glyph unicode="&#xce;" horiz-adv-x="589" d="M-39 1622l264 276h140l264 -276l-109 -90l-225 199l-225 -199zM168 0v1434h254v-1434h-254z" />
<glyph unicode="&#xcf;" horiz-adv-x="589" d="M-43 1722q0 54 37.5 91.5t91.5 37.5t91.5 -37.5t37.5 -91.5t-37.5 -91.5t-91.5 -37.5t-91.5 37.5t-37.5 91.5zM168 0v1434h254v-1434h-254zM375 1722q0 54 37.5 91.5t91.5 37.5t91.5 -37.5t37.5 -91.5t-37.5 -91.5t-91.5 -37.5t-91.5 37.5t-37.5 91.5z" />
<glyph unicode="&#xd0;" horiz-adv-x="1429" d="M6 639v156h152v639h495q320 0 504 -194.5t184 -522.5t-184 -522.5t-504 -194.5h-495v639h-152zM412 213h225q210 0 328 130.5t118 373.5t-118 373.5t-328 130.5h-225v-426h305v-156h-305v-426z" />
<glyph unicode="&#xd1;" horiz-adv-x="1474" d="M158 0v1434h245l660 -1012v1012h254v-1434h-246l-659 1012v-1012h-254zM389 1626q20 114 75.5 175t139.5 61q80 0 162 -58q55 -41 96 -41q58 0 72 86l151 -20q-20 -114 -75.5 -175t-139.5 -61q-79 0 -161 58q-55 41 -97 41q-57 0 -71 -86z" />
<glyph unicode="&#xd2;" horiz-adv-x="1495" d="M88 717q0 157 45 292t128 235t208.5 157t278.5 57q203 0 354 -98.5t228 -265.5t77 -377t-77 -377t-228 -266t-354 -99t-354.5 99t-228.5 266t-77 377zM346 717q0 -241 108.5 -382.5t293.5 -141.5t293 141.5t108 382.5t-108 382.5t-293 141.5t-293.5 -141.5t-108.5 -382.5 zM471 1796l139 133l291 -293l-102 -104z" />
<glyph unicode="&#xd3;" horiz-adv-x="1495" d="M88 717q0 157 45 292t128 235t208.5 157t278.5 57q203 0 354 -98.5t228 -265.5t77 -377t-77 -377t-228 -266t-354 -99t-354.5 99t-228.5 266t-77 377zM346 717q0 -241 108.5 -382.5t293.5 -141.5t293 141.5t108 382.5t-108 382.5t-293 141.5t-293.5 -141.5t-108.5 -382.5 zM594 1636l291 293l139 -133l-328 -264z" />
<glyph unicode="&#xd4;" horiz-adv-x="1495" d="M88 717q0 157 45 292t128 235t208.5 157t278.5 57q203 0 354 -98.5t228 -265.5t77 -377t-77 -377t-228 -266t-354 -99t-354.5 99t-228.5 266t-77 377zM346 717q0 -241 108.5 -382.5t293.5 -141.5t293 141.5t108 382.5t-108 382.5t-293 141.5t-293.5 -141.5t-108.5 -382.5 zM414 1622l264 276h139l264 -276l-108 -90l-225 199l-226 -199z" />
<glyph unicode="&#xd5;" horiz-adv-x="1495" d="M88 717q0 157 45 292t128 235t208.5 157t278.5 57q203 0 354 -98.5t228 -265.5t77 -377t-77 -377t-228 -266t-354 -99t-354.5 99t-228.5 266t-77 377zM346 717q0 -241 108.5 -382.5t293.5 -141.5t293 141.5t108 382.5t-108 382.5t-293 141.5t-293.5 -141.5t-108.5 -382.5 zM399 1626q20 114 75.5 175t139.5 61q80 0 162 -58q55 -41 96 -41q58 0 72 86l152 -20q-20 -114 -75.5 -175t-139.5 -61q-80 0 -162 58q-55 41 -96 41q-58 0 -72 -86z" />
<glyph unicode="&#xd6;" horiz-adv-x="1495" d="M88 717q0 157 45 292t128 235t208.5 157t278.5 57q203 0 354 -98.5t228 -265.5t77 -377t-77 -377t-228 -266t-354 -99t-354.5 99t-228.5 266t-77 377zM346 717q0 -241 108.5 -382.5t293.5 -141.5t293 141.5t108 382.5t-108 382.5t-293 141.5t-293.5 -141.5t-108.5 -382.5 zM410 1722q0 54 37.5 91.5t91.5 37.5t91.5 -37.5t37.5 -91.5t-37.5 -91.5t-91.5 -37.5t-91.5 37.5t-37.5 91.5zM827 1722q0 54 37.5 91.5t91.5 37.5t91.5 -37.5t37.5 -91.5t-37.5 -91.5t-91.5 -37.5t-91.5 37.5t-37.5 91.5z" />
<glyph unicode="&#xd7;" horiz-adv-x="1261" d="M168 367l313 313l-313 313l149 150l314 -314l313 314l150 -150l-314 -313l314 -313l-150 -150l-313 313l-314 -313z" />
<glyph unicode="&#xd8;" horiz-adv-x="1495" d="M88 717q0 157 45 292t128 235t208.5 157t278.5 57q213 0 370 -110l121 163l115 -81l-129 -179q88 -100 135 -237.5t47 -296.5q0 -210 -77 -377t-228 -266t-354 -99q-214 0 -373 111l-119 -164l-115 82l129 176q-89 99 -135.5 237t-46.5 300zM346 717q0 -197 74 -332 l563 774q-97 82 -235 82q-185 0 -293.5 -141.5t-108.5 -382.5zM512 272q98 -79 236 -79q185 0 293 141.5t108 382.5q0 195 -74 330z" />
<glyph unicode="&#xd9;" horiz-adv-x="1499" d="M158 569v865h254v-865q0 -376 338 -376q337 0 337 376v865h254v-865q0 -193 -75.5 -328.5t-207 -200.5t-308.5 -65q-271 0 -431.5 153t-160.5 441zM438 1796l140 133l290 -293l-102 -104z" />
<glyph unicode="&#xda;" horiz-adv-x="1499" d="M158 569v865h254v-865q0 -376 338 -376q337 0 337 376v865h254v-865q0 -193 -75.5 -328.5t-207 -200.5t-308.5 -65q-271 0 -431.5 153t-160.5 441zM631 1636l291 293l139 -133l-328 -264z" />
<glyph unicode="&#xdb;" horiz-adv-x="1499" d="M158 569v865h254v-865q0 -376 338 -376q337 0 337 376v865h254v-865q0 -193 -75.5 -328.5t-207 -200.5t-308.5 -65q-271 0 -431.5 153t-160.5 441zM416 1622l264 276h139l264 -276l-108 -90l-225 199l-226 -199z" />
<glyph unicode="&#xdc;" horiz-adv-x="1499" d="M158 569q0 -288 160.5 -441t431.5 -153q177 0 308.5 65t207 200.5t75.5 328.5v865h-254v-865q0 -376 -337 -376q-338 0 -338 376v865h-254v-865zM412 1722q0 54 37.5 91.5t91.5 37.5t91.5 -37.5t37.5 -91.5t-37.5 -91.5t-91.5 -37.5t-91.5 37.5t-37.5 91.5zM829 1722 q0 54 37.5 91.5t91.5 37.5t91.5 -37.5t37.5 -91.5t-37.5 -91.5t-91.5 -37.5t-91.5 37.5t-37.5 91.5z" />
<glyph unicode="&#xdd;" horiz-adv-x="1298" d="M29 1434h274l346 -631l346 631h275l-494 -869v-565h-254v565zM516 1636l291 293l139 -133l-328 -264z" />
<glyph unicode="&#xde;" horiz-adv-x="1255" d="M158 0v1434h254v-248h221q263 0 409 -117.5t146 -343.5q0 -225 -146 -342t-409 -117h-221v-266h-254zM412 479h206q157 0 234.5 59.5t77.5 186.5q0 129 -77 188.5t-235 59.5h-206v-494z" />
<glyph unicode="&#xdf;" horiz-adv-x="1220" d="M147 0v975q0 233 115.5 358t335.5 125q193 0 315.5 -111t122.5 -266q0 -112 -53 -193.5t-156 -123.5q154 -36 244 -132t90 -251q0 -195 -111.5 -300.5t-306.5 -105.5q-156 0 -274 70l86 188q62 -45 143 -45q96 0 150.5 53.5t54.5 155.5q0 121 -88 187.5t-237 68.5v213 q97 0 148.5 52.5t51.5 146.5q0 76 -48 126t-134 50q-95 0 -145 -62.5t-50 -174.5v-1004h-254z" />
<glyph unicode="&#xe0;" horiz-adv-x="1157" d="M76 322q0 152 112.5 249t286.5 97q177 0 311 -103v101q0 107 -55 164t-186 57q-151 0 -271 -99l-139 140q186 157 438 157q128 0 218 -33t141 -96t73.5 -143.5t22.5 -187.5v-625h-242v88q-116 -113 -311 -113q-174 0 -286.5 97.5t-112.5 249.5zM317 1440l140 133 l291 -293l-103 -104zM322 322q0 -73 57 -111.5t158 -38.5q151 0 249 94v111q-105 94 -249 94q-101 0 -158 -38t-57 -111z" />
<glyph unicode="&#xe1;" horiz-adv-x="1157" d="M76 322q0 152 112.5 249t286.5 97q177 0 311 -103v101q0 107 -55 164t-186 57q-151 0 -271 -99l-139 140q186 157 438 157q128 0 218 -33t141 -96t73.5 -143.5t22.5 -187.5v-625h-242v88q-116 -113 -311 -113q-174 0 -286.5 97.5t-112.5 249.5zM322 322q0 -73 57 -111.5 t158 -38.5q151 0 249 94v111q-105 94 -249 94q-101 0 -158 -38t-57 -111zM408 1280l290 293l140 -133l-328 -264z" />
<glyph unicode="&#xe2;" horiz-adv-x="1157" d="M76 322q0 152 112.5 249t286.5 97q177 0 311 -103v101q0 107 -55 164t-186 57q-151 0 -271 -99l-139 140q186 157 438 157q128 0 218 -33t141 -96t73.5 -143.5t22.5 -187.5v-625h-242v88q-116 -113 -311 -113q-174 0 -286.5 97.5t-112.5 249.5zM250 1266l264 276h139 l265 -276l-109 -90l-225 198l-226 -198zM322 322q0 -73 57 -111.5t158 -38.5q151 0 249 94v111q-105 94 -249 94q-101 0 -158 -38t-57 -111z" />
<glyph unicode="&#xe3;" horiz-adv-x="1157" d="M76 322q0 152 112.5 249t286.5 97q177 0 311 -103v101q0 107 -55 164t-186 57q-151 0 -271 -99l-139 140q186 157 438 157q128 0 218 -33t141 -96t73.5 -143.5t22.5 -187.5v-625h-242v88q-116 -113 -311 -113q-174 0 -286.5 97.5t-112.5 249.5zM229 1270q20 114 75 174.5 t140 60.5q82 0 162 -57q55 -41 96 -41q58 0 72 86l152 -20q-20 -114 -75.5 -175t-139.5 -61q-82 0 -162 57q-55 41 -96 41q-58 0 -72 -86zM322 322q0 -73 57 -111.5t158 -38.5q151 0 249 94v111q-105 94 -249 94q-101 0 -158 -38t-57 -111z" />
<glyph unicode="&#xe4;" horiz-adv-x="1157" d="M76 322q0 152 112.5 249t286.5 97q177 0 311 -103v101q0 107 -55 164t-186 57q-151 0 -271 -99l-139 140q186 157 438 157q128 0 218 -33t141 -96t73.5 -143.5t22.5 -187.5v-625h-242v88q-116 -113 -311 -113q-174 0 -286.5 97.5t-112.5 249.5zM260 1366q0 54 37.5 91.5 t91.5 37.5t91.5 -37.5t37.5 -91.5t-37.5 -91.5t-91.5 -37.5t-91.5 37.5t-37.5 91.5zM322 322q0 -73 57 -111.5t158 -38.5q151 0 249 94v111q-105 94 -249 94q-101 0 -158 -38t-57 -111zM678 1366q0 54 37.5 91.5t91.5 37.5t91.5 -37.5t37.5 -91.5t-37.5 -91.5t-91.5 -37.5 t-91.5 37.5t-37.5 91.5z" />
<glyph unicode="&#xe5;" horiz-adv-x="1157" d="M76 322q0 152 112.5 249t286.5 97q177 0 311 -103v101q0 107 -55 164t-186 57q-151 0 -271 -99l-139 140q186 157 438 157q128 0 218 -33t141 -96t73.5 -143.5t22.5 -187.5v-625h-242v88q-116 -113 -311 -113q-174 0 -286.5 97.5t-112.5 249.5zM322 322q0 -73 57 -111.5 t158 -38.5q151 0 249 94v111q-105 94 -249 94q-101 0 -158 -38t-57 -111zM362 1370q0 92 65.5 155.5t160.5 63.5t160 -63.5t65 -155.5t-65 -155.5t-160 -63.5t-160.5 63.5t-65.5 155.5zM506 1370q0 -38 23 -62t59 -24t59 24t23 62t-23 62t-59 24t-59 -24t-23 -62z" />
<glyph unicode="&#xe6;" horiz-adv-x="1890" d="M76 322q0 152 112.5 249t286.5 97q180 0 311 -103v101q0 107 -55 164t-186 57q-151 0 -271 -99l-139 140q86 76 198 116.5t236 40.5q254 0 371 -153q62 70 153.5 111.5t204.5 41.5q228 0 371 -156.5t143 -404.5q0 -59 -4 -82h-782q17 -122 100 -196t205 -74 q154 0 264 135l170 -121q-75 -102 -186.5 -156.5t-245.5 -54.5q-251 0 -405 160q-97 -88 -203.5 -124t-239.5 -36q-182 0 -295.5 97t-113.5 250zM322 322q0 -73 57 -111.5t158 -38.5q171 0 288 117q-20 53 -26 86q-55 45 -125.5 70.5t-136.5 25.5q-101 0 -158 -38t-57 -111z M1024 627h545q-9 120 -84.5 191t-186.5 71q-113 0 -185 -69t-89 -193z" />
<glyph unicode="&#xe7;" horiz-adv-x="1118" d="M78 530q0 248 142 401.5t382 153.5q155 0 273 -67.5t190 -190.5l-186 -98q-54 80 -117 120t-150 40q-133 0 -210.5 -95.5t-77.5 -263.5t77.5 -263t210.5 -95q87 0 150 40t117 120l186 -99q-122 -204 -352 -247l-37 -78q76 -19 121 -70t45 -121q0 -85 -69 -144.5 t-198 -59.5q-125 0 -217 75l91 109q47 -41 110 -41q46 0 73 19.5t27 54.5q0 42 -47 67t-127 27l-14 18l64 138q-212 22 -334.5 171.5t-122.5 378.5z" />
<glyph unicode="&#xe8;" horiz-adv-x="1187" d="M78 530q0 244 143.5 399.5t374.5 155.5q228 0 371 -156.5t143 -404.5q0 -59 -4 -82h-782q17 -122 100 -196t205 -74q154 0 264 135l170 -121q-75 -102 -186.5 -156.5t-245.5 -54.5q-249 0 -401 154.5t-152 400.5zM322 627h544q-9 120 -84 191t-186 71q-113 0 -185 -69 t-89 -193zM338 1440l139 133l291 -293l-102 -104z" />
<glyph unicode="&#xe9;" horiz-adv-x="1187" d="M78 530q0 244 143.5 399.5t374.5 155.5q228 0 371 -156.5t143 -404.5q0 -59 -4 -82h-782q17 -122 100 -196t205 -74q154 0 264 135l170 -121q-75 -102 -186.5 -156.5t-245.5 -54.5q-249 0 -401 154.5t-152 400.5zM322 627h544q-9 120 -84 191t-186 71q-113 0 -185 -69 t-89 -193zM444 1280l291 293l139 -133l-327 -264z" />
<glyph unicode="&#xea;" horiz-adv-x="1187" d="M78 530q0 244 143.5 399.5t374.5 155.5q228 0 371 -156.5t143 -404.5q0 -59 -4 -82h-782q17 -122 100 -196t205 -74q154 0 264 135l170 -121q-75 -102 -186.5 -156.5t-245.5 -54.5q-249 0 -401 154.5t-152 400.5zM256 1266l264 276h139l265 -276l-109 -90l-225 198 l-225 -198zM322 627h544q-9 120 -84 191t-186 71q-113 0 -185 -69t-89 -193z" />
<glyph unicode="&#xeb;" horiz-adv-x="1187" d="M78 530q0 244 143.5 399.5t374.5 155.5q228 0 371 -156.5t143 -404.5q0 -59 -4 -82h-782q17 -122 100 -196t205 -74q154 0 264 135l170 -121q-75 -102 -186.5 -156.5t-245.5 -54.5q-249 0 -401 154.5t-152 400.5zM258 1366q0 54 37.5 91.5t91.5 37.5t91.5 -37.5 t37.5 -91.5t-37.5 -91.5t-91.5 -37.5t-91.5 37.5t-37.5 91.5zM322 627h544q-9 120 -84 191t-186 71q-113 0 -185 -69t-89 -193zM676 1366q0 54 37.5 91.5t91.5 37.5t91.5 -37.5t37.5 -91.5t-37.5 -91.5t-91.5 -37.5t-91.5 37.5t-37.5 91.5z" />
<glyph unicode="&#xec;" horiz-adv-x="538" d="M-57 1440l139 133l291 -293l-103 -104zM147 0v1061h242v-1061h-242z" />
<glyph unicode="&#xed;" horiz-adv-x="538" d="M147 0v1061h242v-1061h-242zM164 1280l291 293l139 -133l-328 -264z" />
<glyph unicode="&#xee;" horiz-adv-x="538" d="M-66 1266l265 276h139l264 -276l-108 -90l-226 198l-225 -198zM147 0v1061h242v-1061h-242z" />
<glyph unicode="&#xef;" horiz-adv-x="538" d="M-70 1366q0 54 37.5 91.5t91.5 37.5t91.5 -37.5t37.5 -91.5t-37.5 -91.5t-91.5 -37.5t-91.5 37.5t-37.5 91.5zM147 0v1061h242v-1061h-242zM348 1366q0 54 37.5 91.5t91.5 37.5t91.5 -37.5t37.5 -91.5t-37.5 -91.5t-91.5 -37.5t-91.5 37.5t-37.5 91.5z" />
<glyph unicode="&#xf0;" horiz-adv-x="1179" d="M88 496q0 244 123.5 378t327.5 134q80 0 158 -29.5t134 -77.5q-39 167 -147 264l-303 -104l-49 129l200 67q-85 37 -186 58l6 180q259 -40 424 -154l277 97l49 -129l-205 -72q193 -209 193 -580q0 -321 -132.5 -501.5t-388.5 -180.5q-218 0 -349.5 139t-131.5 382z M334 494q0 -148 63 -235t176 -87q283 0 283 516q-113 125 -283 125q-113 0 -176 -85t-63 -234z" />
<glyph unicode="&#xf1;" horiz-adv-x="1239" d="M137 0v1061h242v-123q147 147 356 147q171 0 273 -103.5t102 -293.5v-688h-242v653q0 236 -204 236q-84 0 -161.5 -42t-123.5 -102v-745h-242zM270 1270q20 114 75 174.5t140 60.5q82 0 162 -57q55 -41 96 -41q58 0 72 86l152 -20q-20 -114 -75.5 -175t-139.5 -61 q-82 0 -162 57q-55 41 -96 41q-58 0 -72 -86z" />
<glyph unicode="&#xf2;" horiz-adv-x="1212" d="M78 530q0 250 144 402.5t384 152.5q241 0 385 -152.5t144 -402.5t-144 -402.5t-385 -152.5q-240 0 -384 152.5t-144 402.5zM324 530q0 -167 74.5 -262.5t207.5 -95.5t208 95.5t75 262.5t-75 263t-208 96t-207.5 -96t-74.5 -263zM338 1440l139 133l291 -293l-102 -104z " />
<glyph unicode="&#xf3;" horiz-adv-x="1212" d="M78 530q0 250 144 402.5t384 152.5q241 0 385 -152.5t144 -402.5t-144 -402.5t-385 -152.5q-240 0 -384 152.5t-144 402.5zM324 530q0 -167 74.5 -262.5t207.5 -95.5t208 95.5t75 262.5t-75 263t-208 96t-207.5 -96t-74.5 -263zM444 1280l291 293l139 -133l-327 -264z " />
<glyph unicode="&#xf4;" horiz-adv-x="1212" d="M78 530q0 250 144 402.5t384 152.5q241 0 385 -152.5t144 -402.5t-144 -402.5t-385 -152.5q-240 0 -384 152.5t-144 402.5zM272 1266l265 276h139l264 -276l-109 -90l-225 198l-225 -198zM324 530q0 -167 74.5 -262.5t207.5 -95.5t208 95.5t75 262.5t-75 263t-208 96 t-207.5 -96t-74.5 -263z" />
<glyph unicode="&#xf5;" horiz-adv-x="1212" d="M78 530q0 250 144 402.5t384 152.5q241 0 385 -152.5t144 -402.5t-144 -402.5t-385 -152.5q-240 0 -384 152.5t-144 402.5zM258 1270q20 114 75 174.5t140 60.5q82 0 162 -57q55 -41 96 -41q58 0 72 86l151 -20q-20 -114 -75.5 -175t-139.5 -61q-81 0 -161 57 q-55 41 -97 41q-57 0 -71 -86zM324 530q0 -167 74.5 -262.5t207.5 -95.5t208 95.5t75 262.5t-75 263t-208 96t-207.5 -96t-74.5 -263z" />
<glyph unicode="&#xf6;" horiz-adv-x="1212" d="M78 530q0 250 144 402.5t384 152.5q241 0 385 -152.5t144 -402.5t-144 -402.5t-385 -152.5q-240 0 -384 152.5t-144 402.5zM268 1366q0 54 37.5 91.5t91.5 37.5t91.5 -37.5t37.5 -91.5t-37.5 -91.5t-91.5 -37.5t-91.5 37.5t-37.5 91.5zM324 530q0 -167 74.5 -262.5 t207.5 -95.5t208 95.5t75 262.5t-75 263t-208 96t-207.5 -96t-74.5 -263zM686 1366q0 54 37.5 91.5t91.5 37.5t91.5 -37.5t37.5 -91.5t-37.5 -91.5t-91.5 -37.5t-91.5 37.5t-37.5 91.5z" />
<glyph unicode="&#xf7;" horiz-adv-x="1261" d="M117 584v190h1028v-190h-1028zM489 268q0 -58 41.5 -99.5t100.5 -41.5t100 41.5t41 99.5q0 59 -41.5 100.5t-99.5 41.5q-59 0 -100.5 -42t-41.5 -100zM489 1090q0 58 41.5 99.5t100.5 41.5t100 -41.5t41 -99.5q0 -59 -41.5 -100.5t-99.5 -41.5q-59 0 -100.5 42t-41.5 100 z" />
<glyph unicode="&#xf8;" horiz-adv-x="1212" d="M78 530q0 250 144 402.5t384 152.5q155 0 273 -65l94 127l114 -82l-98 -131q146 -156 146 -404q0 -250 -144 -402.5t-385 -152.5q-155 0 -272 66l-94 -127l-115 82l96 131q-143 152 -143 403zM324 530q0 -124 41 -208l387 526q-62 41 -146 41q-133 0 -207.5 -96 t-74.5 -263zM459 211q64 -39 147 -39q133 0 208 95.5t75 262.5q0 122 -41 209z" />
<glyph unicode="&#xf9;" horiz-adv-x="1224" d="M127 446v615h242v-617q0 -133 67 -202.5t176 -69.5t176.5 69.5t67.5 202.5v617h242v-615q0 -233 -129.5 -352t-356.5 -119q-226 0 -355.5 119t-129.5 352zM319 1440l140 133l291 -293l-103 -104z" />
<glyph unicode="&#xfa;" horiz-adv-x="1224" d="M127 446v615h242v-617q0 -133 67 -202.5t176 -69.5t176.5 69.5t67.5 202.5v617h242v-615q0 -233 -129.5 -352t-356.5 -119q-226 0 -355.5 119t-129.5 352zM475 1280l291 293l139 -133l-327 -264z" />
<glyph unicode="&#xfb;" horiz-adv-x="1224" d="M127 446v615h242v-617q0 -133 67 -202.5t176 -69.5t176.5 69.5t67.5 202.5v617h242v-615q0 -233 -129.5 -352t-356.5 -119q-226 0 -355.5 119t-129.5 352zM279 1266l264 276h139l264 -276l-108 -90l-226 198l-225 -198z" />
<glyph unicode="&#xfc;" horiz-adv-x="1224" d="M127 446v615h242v-617q0 -133 67 -202.5t176 -69.5t176.5 69.5t67.5 202.5v617h242v-615q0 -233 -129.5 -352t-356.5 -119q-226 0 -355.5 119t-129.5 352zM274 1366q0 54 37.5 91.5t91.5 37.5t91.5 -37.5t37.5 -91.5t-37.5 -91.5t-91.5 -37.5t-91.5 37.5t-37.5 91.5z M692 1366q0 54 37.5 91.5t91.5 37.5t91.5 -37.5t37.5 -91.5t-37.5 -91.5t-91.5 -37.5t-91.5 37.5t-37.5 91.5z" />
<glyph unicode="&#xfd;" horiz-adv-x="1118" d="M29 1061h247l295 -739l271 739h248l-551 -1495h-248l164 442zM416 1280l291 293l139 -133l-328 -264z" />
<glyph unicode="&#xfe;" horiz-adv-x="1247" d="M137 -434v1929h242v-537q134 127 319 127q216 0 337.5 -149t121.5 -406t-121.5 -406t-337.5 -149q-185 0 -319 127v-536h-242zM379 287q46 -53 117 -83t141 -30q138 0 206 93t68 263t-68 263.5t-206 93.5q-70 0 -141 -30t-117 -83v-487z" />
<glyph unicode="&#xff;" horiz-adv-x="1118" d="M29 1061h247l295 -739l271 739h248l-551 -1495h-248l164 442zM231 1366q0 54 37.5 91.5t91.5 37.5t91.5 -37.5t37.5 -91.5t-37.5 -91.5t-91.5 -37.5t-91.5 37.5t-37.5 91.5zM649 1366q0 54 37.5 91.5t91.5 37.5t91.5 -37.5t37.5 -91.5t-37.5 -91.5t-91.5 -37.5 t-91.5 37.5t-37.5 91.5z" />
<glyph unicode="&#x100;" horiz-adv-x="1429" d="M39 0h272l111 328h584l112 -328h273l-527 1434h-299zM410 1640v164h610v-164h-610zM496 541l219 645l219 -645h-438z" />
<glyph unicode="&#x101;" horiz-adv-x="1157" d="M76 322q0 152 112.5 249t286.5 97q177 0 311 -103v101q0 107 -55 164t-186 57q-151 0 -271 -99l-139 140q186 157 438 157q128 0 218 -33t141 -96t73.5 -143.5t22.5 -187.5v-625h-242v88q-116 -113 -311 -113q-174 0 -286.5 97.5t-112.5 249.5zM274 1284v164h611v-164 h-611zM322 322q0 -73 57 -111.5t158 -38.5q151 0 249 94v111q-105 94 -249 94q-101 0 -158 -38t-57 -111z" />
<glyph unicode="&#x102;" horiz-adv-x="1429" d="M39 0l526 1434h299l527 -1434h-273l-112 328h-584l-111 -328h-272zM383 1843l156 37q47 -162 176 -162t176 162l156 -37q-32 -131 -116 -205.5t-216 -74.5t-216 74.5t-116 205.5zM496 541h438l-219 645z" />
<glyph unicode="&#x103;" horiz-adv-x="1157" d="M76 322q0 152 112.5 249t286.5 97q177 0 311 -103v101q0 107 -55 164t-186 57q-151 0 -271 -99l-139 140q186 157 438 157q128 0 218 -33t141 -96t73.5 -143.5t22.5 -187.5v-625h-242v88q-116 -113 -311 -113q-174 0 -286.5 97.5t-112.5 249.5zM250 1491l156 37 q47 -162 176 -162t176 162l155 -37q-32 -131 -115.5 -206t-215.5 -75t-216 75t-116 206zM322 322q0 -73 57 -111.5t158 -38.5q151 0 249 94v111q-105 94 -249 94q-101 0 -158 -38t-57 -111z" />
<glyph unicode="&#x104;" horiz-adv-x="1429" d="M39 0l526 1434h299l527 -1434q-125 -101 -125 -207q0 -42 25 -67t63 -25q52 0 90 41l92 -109q-92 -82 -221 -82q-105 0 -169.5 60t-64.5 149q0 67 36 131t97 109h-96l-112 328h-584l-111 -328h-272zM496 541h438l-219 645z" />
<glyph unicode="&#x105;" horiz-adv-x="1157" d="M76 322q0 152 112.5 249t286.5 97q177 0 311 -103v101q0 107 -55 164t-186 57q-151 0 -271 -99l-139 140q186 157 438 157q128 0 218 -33t141 -96t73.5 -143.5t22.5 -187.5v-625q-125 -101 -125 -207q0 -42 25 -67t63 -25q52 0 90 41l93 -109q-92 -82 -222 -82 q-105 0 -169 60t-64 149q0 67 36 131t97 109h-66v88q-116 -113 -311 -113q-174 0 -286.5 97.5t-112.5 249.5zM322 322q0 -73 57 -111.5t158 -38.5q151 0 249 94v111q-105 94 -249 94q-101 0 -158 -38t-57 -111z" />
<glyph unicode="&#x106;" horiz-adv-x="1421" d="M88 717q0 219 84 387.5t239 261t359 92.5q195 0 347 -83.5t237 -227.5l-209 -113q-137 207 -365 207q-191 0 -312.5 -137.5t-121.5 -386.5t121.5 -386.5t312.5 -137.5q229 0 365 206l209 -112q-85 -145 -237 -228.5t-347 -83.5q-204 0 -359 93t-239 261.5t-84 387.5z M590 1636l291 293l139 -133l-328 -264z" />
<glyph unicode="&#x107;" horiz-adv-x="1118" d="M78 530q0 248 142 401.5t382 153.5q155 0 273 -67.5t190 -190.5l-186 -98q-54 80 -117 120t-150 40q-133 0 -210.5 -95.5t-77.5 -263.5t77.5 -263t210.5 -95q87 0 150 40t117 120l186 -99q-72 -123 -190 -190.5t-273 -67.5q-240 0 -382 153.5t-142 401.5zM389 1280 l291 293l139 -133l-327 -264z" />
<glyph unicode="&#x108;" horiz-adv-x="1421" d="M88 717q0 219 84 387.5t239 261t359 92.5q195 0 347 -83.5t237 -227.5l-209 -113q-137 207 -365 207q-191 0 -312.5 -137.5t-121.5 -386.5t121.5 -386.5t312.5 -137.5q229 0 365 206l209 -112q-85 -145 -237 -228.5t-347 -83.5q-204 0 -359 93t-239 261.5t-84 387.5z M420 1622l264 276h139l264 -276l-108 -90l-225 199l-226 -199z" />
<glyph unicode="&#x109;" horiz-adv-x="1118" d="M78 530q0 248 142 401.5t382 153.5q155 0 273 -67.5t190 -190.5l-186 -98q-54 80 -117 120t-150 40q-133 0 -210.5 -95.5t-77.5 -263.5t77.5 -263t210.5 -95q87 0 150 40t117 120l186 -99q-72 -123 -190 -190.5t-273 -67.5q-240 0 -382 153.5t-142 401.5zM242 1266 l264 276h139l264 -276l-108 -90l-226 198l-225 -198z" />
<glyph unicode="&#x10a;" horiz-adv-x="1421" d="M88 717q0 -219 84 -387.5t239 -261.5t359 -93q195 0 347 83.5t237 228.5l-209 112q-136 -206 -365 -206q-191 0 -312.5 137.5t-121.5 386.5t121.5 386.5t312.5 137.5q228 0 365 -207l209 113q-85 144 -237 227.5t-347 83.5q-204 0 -359 -92.5t-239 -261t-84 -387.5z M608 1722q0 54 37.5 91.5t91.5 37.5t91.5 -37.5t37.5 -91.5t-37.5 -91.5t-91.5 -37.5t-91.5 37.5t-37.5 91.5z" />
<glyph unicode="&#x10b;" horiz-adv-x="1118" d="M78 530q0 -248 142 -401.5t382 -153.5q155 0 273 67.5t190 190.5l-186 99q-54 -80 -117 -120t-150 -40q-133 0 -210.5 95t-77.5 263t77.5 263.5t210.5 95.5q87 0 150 -40t117 -120l186 98q-72 123 -190 190.5t-273 67.5q-240 0 -382 -153.5t-142 -401.5zM438 1366 q0 54 37.5 91.5t91.5 37.5t91.5 -37.5t37.5 -91.5t-37.5 -91.5t-91.5 -37.5t-91.5 37.5t-37.5 91.5z" />
<glyph unicode="&#x10c;" horiz-adv-x="1421" d="M88 717q0 -219 84 -387.5t239 -261.5t359 -93q195 0 347 83.5t237 228.5l-209 112q-136 -206 -365 -206q-191 0 -312.5 137.5t-121.5 386.5t121.5 386.5t312.5 137.5q228 0 365 -207l209 113q-85 144 -237 227.5t-347 83.5q-204 0 -359 -92.5t-239 -261t-84 -387.5z M414 1833l108 90l226 -199l225 199l108 -90l-264 -277h-139z" />
<glyph unicode="&#x10d;" horiz-adv-x="1118" d="M78 530q0 -248 142 -401.5t382 -153.5q155 0 273 67.5t190 190.5l-186 99q-54 -80 -117 -120t-150 -40q-133 0 -210.5 95t-77.5 263t77.5 263.5t210.5 95.5q87 0 150 -40t117 -120l186 98q-72 123 -190 190.5t-273 67.5q-240 0 -382 -153.5t-142 -401.5zM250 1477l108 90 l226 -199l225 199l109 -90l-265 -277h-139z" />
<glyph unicode="&#x10e;" horiz-adv-x="1429" d="M158 0v1434h495q320 0 504 -194.5t184 -522.5t-184 -522.5t-504 -194.5h-495zM270 1833l109 90l225 -199l225 199l109 -90l-264 -277h-139zM412 213h225q210 0 328 130.5t118 373.5t-118 373.5t-328 130.5h-225v-1008z" />
<glyph unicode="&#x10f;" horiz-adv-x="1492" d="M90 530q0 -257 121.5 -406t337.5 -149q185 0 319 127v-102h242v1495h-242v-537q-134 127 -319 127q-216 0 -337.5 -149t-121.5 -406zM336 530q0 170 68 263.5t206 93.5q70 0 141 -30t117 -83v-487q-46 -53 -117 -83t-141 -30q-138 0 -206 93t-68 263zM1190 1024l137 496 l191 -64l-187 -473z" />
<glyph unicode="&#x110;" horiz-adv-x="1429" d="M6 639v156h152v639h495q320 0 504 -194.5t184 -522.5t-184 -522.5t-504 -194.5h-495v639h-152zM412 213h225q210 0 328 130.5t118 373.5t-118 373.5t-328 130.5h-225v-426h305v-156h-305v-426z" />
<glyph unicode="&#x111;" horiz-adv-x="1247" d="M90 530q0 257 121.5 406t337.5 149q185 0 319 -127v250h-401v150h401v137h242v-137h127v-150h-127v-1208h-242v102q-134 -127 -319 -127q-216 0 -337.5 149t-121.5 406zM336 530q0 -170 68 -263t206 -93q70 0 141 30t117 83v487q-46 53 -117 83t-141 30 q-138 0 -206 -93.5t-68 -263.5z" />
<glyph unicode="&#x112;" horiz-adv-x="1183" d="M158 0v1434h925v-213h-671v-377h600v-213h-600v-418h690v-213h-944zM324 1640v164h610v-164h-610z" />
<glyph unicode="&#x113;" horiz-adv-x="1187" d="M78 530q0 244 143.5 399.5t374.5 155.5q228 0 371 -156.5t143 -404.5q0 -59 -4 -82h-782q17 -122 100 -196t205 -74q154 0 264 135l170 -121q-75 -102 -186.5 -156.5t-245.5 -54.5q-249 0 -401 154.5t-152 400.5zM285 1284v164h610v-164h-610zM322 627h544 q-9 120 -84 191t-186 71q-113 0 -185 -69t-89 -193z" />
<glyph unicode="&#x114;" horiz-adv-x="1183" d="M158 0v1434h925v-213h-671v-377h600v-213h-600v-418h690v-213h-944zM295 1843l156 37q47 -162 176 -162t176 162l155 -37q-32 -131 -115.5 -205.5t-215.5 -74.5t-216 74.5t-116 205.5z" />
<glyph unicode="&#x115;" horiz-adv-x="1187" d="M78 530q0 244 143.5 399.5t374.5 155.5q228 0 371 -156.5t143 -404.5q0 -59 -4 -82h-782q17 -122 100 -196t205 -74q154 0 264 135l170 -121q-75 -102 -186.5 -156.5t-245.5 -54.5q-249 0 -401 154.5t-152 400.5zM256 1491l156 37q47 -162 176 -162t176 162l156 -37 q-32 -131 -116 -206t-216 -75t-216 75t-116 206zM322 627h544q-9 120 -84 191t-186 71q-113 0 -185 -69t-89 -193z" />
<glyph unicode="&#x116;" horiz-adv-x="1183" d="M158 0v1434h925v-213h-671v-377h600v-213h-600v-418h690v-213h-944zM498 1722q0 54 37.5 91.5t91.5 37.5t91.5 -37.5t37.5 -91.5t-37.5 -91.5t-91.5 -37.5t-91.5 37.5t-37.5 91.5z" />
<glyph unicode="&#x117;" horiz-adv-x="1187" d="M78 530q0 244 143.5 399.5t374.5 155.5q228 0 371 -156.5t143 -404.5q0 -59 -4 -82h-782q17 -122 100 -196t205 -74q154 0 264 135l170 -121q-75 -102 -186.5 -156.5t-245.5 -54.5q-249 0 -401 154.5t-152 400.5zM322 627h544q-9 120 -84 191t-186 71q-113 0 -185 -69 t-89 -193zM459 1366q0 54 37.5 91.5t91.5 37.5t91.5 -37.5t37.5 -91.5t-37.5 -91.5t-91.5 -37.5t-91.5 37.5t-37.5 91.5z" />
<glyph unicode="&#x118;" horiz-adv-x="1183" d="M158 0v1434h925v-213h-671v-377h600v-213h-600v-418h690v-213h-109q-125 -101 -125 -207q0 -42 25 -67t63 -25q53 0 91 41l92 -109q-92 -82 -221 -82q-105 0 -169.5 60t-64.5 149q0 67 36 131t97 109h-659z" />
<glyph unicode="&#x119;" horiz-adv-x="1187" d="M78 530q0 244 143.5 399.5t374.5 155.5q228 0 371 -156.5t143 -404.5q0 -59 -4 -82h-782q17 -122 100 -196t205 -74q154 0 264 135l170 -121q-117 -156 -313 -198q-109 -92 -109 -195q0 -42 25 -67t63 -25q52 0 90 41l92 -109q-92 -82 -221 -82q-105 0 -169 60t-64 149 q0 60 28 118.5t78 101.5q-221 22 -353 172t-132 378zM322 627h544q-9 120 -84 191t-186 71q-113 0 -185 -69t-89 -193z" />
<glyph unicode="&#x11a;" horiz-adv-x="1183" d="M158 0v1434h925v-213h-671v-377h600v-213h-600v-418h690v-213h-944zM295 1833l108 90l226 -199l225 199l109 -90l-265 -277h-139z" />
<glyph unicode="&#x11b;" horiz-adv-x="1187" d="M78 530q0 244 143.5 399.5t374.5 155.5q228 0 371 -156.5t143 -404.5q0 -59 -4 -82h-782q17 -122 100 -196t205 -74q154 0 264 135l170 -121q-75 -102 -186.5 -156.5t-245.5 -54.5q-249 0 -401 154.5t-152 400.5zM256 1477l109 90l225 -199l225 199l109 -90l-265 -277 h-139zM322 627h544q-9 120 -84 191t-186 71q-113 0 -185 -69t-89 -193z" />
<glyph unicode="&#x11c;" horiz-adv-x="1474" d="M88 717q0 218 84.5 387t236.5 261.5t347 92.5q203 0 353 -80t241 -229l-209 -113q-67 104 -158 154.5t-219 50.5q-177 0 -297.5 -139.5t-120.5 -384.5q0 -123 34.5 -223t95.5 -165.5t142.5 -100.5t176.5 -35q103 0 186.5 32.5t128.5 93.5v238h-324v213h570v-543 q-93 -121 -238.5 -186.5t-326.5 -65.5q-205 0 -365 93.5t-249 263t-89 385.5zM416 1622l264 276h139l264 -276l-108 -90l-225 199l-226 -199z" />
<glyph unicode="&#x11d;" horiz-adv-x="1247" d="M90 530q0 257 121.5 406t337.5 149q185 0 319 -127v103h242v-1016q0 -244 -129 -374t-365 -130q-150 0 -273.5 57t-205.5 162l174 117q122 -149 293 -149q121 0 192.5 72t71.5 212v90q-134 -127 -319 -127q-216 0 -337.5 149t-121.5 406zM295 1266l264 276h139l265 -276 l-109 -90l-225 198l-226 -198zM336 530q0 -170 68 -263t206 -93q70 0 141 30t117 83v487q-46 53 -117 83t-141 30q-138 0 -206 -93.5t-68 -263.5z" />
<glyph unicode="&#x11e;" horiz-adv-x="1474" d="M88 717q0 218 84.5 387t236.5 261.5t347 92.5q203 0 353 -80t241 -229l-209 -113q-67 104 -158 154.5t-219 50.5q-177 0 -297.5 -139.5t-120.5 -384.5q0 -123 34.5 -223t95.5 -165.5t142.5 -100.5t176.5 -35q103 0 186.5 32.5t128.5 93.5v238h-324v213h570v-543 q-93 -121 -238.5 -186.5t-326.5 -65.5q-205 0 -365 93.5t-249 263t-89 385.5zM418 1843l155 37q47 -162 177 -162q129 0 176 162l155 -37q-32 -131 -115.5 -205.5t-215.5 -74.5t-216 74.5t-116 205.5z" />
<glyph unicode="&#x11f;" horiz-adv-x="1247" d="M90 530q0 257 121.5 406t337.5 149q185 0 319 -127v103h242v-1016q0 -244 -129 -374t-365 -130q-150 0 -273.5 57t-205.5 162l174 117q122 -149 293 -149q121 0 192.5 72t71.5 212v90q-134 -127 -319 -127q-216 0 -337.5 149t-121.5 406zM297 1491l156 37 q47 -162 176 -162t176 162l156 -37q-32 -131 -116 -206t-216 -75t-216 75t-116 206zM336 530q0 -170 68 -263t206 -93q70 0 141 30t117 83v487q-46 53 -117 83t-141 30q-138 0 -206 -93.5t-68 -263.5z" />
<glyph unicode="&#x120;" horiz-adv-x="1474" d="M88 717q0 218 84.5 387t236.5 261.5t347 92.5q203 0 353 -80t241 -229l-209 -113q-67 104 -158 154.5t-219 50.5q-177 0 -297.5 -139.5t-120.5 -384.5q0 -123 34.5 -223t95.5 -165.5t142.5 -100.5t176.5 -35q103 0 186.5 32.5t128.5 93.5v238h-324v213h570v-543 q-93 -121 -238.5 -186.5t-326.5 -65.5q-205 0 -365 93.5t-249 263t-89 385.5zM621 1722q0 54 37.5 91.5t91.5 37.5t91.5 -37.5t37.5 -91.5t-37.5 -91.5t-91.5 -37.5t-91.5 37.5t-37.5 91.5z" />
<glyph unicode="&#x121;" horiz-adv-x="1247" d="M90 530q0 257 121.5 406t337.5 149q185 0 319 -127v103h242v-1016q0 -244 -129 -374t-365 -130q-150 0 -273.5 57t-205.5 162l174 117q122 -149 293 -149q121 0 192.5 72t71.5 212v90q-134 -127 -319 -127q-216 0 -337.5 149t-121.5 406zM336 530q0 -170 68 -263t206 -93 q70 0 141 30t117 83v487q-46 53 -117 83t-141 30q-138 0 -206 -93.5t-68 -263.5zM500 1366q0 54 37.5 91.5t91.5 37.5t91.5 -37.5t37.5 -91.5t-37.5 -91.5t-91.5 -37.5t-91.5 37.5t-37.5 91.5z" />
<glyph unicode="&#x122;" horiz-adv-x="1474" d="M88 717q0 218 84.5 387t236.5 261.5t347 92.5q203 0 353 -80t241 -229l-209 -113q-67 104 -158 154.5t-219 50.5q-177 0 -297.5 -139.5t-120.5 -384.5q0 -123 34.5 -223t95.5 -165.5t142.5 -100.5t176.5 -35q103 0 186.5 32.5t128.5 93.5v238h-324v213h570v-543 q-93 -121 -238.5 -186.5t-326.5 -65.5q-205 0 -365 93.5t-249 263t-89 385.5zM639 -498l119 412l180 -61l-158 -400z" />
<glyph unicode="&#x123;" horiz-adv-x="1247" d="M90 530q0 -257 121.5 -406t337.5 -149q185 0 319 127v-90q0 -140 -71.5 -212t-192.5 -72q-171 0 -293 149l-174 -117q82 -105 205.5 -162t273.5 -57q236 0 365 130t129 374v1016h-242v-103q-134 127 -319 127q-216 0 -337.5 -149t-121.5 -406zM336 530q0 170 68 263.5 t206 93.5q70 0 141 -30t117 -83v-487q-46 -53 -117 -83t-141 -30q-138 0 -206 93t-68 263zM496 1247l157 400l142 -50l-119 -411z" />
<glyph unicode="&#x124;" horiz-adv-x="1470" d="M158 0v1434h254v-570h647v570h254v-1434h-254v651h-647v-651h-254zM401 1622l265 276h139l264 -276l-108 -90l-226 199l-225 -199z" />
<glyph unicode="&#x125;" horiz-adv-x="1239" d="M-74 1622l264 276h140l264 -276l-109 -90l-225 199l-225 -199zM137 0v1495h242v-557q147 147 356 147q171 0 273 -103.5t102 -293.5v-688h-242v653q0 236 -204 236q-84 0 -161.5 -42t-123.5 -102v-745h-242z" />
<glyph unicode="&#x126;" horiz-adv-x="1470" d="M35 1087v156h123v191h254v-191h647v191h254v-191h123v-156h-123v-1087h-254v651h-647v-651h-254v1087h-123zM412 864h647v223h-647v-223z" />
<glyph unicode="&#x127;" horiz-adv-x="1239" d="M10 1208v150h127v137h242v-137h401v-150h-401v-270q147 147 356 147q171 0 273 -103.5t102 -293.5v-688h-242v653q0 236 -204 236q-84 0 -161.5 -42t-123.5 -102v-745h-242v1208h-127z" />
<glyph unicode="&#x128;" horiz-adv-x="589" d="M-53 1626q20 114 75.5 175t139.5 61q80 0 162 -58q55 -41 96 -41q58 0 72 86l151 -20q-20 -114 -75.5 -175t-139.5 -61q-80 0 -162 58q-55 41 -96 41q-58 0 -72 -86zM168 0v1434h254v-1434h-254z" />
<glyph unicode="&#x129;" horiz-adv-x="538" d="M-80 1270q20 114 75 174.5t140 60.5q82 0 162 -57q55 -41 96 -41q58 0 72 86l151 -20q-20 -114 -75.5 -175t-139.5 -61q-81 0 -161 57q-55 41 -97 41q-57 0 -71 -86zM147 0v1061h242v-1061h-242z" />
<glyph unicode="&#x12a;" horiz-adv-x="589" d="M-10 1640v164h610v-164h-610zM168 0v1434h254v-1434h-254z" />
<glyph unicode="&#x12b;" horiz-adv-x="538" d="M-37 1284v164h610v-164h-610zM147 0v1061h242v-1061h-242z" />
<glyph unicode="&#x12c;" horiz-adv-x="589" d="M-37 1843l156 37q47 -162 176 -162t176 162l156 -37q-32 -131 -116 -205.5t-216 -74.5t-216 74.5t-116 205.5zM168 0v1434h254v-1434h-254z" />
<glyph unicode="&#x12d;" horiz-adv-x="538" d="M-63 1491l155 37q47 -162 176 -162t176 162l156 -37q-32 -131 -116 -206t-216 -75t-215.5 75t-115.5 206zM147 0v1061h242v-1061h-242z" />
<glyph unicode="&#x12e;" horiz-adv-x="589" d="M113 -240q0 67 36 131t97 109h-78v1434h254v-1434q-125 -101 -125 -207q0 -42 25 -67t63 -25q52 0 90 41l92 -109q-92 -82 -221 -82q-105 0 -169 60t-64 149z" />
<glyph unicode="&#x12f;" horiz-adv-x="536" d="M80 -240q0 67 36 131t97 109h-66v1061h242v-1061q-125 -101 -125 -207q0 -42 25 -67t63 -25q52 0 90 41l93 -109q-92 -82 -222 -82q-105 0 -169 60t-64 149zM119 1366q0 63 43 105t106 42t106.5 -42t43.5 -105t-43.5 -105t-106.5 -42t-106 42t-43 105z" />
<glyph unicode="&#x130;" horiz-adv-x="587" d="M164 1722q0 54 37.5 91.5t91.5 37.5t91.5 -37.5t37.5 -91.5t-37.5 -91.5t-91.5 -37.5t-91.5 37.5t-37.5 91.5zM168 0v1434h254v-1434h-254z" />
<glyph unicode="&#x131;" horiz-adv-x="536" d="M147 0v1061h242v-1061h-242z" />
<glyph unicode="&#x132;" horiz-adv-x="1785" d="M168 0v1434h254v-1434h-254zM631 268l205 113q103 -188 286 -188q123 0 187.5 82t64.5 225v934h254v-928q0 -246 -129 -388.5t-369 -142.5q-167 0 -296 76t-203 217z" />
<glyph unicode="&#x133;" horiz-adv-x="1069" d="M119 1366q0 63 43 105t106 42t106.5 -42t43.5 -105t-43.5 -105t-106.5 -42t-106 42t-43 105zM147 0v1061h242v-1061h-242zM426 -260q27 -2 90 -2q89 0 126.5 43t37.5 133v1147h242v-1120q0 -209 -92 -304.5t-306 -95.5q-57 0 -98 6v193zM651 1366q0 63 43.5 105t106.5 42 t106 -42t43 -105t-43 -105t-106 -42t-106.5 42t-43.5 105z" />
<glyph unicode="&#x134;" horiz-adv-x="1212" d="M57 268l205 113q103 -188 287 -188q123 0 187.5 82t64.5 225v934h254v-928q0 -246 -129 -388.5t-369 -142.5q-167 0 -296.5 76t-203.5 217zM594 1622l264 276h139l265 -276l-109 -90l-225 199l-226 -199z" />
<glyph unicode="&#x135;" horiz-adv-x="536" d="M-106 -260q27 -2 90 -2q89 0 126 43t37 133v1147h242v-1120q0 -209 -91.5 -304.5t-305.5 -95.5q-58 0 -98 6v193zM-66 1266l265 276h139l264 -276l-108 -90l-226 198l-225 -198z" />
<glyph unicode="&#x136;" horiz-adv-x="1318" d="M158 0v1434h254v-705l534 705h291l-459 -590l522 -844h-280l-391 649l-217 -278v-371h-254zM512 -498l119 412l180 -61l-158 -400z" />
<glyph unicode="&#x137;" horiz-adv-x="1132" d="M137 0v1495h242v-907l409 473h281l-360 -410l413 -651h-266l-295 483l-182 -209v-274h-242zM416 -498l119 412l180 -61l-158 -400z" />
<glyph unicode="&#x138;" horiz-adv-x="1132" d="M137 0v1061h242v-473l409 473h281l-360 -410l413 -651h-266l-295 483l-182 -209v-274h-242z" />
<glyph unicode="&#x139;" horiz-adv-x="1122" d="M158 0v1434h254v-1221h671v-213h-925zM180 1636l291 293l139 -133l-327 -264z" />
<glyph unicode="&#x13a;" horiz-adv-x="536" d="M147 0v1495h242v-1495h-242zM166 1636l291 293l139 -133l-328 -264z" />
<glyph unicode="&#x13b;" horiz-adv-x="1122" d="M158 0v1434h254v-1221h671v-213h-925zM457 -498l118 412l181 -61l-158 -400z" />
<glyph unicode="&#x13c;" horiz-adv-x="536" d="M82 -498l119 412l180 -61l-158 -400zM147 0v1495h242v-1495h-242z" />
<glyph unicode="&#x13d;" horiz-adv-x="1122" d="M158 0v1434h254v-1221h671v-213h-925zM674 1024l137 496l190 -64l-186 -473z" />
<glyph unicode="&#x13e;" horiz-adv-x="768" d="M147 0v1495h242v-1495h-242zM465 1024l137 496l191 -64l-187 -473z" />
<glyph unicode="&#x13f;" horiz-adv-x="1122" d="M158 0v1434h254v-1221h671v-213h-925zM672 772q0 54 37.5 91.5t91.5 37.5t91.5 -37.5t37.5 -91.5t-37.5 -91.5t-91.5 -37.5t-91.5 37.5t-37.5 91.5z" />
<glyph unicode="&#x140;" horiz-adv-x="923" d="M158 0v1495h241v-1495h-241zM608 772q0 54 37.5 91.5t91.5 37.5t91.5 -37.5t37.5 -91.5t-37.5 -91.5t-91.5 -37.5t-91.5 37.5t-37.5 91.5z" />
<glyph unicode="&#x141;" horiz-adv-x="1122" d="M-63 559l221 143v732h254v-566l493 322l78 -127l-571 -373v-477h671v-213h-925v524l-144 -92z" />
<glyph unicode="&#x142;" horiz-adv-x="790" d="M-23 608l297 193v694h242v-537l219 144l78 -123l-297 -195v-784h-242v627l-219 -142z" />
<glyph unicode="&#x143;" horiz-adv-x="1474" d="M158 0v1434h245l660 -1012v1012h254v-1434h-246l-659 1012v-1012h-254zM614 1636l291 293l139 -133l-327 -264z" />
<glyph unicode="&#x144;" horiz-adv-x="1239" d="M137 0v1061h242v-123q147 147 356 147q171 0 273 -103.5t102 -293.5v-688h-242v653q0 236 -204 236q-84 0 -161.5 -42t-123.5 -102v-745h-242zM471 1280l291 293l139 -133l-328 -264z" />
<glyph unicode="&#x145;" horiz-adv-x="1474" d="M158 0v1434h245l660 -1012v1012h254v-1434h-246l-659 1012v-1012h-254zM596 -498l119 412l180 -61l-158 -400z" />
<glyph unicode="&#x146;" horiz-adv-x="1239" d="M137 0v1061h242v-123q147 147 356 147q171 0 273 -103.5t102 -293.5v-688h-242v653q0 236 -204 236q-84 0 -161.5 -42t-123.5 -102v-745h-242zM436 -498l119 412l180 -61l-157 -400z" />
<glyph unicode="&#x147;" horiz-adv-x="1474" d="M158 0v1434h245l660 -1012v1012h254v-1434h-246l-659 1012v-1012h-254zM403 1833l109 90l225 -199l226 199l108 -90l-264 -277h-139z" />
<glyph unicode="&#x148;" horiz-adv-x="1239" d="M137 0v1061h242v-123q147 147 356 147q171 0 273 -103.5t102 -293.5v-688h-242v653q0 236 -204 236q-84 0 -161.5 -42t-123.5 -102v-745h-242zM285 1477l108 90l225 -199l226 199l108 -90l-264 -277h-139z" />
<glyph unicode="&#x149;" horiz-adv-x="1368" d="M-25 1024l138 496l190 -64l-186 -473zM266 0v1061h242v-123q147 147 356 147q171 0 273 -103.5t102 -293.5v-688h-242v653q0 236 -204 236q-84 0 -161.5 -42t-123.5 -102v-745h-242z" />
<glyph unicode="&#x14a;" horiz-adv-x="1474" d="M158 0v1434h245l660 -1010v1010h254v-1493q0 -209 -91.5 -304.5t-305.5 -95.5q-58 0 -99 6v193q27 -2 90 -2q84 0 118 42t34 134v100l-651 998v-1012h-254z" />
<glyph unicode="&#x14b;" horiz-adv-x="1239" d="M137 0v1061h242v-123q147 147 356 147q171 0 273 -103.5t102 -293.5v-747q0 -209 -91.5 -304.5t-305.5 -95.5q-59 0 -99 6v193q27 -2 91 -2q89 0 126 43t37 133v739q0 236 -204 236q-84 0 -161.5 -42t-123.5 -102v-745h-242z" />
<glyph unicode="&#x14c;" horiz-adv-x="1495" d="M88 717q0 157 45 292t128 235t208.5 157t278.5 57q203 0 354 -98.5t228 -265.5t77 -377t-77 -377t-228 -266t-354 -99t-354.5 99t-228.5 266t-77 377zM346 717q0 -241 108.5 -382.5t293.5 -141.5t293 141.5t108 382.5t-108 382.5t-293 141.5t-293.5 -141.5t-108.5 -382.5 zM442 1640v164h611v-164h-611z" />
<glyph unicode="&#x14d;" horiz-adv-x="1212" d="M78 530q0 250 144 402.5t384 152.5q241 0 385 -152.5t144 -402.5t-144 -402.5t-385 -152.5q-240 0 -384 152.5t-144 402.5zM301 1284v164h610v-164h-610zM324 530q0 -167 74.5 -262.5t207.5 -95.5t208 95.5t75 262.5t-75 263t-208 96t-207.5 -96t-74.5 -263z" />
<glyph unicode="&#x14e;" horiz-adv-x="1495" d="M88 717q0 157 45 292t128 235t208.5 157t278.5 57q203 0 354 -98.5t228 -265.5t77 -377t-77 -377t-228 -266t-354 -99t-354.5 99t-228.5 266t-77 377zM346 717q0 -241 108.5 -382.5t293.5 -141.5t293 141.5t108 382.5t-108 382.5t-293 141.5t-293.5 -141.5t-108.5 -382.5 zM416 1843l155 37q47 -162 177 -162q129 0 176 162l155 -37q-32 -131 -115.5 -205.5t-215.5 -74.5t-216 74.5t-116 205.5z" />
<glyph unicode="&#x14f;" horiz-adv-x="1212" d="M78 530q0 250 144 402.5t384 152.5q241 0 385 -152.5t144 -402.5t-144 -402.5t-385 -152.5q-240 0 -384 152.5t-144 402.5zM274 1491l156 37q47 -162 176 -162t176 162l156 -37q-32 -131 -116 -206t-216 -75t-216 75t-116 206zM324 530q0 -167 74.5 -262.5t207.5 -95.5 t208 95.5t75 262.5t-75 263t-208 96t-207.5 -96t-74.5 -263z" />
<glyph unicode="&#x150;" horiz-adv-x="1495" d="M88 717q0 157 45 292t128 235t208.5 157t278.5 57q203 0 354 -98.5t228 -265.5t77 -377t-77 -377t-228 -266t-354 -99t-354.5 99t-228.5 266t-77 377zM346 717q0 -241 108.5 -382.5t293.5 -141.5t293 141.5t108 382.5t-108 382.5t-293 141.5t-293.5 -141.5t-108.5 -382.5 zM446 1618l230 299l145 -125l-258 -272zM780 1622l293 295l139 -131l-317 -266z" />
<glyph unicode="&#x151;" horiz-adv-x="1212" d="M78 530q0 250 144 402.5t384 152.5q241 0 385 -152.5t144 -402.5t-144 -402.5t-385 -152.5q-240 0 -384 152.5t-144 402.5zM272 1262l230 299l145 -125l-258 -273zM324 530q0 -167 74.5 -262.5t207.5 -95.5t208 95.5t75 262.5t-75 263t-208 96t-207.5 -96t-74.5 -263z M606 1266l293 295l139 -131l-317 -267z" />
<glyph unicode="&#x152;" horiz-adv-x="1765" d="M88 717q0 329 179.5 523t494.5 194h903v-213h-563v-377h491v-213h-491v-418h581v-213h-921q-315 0 -494.5 194t-179.5 523zM346 717q0 -245 117 -374.5t309 -129.5h76v1008h-76q-192 0 -309 -130t-117 -374z" />
<glyph unicode="&#x153;" horiz-adv-x="2000" d="M78 530q0 250 144 402.5t384 152.5q129 0 235 -52t173 -144q66 91 169 143.5t226 52.5q228 0 371 -156.5t143 -404.5q0 -59 -4 -82h-782q17 -122 100 -196t205 -74q154 0 264 135l170 -121q-156 -211 -449 -211q-126 0 -237 53.5t-176 143.5q-67 -92 -173.5 -144.5 t-234.5 -52.5q-240 0 -384 152.5t-144 402.5zM324 530q0 -167 74.5 -262.5t207.5 -95.5t208 95.5t75 262.5t-75 263t-208 96t-207.5 -96t-74.5 -263zM1135 627h544q-9 120 -84 191t-186 71q-113 0 -185 -69t-89 -193z" />
<glyph unicode="&#x154;" horiz-adv-x="1331" d="M158 0v1434h499q263 0 405 -109.5t142 -323.5q0 -152 -77 -254t-220 -143l385 -604h-278l-350 571h-252v-571h-254zM403 1636l291 293l140 -133l-328 -264zM412 784h247q150 0 218.5 51.5t68.5 165.5t-69 167t-218 53h-247v-437z" />
<glyph unicode="&#x155;" horiz-adv-x="794" d="M137 0v1061h242v-129q115 153 319 153q28 0 68 -4v-200q-40 4 -86 4q-93 0 -174 -43.5t-127 -116.5v-725h-242zM242 1280l290 293l140 -133l-328 -264z" />
<glyph unicode="&#x156;" horiz-adv-x="1331" d="M158 0v1434h499q263 0 405 -109.5t142 -323.5q0 -152 -77 -254t-220 -143l385 -604h-278l-350 571h-252v-571h-254zM412 784h247q150 0 218.5 51.5t68.5 165.5t-69 167t-218 53h-247v-437zM506 -498l119 412l180 -61l-158 -400z" />
<glyph unicode="&#x157;" horiz-adv-x="794" d="M68 -498l118 412l181 -61l-158 -400zM137 0v1061h242v-129q115 153 319 153q28 0 68 -4v-200q-40 4 -86 4q-93 0 -174 -43.5t-127 -116.5v-725h-242z" />
<glyph unicode="&#x158;" horiz-adv-x="1331" d="M158 0v1434h499q263 0 405 -109.5t142 -323.5q0 -152 -77 -254t-220 -143l385 -604h-278l-350 571h-252v-571h-254zM268 1833l109 90l225 -199l225 199l109 -90l-264 -277h-140zM412 784h247q150 0 218.5 51.5t68.5 165.5t-69 167t-218 53h-247v-437z" />
<glyph unicode="&#x159;" horiz-adv-x="794" d="M102 1477l109 90l225 -199l226 199l108 -90l-264 -277h-139zM137 0v1061h242v-129q115 153 319 153q28 0 68 -4v-200q-40 4 -86 4q-93 0 -174 -43.5t-127 -116.5v-725h-242z" />
<glyph unicode="&#x15a;" horiz-adv-x="1253" d="M68 227l184 144q163 -178 399 -178q116 0 187 51t71 133q0 98 -70 151.5t-274 110.5q-230 64 -332 167.5t-102 264.5q0 176 124 281.5t345 105.5q151 0 284 -58.5t228 -168.5l-176 -135q-136 145 -318 145q-114 0 -171.5 -44t-57.5 -120q0 -79 61.5 -131.5t231.5 -99.5 q259 -72 372 -174t113 -279q0 -192 -135 -305t-366 -113q-180 0 -333 64t-265 188zM434 1636l291 293l139 -133l-327 -264z" />
<glyph unicode="&#x15b;" horiz-adv-x="1046" d="M57 180l170 135q64 -66 144.5 -104.5t163.5 -38.5q176 0 176 113q0 60 -47 95t-183 73q-203 57 -284.5 134.5t-81.5 203.5q0 133 102.5 213.5t286.5 80.5q262 0 426 -167l-160 -132q-46 49 -112.5 76t-133.5 27q-151 0 -151 -92q0 -47 48.5 -80.5t194.5 -75.5 q179 -53 266 -134.5t87 -209.5q0 -149 -107 -235.5t-307 -86.5q-314 0 -498 205zM340 1280l291 293l139 -133l-328 -264z" />
<glyph unicode="&#x15c;" horiz-adv-x="1253" d="M68 227l184 144q163 -178 399 -178q116 0 187 51t71 133q0 98 -70 151.5t-274 110.5q-230 64 -332 167.5t-102 264.5q0 176 124 281.5t345 105.5q151 0 284 -58.5t228 -168.5l-176 -135q-136 145 -318 145q-114 0 -171.5 -44t-57.5 -120q0 -79 61.5 -131.5t231.5 -99.5 q259 -72 372 -174t113 -279q0 -192 -135 -305t-366 -113q-180 0 -333 64t-265 188zM281 1622l264 276h139l264 -276l-108 -90l-226 199l-225 -199z" />
<glyph unicode="&#x15d;" horiz-adv-x="1046" d="M57 180l170 135q64 -66 144.5 -104.5t163.5 -38.5q176 0 176 113q0 60 -47 95t-183 73q-203 57 -284.5 134.5t-81.5 203.5q0 133 102.5 213.5t286.5 80.5q262 0 426 -167l-160 -132q-46 49 -112.5 76t-133.5 27q-151 0 -151 -92q0 -47 48.5 -80.5t194.5 -75.5 q179 -53 266 -134.5t87 -209.5q0 -149 -107 -235.5t-307 -86.5q-314 0 -498 205zM174 1266l264 276h140l264 -276l-109 -90l-225 198l-225 -198z" />
<glyph unicode="&#x15e;" horiz-adv-x="1253" d="M68 227l184 144q163 -178 399 -178q116 0 187 51t71 133q0 98 -70 151.5t-274 110.5q-230 64 -332 167.5t-102 264.5q0 176 124 281.5t345 105.5q151 0 284 -58.5t228 -168.5l-176 -135q-136 145 -318 145q-114 0 -171.5 -44t-57.5 -120q0 -79 61.5 -131.5t231.5 -99.5 q259 -72 372 -174t113 -279q0 -176 -113.5 -285t-312.5 -128l-34 -72q76 -19 120.5 -70t44.5 -121q0 -85 -68.5 -144.5t-197.5 -59.5q-125 0 -217 75l90 109q47 -41 111 -41q46 0 73 19.5t27 54.5q0 42 -47 67t-127 27l-14 18l63 140q-304 28 -497 245z" />
<glyph unicode="&#x15f;" horiz-adv-x="1046" d="M57 180l170 135q64 -66 144.5 -104.5t163.5 -38.5q176 0 176 113q0 60 -47 95t-183 73q-203 57 -284.5 134.5t-81.5 203.5q0 133 102.5 213.5t286.5 80.5q262 0 426 -167l-160 -132q-46 49 -112.5 76t-133.5 27q-151 0 -151 -92q0 -47 48.5 -80.5t194.5 -75.5 q179 -53 266 -134.5t87 -209.5q0 -131 -83 -214t-241 -101l-35 -74q76 -19 121 -70t45 -121q0 -85 -68.5 -144.5t-197.5 -59.5q-125 0 -217 75l90 109q47 -41 111 -41q46 0 73 19.5t27 54.5q0 42 -47 67t-127 27l-14 18l63 138q-256 25 -412 200z" />
<glyph unicode="&#x160;" horiz-adv-x="1253" d="M68 227l184 144q163 -178 399 -178q116 0 187 51t71 133q0 98 -70 151.5t-274 110.5q-230 64 -332 167.5t-102 264.5q0 176 124 281.5t345 105.5q151 0 284 -58.5t228 -168.5l-176 -135q-136 145 -318 145q-114 0 -171.5 -44t-57.5 -120q0 -79 61.5 -131.5t231.5 -99.5 q259 -72 372 -174t113 -279q0 -192 -135 -305t-366 -113q-180 0 -333 64t-265 188zM266 1833l109 90l225 -199l225 199l109 -90l-264 -277h-140z" />
<glyph unicode="&#x161;" horiz-adv-x="1046" d="M57 180l170 135q64 -66 144.5 -104.5t163.5 -38.5q176 0 176 113q0 60 -47 95t-183 73q-203 57 -284.5 134.5t-81.5 203.5q0 133 102.5 213.5t286.5 80.5q262 0 426 -167l-160 -132q-46 49 -112.5 76t-133.5 27q-151 0 -151 -92q0 -47 48.5 -80.5t194.5 -75.5 q179 -53 266 -134.5t87 -209.5q0 -149 -107 -235.5t-307 -86.5q-314 0 -498 205zM172 1477l109 90l225 -199l225 199l109 -90l-265 -277h-139z" />
<glyph unicode="&#x162;" horiz-adv-x="1191" d="M39 1221v213h1114v-213h-430v-1221h-31l-45 -92q76 -19 121 -70t45 -121q0 -85 -68.5 -144.5t-197.5 -59.5q-125 0 -217 75l90 109q47 -41 110 -41q46 0 73.5 19.5t27.5 54.5q0 42 -47 67t-127 27l-15 18l74 158h-47v1221h-430z" />
<glyph unicode="&#x163;" horiz-adv-x="768" d="M29 868v193h186v317h242v-317h254v-193h-254v-522q0 -92 36.5 -133t129.5 -41q63 0 88 2v-192q-68 -7 -129 -7q-29 0 -43 2l-33 -69q76 -19 121 -70t45 -121q0 -85 -68.5 -144.5t-197.5 -59.5q-126 0 -218 75l91 109q47 -41 110 -41q46 0 73 19.5t27 54.5q0 42 -47 67 t-127 27l-14 18l78 168q-85 40 -124.5 123.5t-39.5 220.5v514h-186z" />
<glyph unicode="&#x164;" horiz-adv-x="1191" d="M39 1221v213h1114v-213h-430v-1221h-254v1221h-430zM262 1833l109 90l225 -199l225 199l109 -90l-264 -277h-140z" />
<glyph unicode="&#x165;" horiz-adv-x="1054" d="M29 868v193h186v317h242v-317h254v-193h-254v-522q0 -92 36.5 -133t129.5 -41q63 0 88 2v-192q-68 -7 -129 -7q-192 0 -279.5 90t-87.5 289v514h-186zM752 1024l137 496l190 -64l-186 -473z" />
<glyph unicode="&#x166;" horiz-adv-x="1191" d="M39 1221v213h1114v-213h-430v-430h295v-156h-295v-635h-254v635h-295v156h295v430h-430z" />
<glyph unicode="&#x167;" horiz-adv-x="768" d="M29 868v193h186v317h242v-317h254v-193h-254v-204h217v-150h-217v-168q0 -92 36.5 -133t129.5 -41q63 0 88 2v-192q-68 -7 -129 -7q-192 0 -279.5 90t-87.5 289v160h-147v150h147v204h-186z" />
<glyph unicode="&#x168;" horiz-adv-x="1499" d="M158 569v865h254v-865q0 -376 338 -376q337 0 337 376v865h254v-865q0 -193 -75.5 -328.5t-207 -200.5t-308.5 -65q-271 0 -431.5 153t-160.5 441zM401 1626q20 114 75.5 175t139.5 61q80 0 162 -58q55 -41 96 -41q58 0 72 86l152 -20q-20 -114 -75.5 -175t-139.5 -61 q-80 0 -162 58q-55 41 -96 41q-58 0 -72 -86z" />
<glyph unicode="&#x169;" horiz-adv-x="1224" d="M127 446v615h242v-617q0 -133 67 -202.5t176 -69.5t176.5 69.5t67.5 202.5v617h242v-615q0 -233 -129.5 -352t-356.5 -119q-226 0 -355.5 119t-129.5 352zM264 1270q20 114 75 174.5t140 60.5q82 0 162 -57q55 -41 96 -41q58 0 72 86l152 -20q-20 -114 -75.5 -175 t-140.5 -61q-81 0 -161 57q-55 41 -97 41q-57 0 -71 -86z" />
<glyph unicode="&#x16a;" horiz-adv-x="1499" d="M158 569v865h254v-865q0 -376 338 -376q337 0 337 376v865h254v-865q0 -193 -75.5 -328.5t-207 -200.5t-308.5 -65q-271 0 -431.5 153t-160.5 441zM444 1640v164h611v-164h-611z" />
<glyph unicode="&#x16b;" horiz-adv-x="1224" d="M127 446v615h242v-617q0 -133 67 -202.5t176 -69.5t176.5 69.5t67.5 202.5v617h242v-615q0 -233 -129.5 -352t-356.5 -119q-226 0 -355.5 119t-129.5 352zM307 1284v164h611v-164h-611z" />
<glyph unicode="&#x16c;" horiz-adv-x="1499" d="M158 569v865h254v-865q0 -376 338 -376q337 0 337 376v865h254v-865q0 -193 -75.5 -328.5t-207 -200.5t-308.5 -65q-271 0 -431.5 153t-160.5 441zM418 1843l155 37q47 -162 177 -162q129 0 176 162l155 -37q-32 -131 -115.5 -205.5t-215.5 -74.5t-216 74.5t-116 205.5z " />
<glyph unicode="&#x16d;" horiz-adv-x="1224" d="M127 446v615h242v-617q0 -133 67 -202.5t176 -69.5t176.5 69.5t67.5 202.5v617h242v-615q0 -233 -129.5 -352t-356.5 -119q-226 0 -355.5 119t-129.5 352zM281 1491l155 37q47 -162 176 -162t176 162l156 -37q-32 -131 -116 -206t-216 -75t-215.5 75t-115.5 206z" />
<glyph unicode="&#x16e;" horiz-adv-x="1499" d="M158 569q0 -288 160.5 -441t431.5 -153q177 0 308.5 65t207 200.5t75.5 328.5v865h-254v-865q0 -376 -337 -376q-338 0 -338 376v865h-254v-865zM524 1726q0 92 65.5 156t160.5 64t160 -64t65 -156t-65 -155.5t-160 -63.5t-160.5 63.5t-65.5 155.5zM668 1726 q0 -38 23 -62t59 -24q35 0 58 24t23 62t-23 62t-58 24q-36 0 -59 -24t-23 -62z" />
<glyph unicode="&#x16f;" horiz-adv-x="1224" d="M127 446v615h242v-617q0 -133 67 -202.5t176 -69.5t176.5 69.5t67.5 202.5v617h242v-615q0 -233 -129.5 -352t-356.5 -119q-226 0 -355.5 119t-129.5 352zM387 1370q0 92 65 155.5t160 63.5t160.5 -63.5t65.5 -155.5t-65.5 -155.5t-160.5 -63.5t-160 63.5t-65 155.5z M530 1370q0 -38 23 -62t59 -24t59 24t23 62t-23 62t-59 24t-59 -24t-23 -62z" />
<glyph unicode="&#x170;" horiz-adv-x="1499" d="M158 569q0 -288 160.5 -441t431.5 -153q177 0 308.5 65t207 200.5t75.5 328.5v865h-254v-865q0 -376 -337 -376q-338 0 -338 376v865h-254v-865zM459 1618l229 299l146 -125l-259 -272zM793 1622l292 295l140 -131l-318 -266z" />
<glyph unicode="&#x171;" horiz-adv-x="1224" d="M127 446v615h242v-617q0 -133 67 -202.5t176 -69.5t176.5 69.5t67.5 202.5v617h242v-615q0 -233 -129.5 -352t-356.5 -119q-226 0 -355.5 119t-129.5 352zM293 1262l229 299l146 -125l-258 -273zM627 1266l293 295l139 -131l-318 -267z" />
<glyph unicode="&#x172;" horiz-adv-x="1499" d="M158 569v865h254v-865q0 -376 338 -376q337 0 337 376v865h254v-865q0 -256 -127.5 -405.5t-349.5 -179.5q-104 -88 -104 -191q0 -42 25 -67t63 -25q52 0 90 41l92 -109q-92 -82 -221 -82q-105 0 -169.5 60t-64.5 149q0 59 28.5 116t76.5 101q-241 19 -381.5 171 t-140.5 421z" />
<glyph unicode="&#x173;" horiz-adv-x="1224" d="M127 446v615h242v-617q0 -133 67 -202.5t176 -69.5t176.5 69.5t67.5 202.5v617h242v-615q0 -193 -89.5 -308t-250.5 -148q-113 -93 -113 -197q0 -42 25 -67t63 -25q52 0 90 41l92 -109q-92 -82 -221 -82q-105 0 -169 60t-64 149q0 120 104 217q-205 11 -321.5 129.5 t-116.5 339.5z" />
<glyph unicode="&#x174;" horiz-adv-x="2076" d="M39 1434h264l324 -1096l276 1096h271l276 -1096l324 1096h264l-422 -1434h-316l-262 1040l-262 -1040h-315zM705 1622l264 276h139l264 -276l-108 -90l-226 199l-225 -199z" />
<glyph unicode="&#x175;" horiz-adv-x="1679" d="M29 1061h254l225 -752l223 752h217l223 -752l228 752h252l-348 -1061h-246l-217 731l-217 -731h-246zM506 1266l264 276h139l265 -276l-109 -90l-225 198l-226 -198z" />
<glyph unicode="&#x176;" horiz-adv-x="1298" d="M29 1434h274l346 -631l346 631h275l-494 -869v-565h-254v565zM315 1622l265 276h139l264 -276l-109 -90l-225 199l-225 -199z" />
<glyph unicode="&#x177;" horiz-adv-x="1118" d="M29 1061h247l295 -739l271 739h248l-551 -1495h-248l164 442zM238 1266l264 276h139l264 -276l-108 -90l-226 198l-225 -198z" />
<glyph unicode="&#x178;" horiz-adv-x="1298" d="M29 1434h274l346 -631l346 631h275l-494 -869v-565h-254v565zM311 1722q0 54 37.5 91.5t91.5 37.5t91.5 -37.5t37.5 -91.5t-37.5 -91.5t-91.5 -37.5t-91.5 37.5t-37.5 91.5zM729 1722q0 54 37.5 91.5t91.5 37.5t91.5 -37.5t37.5 -91.5t-37.5 -91.5t-91.5 -37.5 t-91.5 37.5t-37.5 91.5z" />
<glyph unicode="&#x179;" horiz-adv-x="1185" d="M63 0v203l732 1016h-693v215h1000v-203l-731 -1016h751v-215h-1059zM438 1636l291 293l139 -133l-327 -264z" />
<glyph unicode="&#x17a;" horiz-adv-x="974" d="M49 0v184l561 684h-528v193h823v-184l-561 -684h582v-193h-877zM332 1280l291 293l139 -133l-328 -264z" />
<glyph unicode="&#x17b;" horiz-adv-x="1185" d="M63 0v203l732 1016h-693v215h1000v-203l-731 -1016h751v-215h-1059zM463 1722q0 54 37.5 91.5t91.5 37.5t91.5 -37.5t37.5 -91.5t-37.5 -91.5t-91.5 -37.5t-91.5 37.5t-37.5 91.5z" />
<glyph unicode="&#x17c;" horiz-adv-x="974" d="M49 0v184l561 684h-528v193h823v-184l-561 -684h582v-193h-877zM365 1366q0 54 37.5 91.5t91.5 37.5t91.5 -37.5t37.5 -91.5t-37.5 -91.5t-91.5 -37.5t-91.5 37.5t-37.5 91.5z" />
<glyph unicode="&#x17d;" horiz-adv-x="1185" d="M63 0v203l732 1016h-693v215h1000v-203l-731 -1016h751v-215h-1059zM268 1833l109 90l225 -199l225 199l109 -90l-264 -277h-140z" />
<glyph unicode="&#x17e;" horiz-adv-x="974" d="M49 0v184l561 684h-528v193h823v-184l-561 -684h582v-193h-877zM170 1477l109 90l225 -199l225 199l109 -90l-265 -277h-139z" />
<glyph unicode="&#x17f;" horiz-adv-x="761" d="M29 868v193h186v92q0 177 90 259.5t285 82.5q86 0 143 -8v-191q-61 7 -108 7q-93 0 -130.5 -39.5t-37.5 -122.5v-1141h-242v868h-186z" />
<glyph unicode="&#x191;" horiz-adv-x="1122" d="M-84 -260q27 -2 90 -2q84 0 118 42t34 134v1520h925v-213h-671v-418h600v-213h-600v-649q0 -209 -92 -304.5t-306 -95.5q-57 0 -98 6v193z" />
<glyph unicode="&#x192;" horiz-adv-x="761" d="M-61 -262q52 -6 108 -6q93 0 130.5 39.5t37.5 122.5v974h-186v193h186v92q0 177 90 259.5t285 82.5q86 0 143 -8v-191q-61 7 -108 7q-93 0 -130.5 -39.5t-37.5 -122.5v-80h256v-193h-256v-987q0 -177 -90 -259.5t-285 -82.5q-86 0 -143 8v191z" />
<glyph unicode="&#x1fa;" horiz-adv-x="1429" d="M39 0l502 1368q-52 61 -52 143q0 92 65.5 156t160.5 64t160 -64t65 -156q0 -80 -53 -143l504 -1368h-273l-112 328h-584l-111 -328h-272zM496 541h438l-219 645zM578 1847l274 211l106 -131l-303 -178zM633 1511q0 -38 23 -62t59 -24t59 24t23 62t-23 62t-59 24t-59 -24 t-23 -62z" />
<glyph unicode="&#x1fb;" horiz-adv-x="1157" d="M76 322q0 152 112.5 249t286.5 97q177 0 311 -103v101q0 107 -55 164t-186 57q-151 0 -271 -99l-139 140q186 157 438 157q128 0 218 -33t141 -96t73.5 -143.5t22.5 -187.5v-625h-242v88q-116 -113 -311 -113q-174 0 -286.5 97.5t-112.5 249.5zM322 322q0 -73 57 -111.5 t158 -38.5q151 0 249 94v111q-105 94 -249 94q-101 0 -158 -38t-57 -111zM362 1370q0 92 65.5 155.5t160.5 63.5t160 -63.5t65 -155.5t-65 -155.5t-160 -63.5t-160.5 63.5t-65.5 155.5zM451 1706l274 211l106 -131l-303 -178zM506 1370q0 -38 23 -62t59 -24t59 24t23 62 t-23 62t-59 24t-59 -24t-23 -62z" />
<glyph unicode="&#x1fc;" horiz-adv-x="1826" d="M37 0l739 1434h950v-213h-563v-377h492v-213h-492v-418h582v-213h-836v324h-434l-162 -324h-276zM582 537h327v653zM977 1636l291 293l139 -133l-328 -264z" />
<glyph unicode="&#x1fd;" horiz-adv-x="1890" d="M76 322q0 152 112.5 249t286.5 97q180 0 311 -103v101q0 107 -55 164t-186 57q-151 0 -271 -99l-139 140q86 76 198 116.5t236 40.5q254 0 371 -153q62 70 153.5 111.5t204.5 41.5q228 0 371 -156.5t143 -404.5q0 -59 -4 -82h-782q17 -122 100 -196t205 -74 q154 0 264 135l170 -121q-75 -102 -186.5 -156.5t-245.5 -54.5q-251 0 -405 160q-97 -88 -203.5 -124t-239.5 -36q-182 0 -295.5 97t-113.5 250zM322 322q0 -73 57 -111.5t158 -38.5q171 0 288 117q-20 53 -26 86q-55 45 -125.5 70.5t-136.5 25.5q-101 0 -158 -38t-57 -111z M793 1280l290 293l140 -133l-328 -264zM1024 627h545q-9 120 -84.5 191t-186.5 71q-113 0 -185 -69t-89 -193z" />
<glyph unicode="&#x1fe;" horiz-adv-x="1495" d="M88 717q0 157 45 292t128 235t208.5 157t278.5 57q213 0 370 -110l121 163l115 -81l-129 -179q88 -100 135 -237.5t47 -296.5q0 -210 -77 -377t-228 -266t-354 -99q-214 0 -373 111l-119 -164l-115 82l129 176q-89 99 -135.5 237t-46.5 300zM346 717q0 -197 74 -332 l563 774q-97 82 -235 82q-185 0 -293.5 -141.5t-108.5 -382.5zM512 272q98 -79 236 -79q185 0 293 141.5t108 382.5q0 195 -74 330zM594 1636l291 293l139 -133l-328 -264z" />
<glyph unicode="&#x1ff;" horiz-adv-x="1212" d="M78 530q0 250 144 402.5t384 152.5q155 0 273 -65l94 127l114 -82l-98 -131q146 -156 146 -404q0 -250 -144 -402.5t-385 -152.5q-155 0 -272 66l-94 -127l-115 82l96 131q-143 152 -143 403zM324 530q0 -124 41 -208l387 526q-62 41 -146 41q-133 0 -207.5 -96 t-74.5 -263zM444 1280l291 293l139 -133l-327 -264zM459 211q64 -39 147 -39q133 0 208 95.5t75 262.5q0 122 -41 209z" />
<glyph unicode="&#x218;" horiz-adv-x="1253" d="M68 227l184 144q163 -178 399 -178q116 0 187 51t71 133q0 98 -70 151.5t-274 110.5q-230 64 -332 167.5t-102 264.5q0 176 124 281.5t345 105.5q151 0 284 -58.5t228 -168.5l-176 -135q-136 145 -318 145q-114 0 -171.5 -44t-57.5 -120q0 -79 61.5 -131.5t231.5 -99.5 q259 -72 372 -174t113 -279q0 -192 -135 -305t-366 -113q-180 0 -333 64t-265 188zM485 -498l119 412l180 -61l-157 -400z" />
<glyph unicode="&#x219;" horiz-adv-x="1046" d="M57 180l170 135q64 -66 144.5 -104.5t163.5 -38.5q176 0 176 113q0 60 -47 95t-183 73q-203 57 -284.5 134.5t-81.5 203.5q0 133 102.5 213.5t286.5 80.5q262 0 426 -167l-160 -132q-46 49 -112.5 76t-133.5 27q-151 0 -151 -92q0 -47 48.5 -80.5t194.5 -75.5 q179 -53 266 -134.5t87 -209.5q0 -149 -107 -235.5t-307 -86.5q-314 0 -498 205zM389 -498l119 412l180 -61l-158 -400z" />
<glyph unicode="&#x21a;" horiz-adv-x="1191" d="M39 1221v213h1114v-213h-430v-1221h-254v1221h-430zM399 -498l119 412l180 -61l-157 -400z" />
<glyph unicode="&#x21b;" horiz-adv-x="768" d="M29 868v193h186v317h242v-317h254v-193h-254v-522q0 -92 36.5 -133t129.5 -41q63 0 88 2v-192q-68 -7 -129 -7q-192 0 -279.5 90t-87.5 289v514h-186zM285 -498l118 412l181 -61l-158 -400z" />
<glyph unicode="&#x2c6;" horiz-adv-x="811" d="M72 1225l264 276h139l264 -276l-108 -90l-225 198l-226 -198z" />
<glyph unicode="&#x2c7;" horiz-adv-x="811" d="M72 1436l108 90l226 -199l225 199l108 -90l-264 -277h-139z" />
<glyph unicode="&#x2d8;" horiz-adv-x="811" d="M74 1450l155 37q47 -162 177 -162q129 0 176 162l155 -37q-32 -131 -115.5 -206t-215.5 -75t-216 75t-116 206z" />
<glyph unicode="&#x2d9;" horiz-adv-x="811" d="M276 1325q0 54 38 91.5t92 37.5t91.5 -37.5t37.5 -91.5t-37.5 -91.5t-91.5 -37.5t-92 37.5t-38 91.5z" />
<glyph unicode="&#x2da;" horiz-adv-x="811" d="M180 1329q0 92 65.5 155.5t160.5 63.5t160 -63.5t65 -155.5t-65 -155.5t-160 -63.5t-160.5 63.5t-65.5 155.5zM324 1329q0 -38 23 -62t59 -24q35 0 58 24t23 62t-23 62t-58 24q-36 0 -59 -24t-23 -62z" />
<glyph unicode="&#x2db;" horiz-adv-x="811" d="M223 -240q0 67 36 131t97 109h176q-124 -100 -124 -207q0 -42 25 -67t63 -25q52 0 90 41l92 -109q-92 -82 -221 -82q-105 0 -169.5 60t-64.5 149z" />
<glyph unicode="&#x2dc;" horiz-adv-x="811" d="M57 1231q20 114 75 174.5t140 60.5q82 0 162 -57q55 -41 96 -41q58 0 72 86l152 -20q-20 -114 -75.5 -175t-139.5 -61q-82 0 -162 57q-55 41 -96 41q-58 0 -72 -86z" />
<glyph unicode="&#x2dd;" horiz-adv-x="811" d="M23 1221l229 299l145 -125l-258 -273zM356 1225l293 295l139 -131l-317 -267z" />
<glyph unicode="&#x3a9;" horiz-adv-x="1495" d="M88 772q0 145 44.5 270.5t127.5 218t208.5 145t279.5 52.5q205 0 356 -91.5t227 -245.5t76 -349q0 -180 -70.5 -322.5t-195.5 -236.5h250v-213h-535v209q293 207 293 541q0 136 -45.5 245.5t-138 176.5t-217.5 67t-217.5 -67t-138.5 -176.5t-46 -245.5q0 -334 293 -541 v-209h-535v213h250q-125 94 -195.5 236.5t-70.5 322.5z" />
<glyph unicode="&#x400;" horiz-adv-x="1183" d="M158 0v1434h925v-213h-671v-377h600v-213h-600v-418h690v-213h-944zM362 1796l140 133l291 -293l-103 -104z" />
<glyph unicode="&#x401;" horiz-adv-x="1183" d="M158 0v1434h925v-213h-671v-377h600v-213h-600v-418h690v-213h-944zM291 1722q0 54 37.5 91.5t91.5 37.5t91.5 -37.5t37.5 -91.5t-37.5 -91.5t-91.5 -37.5t-91.5 37.5t-37.5 91.5zM709 1722q0 54 37.5 91.5t91.5 37.5t91.5 -37.5t37.5 -91.5t-37.5 -91.5t-91.5 -37.5 t-91.5 37.5t-37.5 91.5z" />
<glyph unicode="&#x402;" horiz-adv-x="1581" d="M39 1221v213h1114v-213h-430v-392q144 107 319 107q206 0 328.5 -123t122.5 -330q0 -215 -127 -349t-346 -134h-49v213h30q109 0 171.5 73.5t62.5 182.5q0 116 -61.5 185t-184.5 69q-163 0 -266 -86v-637h-254v1221h-430z" />
<glyph unicode="&#x403;" horiz-adv-x="1130" d="M158 0v1434h934v-213h-680v-1221h-254zM446 1636l291 293l140 -133l-328 -264z" />
<glyph unicode="&#x404;" horiz-adv-x="1421" d="M88 717q0 219 84 387.5t239 261t359 92.5q195 0 347 -83.5t237 -227.5l-209 -113q-137 207 -365 207q-169 0 -285.5 -109.5t-142.5 -308.5h615v-213h-615q26 -200 142.5 -308.5t285.5 -108.5q229 0 365 206l209 -112q-85 -145 -237 -228.5t-347 -83.5q-204 0 -359 93 t-239 261.5t-84 387.5z" />
<glyph unicode="&#x405;" horiz-adv-x="1253" d="M68 227l184 144q163 -178 399 -178q116 0 187 51t71 133q0 98 -70 151.5t-274 110.5q-230 64 -332 167.5t-102 264.5q0 176 124 281.5t345 105.5q151 0 284 -58.5t228 -168.5l-176 -135q-136 145 -318 145q-114 0 -171.5 -44t-57.5 -120q0 -79 61.5 -131.5t231.5 -99.5 q259 -72 372 -174t113 -279q0 -192 -135 -305t-366 -113q-180 0 -333 64t-265 188z" />
<glyph unicode="&#x406;" horiz-adv-x="589" d="M168 0v1434h254v-1434h-254z" />
<glyph unicode="&#x407;" horiz-adv-x="589" d="M-43 1722q0 54 37.5 91.5t91.5 37.5t91.5 -37.5t37.5 -91.5t-37.5 -91.5t-91.5 -37.5t-91.5 37.5t-37.5 91.5zM168 0v1434h254v-1434h-254zM375 1722q0 54 37.5 91.5t91.5 37.5t91.5 -37.5t37.5 -91.5t-37.5 -91.5t-91.5 -37.5t-91.5 37.5t-37.5 91.5z" />
<glyph unicode="&#x408;" horiz-adv-x="1212" d="M57 268l205 113q103 -188 287 -188q123 0 187.5 82t64.5 225v934h254v-928q0 -246 -129 -388.5t-369 -142.5q-167 0 -296.5 76t-203.5 217z" />
<glyph unicode="&#x409;" horiz-adv-x="2121" d="M39 -20v210q49 -6 90 -6q89 0 126.5 43t37.5 133v1074h1014v-570h237q233 0 366.5 -115.5t133.5 -316.5q0 -200 -133.5 -316t-366.5 -116h-491v1219h-506v-877q0 -188 -100 -277.5t-308 -89.5q-27 0 -100 5zM1307 213h209q274 0 274 219q0 112 -68 165.5t-206 53.5h-209 v-438z" />
<glyph unicode="&#x40a;" horiz-adv-x="2084" d="M158 0v1434h254v-570h604v570h254v-570h237q233 0 366.5 -115.5t133.5 -316.5q0 -200 -133.5 -316t-366.5 -116h-491v651h-604v-651h-254zM1270 213h209q274 0 274 219q0 112 -68 165.5t-206 53.5h-209v-438z" />
<glyph unicode="&#x40b;" horiz-adv-x="1622" d="M39 1221v213h1114v-213h-430v-392q144 107 324 107q214 0 330 -122.5t116 -358.5v-455h-254v430q0 152 -62 222.5t-194 70.5q-157 0 -260 -86v-637h-254v1221h-430z" />
<glyph unicode="&#x40c;" horiz-adv-x="1318" d="M158 0v1434h254v-705l534 705h291l-459 -590l522 -844h-280l-391 649l-217 -278v-371h-254zM518 1636l291 293l139 -133l-327 -264z" />
<glyph unicode="&#x40d;" horiz-adv-x="1474" d="M158 0h245l660 1012v-1012h254v1434h-246l-659 -1012v1012h-254v-1434zM453 1796l139 133l291 -293l-103 -104z" />
<glyph unicode="&#x40e;" horiz-adv-x="1294" d="M35 1434h264l358 -736l342 736h265l-662 -1434h-264l199 432zM311 1843l156 37q47 -162 176 -162t176 162l156 -37q-32 -131 -116 -205.5t-216 -74.5t-216 74.5t-116 205.5z" />
<glyph unicode="&#x40f;" horiz-adv-x="1470" d="M158 0v1434h254v-1221h647v1221h254v-1434h-451v-246h-254v246h-450z" />
<glyph unicode="&#x410;" horiz-adv-x="1429" d="M39 0l526 1434h299l527 -1434h-273l-112 328h-584l-111 -328h-272zM496 541h438l-219 645z" />
<glyph unicode="&#x411;" horiz-adv-x="1226" d="M158 0v1434h868v-213h-614v-357h237q233 0 366.5 -115.5t133.5 -316.5q0 -200 -133.5 -316t-366.5 -116h-491zM412 213h209q274 0 274 219q0 112 -68 165.5t-206 53.5h-209v-438z" />
<glyph unicode="&#x412;" horiz-adv-x="1310" d="M158 0v1434h512q234 0 362.5 -106t128.5 -279q0 -103 -52 -181.5t-148 -111.5q130 -30 201 -120.5t71 -219.5q0 -195 -136.5 -305.5t-396.5 -110.5h-542zM412 213h268q153 0 224 51.5t71 157.5t-71 157.5t-224 51.5h-268v-418zM412 844h241q127 0 188.5 45t61.5 143 t-62 143.5t-188 45.5h-241v-377z" />
<glyph unicode="&#x413;" horiz-adv-x="1130" d="M158 0v1434h934v-213h-680v-1221h-254z" />
<glyph unicode="&#x414;" horiz-adv-x="1335" d="M37 213h127q115 377 115 977v244h854v-1221h161v-459h-254v246h-749v-246h-254v459zM420 213h459v1008h-347q0 -589 -112 -1008z" />
<glyph unicode="&#x415;" horiz-adv-x="1183" d="M158 0v1434h925v-213h-671v-377h600v-213h-600v-418h690v-213h-944z" />
<glyph unicode="&#x416;" horiz-adv-x="1927" d="M18 0l484 852l-420 582h285l471 -678v678h252v-678l471 678h284l-420 -582l484 -852h-293l-342 643l-184 -254v-389h-252v389l-187 254l-340 -643h-293z" />
<glyph unicode="&#x417;" horiz-adv-x="1163" d="M47 211l176 143q133 -161 332 -161q125 0 198.5 55t73.5 153q0 82 -44.5 136t-115 77t-163.5 23h-135v213h133q125 0 200.5 55.5t75.5 153.5q0 86 -56 134t-159 48q-176 0 -297 -139l-172 139q193 217 488 217q203 0 328.5 -100.5t125.5 -272.5q0 -124 -64.5 -212.5 t-164.5 -124.5q133 -41 205.5 -131t72.5 -226q0 -184 -136 -300t-374 -116q-166 0 -302 62.5t-226 173.5z" />
<glyph unicode="&#x418;" horiz-adv-x="1474" d="M158 0v1434h254v-1012l659 1012h246v-1434h-254v1012l-660 -1012h-245z" />
<glyph unicode="&#x419;" horiz-adv-x="1474" d="M158 0v1434h254v-1012l659 1012h246v-1434h-254v1012l-660 -1012h-245zM406 1843l155 37q47 -162 176 -162t176 162l156 -37q-32 -131 -116 -205.5t-216 -74.5t-215.5 74.5t-115.5 205.5z" />
<glyph unicode="&#x41a;" horiz-adv-x="1318" d="M158 0v1434h254v-705l534 705h291l-459 -590l522 -844h-280l-391 649l-217 -278v-371h-254z" />
<glyph unicode="&#x41b;" horiz-adv-x="1505" d="M39 -18v208q49 -6 90 -6q89 0 126.5 43t37.5 133v1074h1055v-1434h-252v1219h-549v-781q0 -125 -19 -209t-65.5 -142.5t-125.5 -85t-198 -26.5q-49 0 -100 7z" />
<glyph unicode="&#x41c;" horiz-adv-x="1769" d="M158 0v1434h250l477 -867l477 867h250v-1434h-254v989l-395 -729h-156l-395 729v-989h-254z" />
<glyph unicode="&#x41d;" horiz-adv-x="1470" d="M158 0v1434h254v-570h647v570h254v-1434h-254v651h-647v-651h-254z" />
<glyph unicode="&#x41e;" horiz-adv-x="1495" d="M88 717q0 157 45 292t128 235t208.5 157t278.5 57q203 0 354 -98.5t228 -265.5t77 -377t-77 -377t-228 -266t-354 -99t-354.5 99t-228.5 266t-77 377zM346 717q0 -241 108.5 -382.5t293.5 -141.5t293 141.5t108 382.5t-108 382.5t-293 141.5t-293.5 -141.5t-108.5 -382.5 z" />
<glyph unicode="&#x41f;" horiz-adv-x="1470" d="M158 0v1434h1155v-1434h-254v1219h-647v-1219h-254z" />
<glyph unicode="&#x420;" horiz-adv-x="1255" d="M158 0v1434h475q263 0 409 -117.5t146 -343.5q0 -225 -146 -342t-409 -117h-221v-514h-254zM412 727h206q157 0 234.5 59.5t77.5 186.5q0 129 -77 188.5t-235 59.5h-206v-494z" />
<glyph unicode="&#x421;" horiz-adv-x="1421" d="M88 717q0 219 84 387.5t239 261t359 92.5q195 0 347 -83.5t237 -227.5l-209 -113q-137 207 -365 207q-191 0 -312.5 -137.5t-121.5 -386.5t121.5 -386.5t312.5 -137.5q229 0 365 206l209 -112q-85 -145 -237 -228.5t-347 -83.5q-204 0 -359 93t-239 261.5t-84 387.5z" />
<glyph unicode="&#x422;" horiz-adv-x="1191" d="M39 1221v213h1114v-213h-430v-1221h-254v1221h-430z" />
<glyph unicode="&#x423;" horiz-adv-x="1294" d="M35 1434h264l358 -736l342 736h265l-662 -1434h-264l199 432z" />
<glyph unicode="&#x424;" horiz-adv-x="1527" d="M78 717q0 224 151.5 359.5t407.5 150.5v207h254v-207q256 -15 407.5 -150.5t151.5 -359.5q0 -225 -152 -360.5t-407 -149.5v-207h-254v207q-255 14 -407 149.5t-152 360.5zM332 717q0 -135 83 -212t222 -83v588q-138 -6 -221.5 -83t-83.5 -210zM891 422q139 6 222 83 t83 212q0 133 -83.5 210t-221.5 83v-588z" />
<glyph unicode="&#x425;" horiz-adv-x="1306" d="M31 0l467 743l-430 691h282l303 -490l303 490h283l-430 -691l467 -743h-283l-340 547l-340 -547h-282z" />
<glyph unicode="&#x426;" horiz-adv-x="1507" d="M158 0v1434h254v-1221h639v1221h254v-1221h161v-459h-252v246h-1056z" />
<glyph unicode="&#x427;" horiz-adv-x="1300" d="M117 971v463h254v-439q0 -151 61 -219.5t197 -68.5q164 0 260 86v641h254v-1434h-254v598q-139 -104 -322 -104q-216 0 -333 121t-117 356z" />
<glyph unicode="&#x428;" horiz-adv-x="1789" d="M158 0v1434h254v-1221h356v1221h254v-1221h356v1221h254v-1434h-1474z" />
<glyph unicode="&#x429;" horiz-adv-x="1835" d="M158 0v1434h254v-1221h356v1221h254v-1221h356v1221h254v-1221h162v-459h-252v246h-1384z" />
<glyph unicode="&#x42a;" horiz-adv-x="1439" d="M39 1219v215h586v-570h237q233 0 366.5 -115.5t133.5 -316.5q0 -200 -133.5 -316t-366.5 -116h-491v1219h-332zM625 213h209q274 0 274 219q0 112 -68 165.5t-206 53.5h-209v-438z" />
<glyph unicode="&#x42b;" horiz-adv-x="1720" d="M158 0v1434h254v-570h237q233 0 366.5 -115.5t133.5 -316.5q0 -200 -133.5 -316t-366.5 -116h-491zM412 213h209q274 0 274 219q0 112 -68 165.5t-206 53.5h-209v-438zM1309 0v1434h254v-1434h-254z" />
<glyph unicode="&#x42c;" horiz-adv-x="1226" d="M158 0v1434h254v-570h237q233 0 366.5 -115.5t133.5 -316.5q0 -200 -133.5 -316t-366.5 -116h-491zM412 213h209q274 0 274 219q0 112 -68 165.5t-206 53.5h-209v-438z" />
<glyph unicode="&#x42d;" horiz-adv-x="1421" d="M68 287l208 112q136 -206 365 -206q169 0 285.5 108.5t142.5 308.5h-614v213h614q-26 199 -142.5 308.5t-285.5 109.5q-228 0 -365 -207l-208 113q85 145 236.5 228t346.5 83q204 0 359 -92.5t239 -261t84 -387.5t-84 -387.5t-239 -261.5t-359 -93q-195 0 -346.5 83.5 t-236.5 228.5z" />
<glyph unicode="&#x42e;" horiz-adv-x="1789" d="M158 0v1434h254v-611h204q10 141 48 255.5t103.5 200t165 132.5t224.5 47q138 0 243.5 -56t171 -157t98 -234t32.5 -294t-32.5 -294.5t-98 -234.5t-171 -157t-243.5 -56q-125 0 -224.5 47t-165 132.5t-103.5 199.5t-48 254h-204v-608h-254zM872 717q0 -257 71.5 -390.5 t213.5 -133.5t213.5 133.5t71.5 390.5t-71.5 390.5t-213.5 133.5t-213.5 -133.5t-71.5 -390.5z" />
<glyph unicode="&#x42f;" horiz-adv-x="1331" d="M39 0l387 608q-142 47 -220.5 146t-78.5 247q0 209 148 321t399 112h500v-1434h-252v571h-254l-351 -571h-278zM383 1001q0 -114 73.5 -168.5t223.5 -54.5h242v449h-242q-297 0 -297 -226z" />
<glyph unicode="&#x430;" horiz-adv-x="1157" d="M76 322q0 152 112.5 249t286.5 97q177 0 311 -103v101q0 107 -55 164t-186 57q-151 0 -271 -99l-139 140q186 157 438 157q128 0 218 -33t141 -96t73.5 -143.5t22.5 -187.5v-625h-242v88q-116 -113 -311 -113q-174 0 -286.5 97.5t-112.5 249.5zM322 322q0 -73 57 -111.5 t158 -38.5q151 0 249 94v111q-105 94 -249 94q-101 0 -158 -38t-57 -111z" />
<glyph unicode="&#x431;" horiz-adv-x="1175" d="M96 657q0 161 31.5 287.5t102 230t182 174t273.5 113.5t376 56l-23 -197q-294 -13 -468.5 -120.5t-211.5 -289.5q51 51 131 81t170 30q198 0 317.5 -138t119.5 -382q0 -243 -132 -385t-350 -142q-252 0 -385 181t-133 501zM338 694q0 -279 70 -400.5t208 -121.5 q109 0 172.5 88t63.5 240q0 153 -63.5 239t-174.5 86q-167 0 -276 -131z" />
<glyph unicode="&#x432;" horiz-adv-x="1099" d="M137 0v1061h430q198 0 299 -74t101 -209q0 -160 -136 -215q88 -28 139.5 -92.5t51.5 -163.5q0 -307 -434 -307h-451zM379 193h205q97 0 146.5 29.5t49.5 101.5t-50 103.5t-146 31.5h-205v-266zM379 641h180q87 0 130.5 25.5t43.5 89.5t-43 88t-131 24h-180v-227z" />
<glyph unicode="&#x433;" horiz-adv-x="946" d="M137 0v1061h770v-193h-528v-868h-242z" />
<glyph unicode="&#x434;" horiz-adv-x="1204" d="M39 193h131q88 280 88 620v248h750v-868h155v-418h-241v225h-641v-225h-242v418zM414 193h352v675h-266v-131q0 -254 -86 -544z" />
<glyph unicode="&#x435;" horiz-adv-x="1187" d="M78 530q0 244 143.5 399.5t374.5 155.5q228 0 371 -156.5t143 -404.5q0 -59 -4 -82h-782q17 -122 100 -196t205 -74q154 0 264 135l170 -121q-75 -102 -186.5 -156.5t-245.5 -54.5q-249 0 -401 154.5t-152 400.5zM322 627h544q-9 120 -84 191t-186 71q-113 0 -185 -69 t-89 -193z" />
<glyph unicode="&#x436;" horiz-adv-x="1636" d="M8 0l387 651l-334 410h279l356 -475v475h242v-475l356 475h279l-334 -410l387 -651h-262l-270 473l-156 -190v-283h-242v283l-155 190l-269 -473h-264z" />
<glyph unicode="&#x437;" horiz-adv-x="1028" d="M35 141l149 135q139 -114 310 -114q101 0 156 37.5t55 103.5q0 77 -74.5 118.5t-190.5 41.5h-129v178h115q107 0 172.5 36t65.5 99q0 56 -48.5 88.5t-128.5 32.5q-138 0 -251 -96l-148 127q170 157 414 157q181 0 294 -78t113 -210q0 -87 -47.5 -148.5t-128.5 -95.5 q101 -30 159 -98t58 -162q0 -142 -118.5 -231t-327.5 -89q-287 0 -469 168z" />
<glyph unicode="&#x438;" horiz-adv-x="1265" d="M137 0v1061h242v-715l510 715h239v-1061h-241v715l-510 -715h-240z" />
<glyph unicode="&#x439;" horiz-adv-x="1265" d="M137 0v1061h242v-715l510 715h239v-1061h-241v715l-510 -715h-240zM301 1491l156 37q47 -162 176 -162t176 162l156 -37q-32 -131 -116 -206t-216 -75t-216 75t-116 206z" />
<glyph unicode="&#x43a;" horiz-adv-x="1132" d="M137 0v1061h242v-473l409 473h281l-360 -410l413 -651h-266l-295 483l-182 -209v-274h-242z" />
<glyph unicode="&#x43b;" horiz-adv-x="1265" d="M39 -18v196q49 -6 90 -6q85 0 121.5 43.5t36.5 134.5v711h841v-1061h-241v866h-359v-524q0 -192 -92.5 -279.5t-296.5 -87.5q-49 0 -100 7z" />
<glyph unicode="&#x43c;" horiz-adv-x="1482" d="M137 0v1061h232l372 -576l373 576h232v-1061h-242v674l-301 -453h-123l-301 453v-674h-242z" />
<glyph unicode="&#x43d;" horiz-adv-x="1239" d="M137 0v1061h242v-387h481v387h242v-1061h-242v481h-481v-481h-242z" />
<glyph unicode="&#x43e;" horiz-adv-x="1212" d="M78 530q0 250 144 402.5t384 152.5q241 0 385 -152.5t144 -402.5t-144 -402.5t-385 -152.5q-240 0 -384 152.5t-144 402.5zM324 530q0 -167 74.5 -262.5t207.5 -95.5t208 95.5t75 262.5t-75 263t-208 96t-207.5 -96t-74.5 -263z" />
<glyph unicode="&#x43f;" horiz-adv-x="1204" d="M137 0v1061h930v-1061h-242v868h-446v-868h-242z" />
<glyph unicode="&#x440;" horiz-adv-x="1247" d="M137 -434v1495h242v-103q134 127 319 127q216 0 337.5 -149t121.5 -406t-121.5 -406t-337.5 -149q-185 0 -319 127v-536h-242zM379 287q46 -53 117 -83t141 -30q138 0 206 93t68 263t-68 263.5t-206 93.5q-70 0 -141 -30t-117 -83v-487z" />
<glyph unicode="&#x441;" horiz-adv-x="1118" d="M78 530q0 248 142 401.5t382 153.5q155 0 273 -67.5t190 -190.5l-186 -98q-54 80 -117 120t-150 40q-133 0 -210.5 -95.5t-77.5 -263.5t77.5 -263t210.5 -95q87 0 150 40t117 120l186 -99q-72 -123 -190 -190.5t-273 -67.5q-240 0 -382 153.5t-142 401.5z" />
<glyph unicode="&#x442;" horiz-adv-x="1048" d="M33 868v193h983v-193h-371v-868h-242v868h-370z" />
<glyph unicode="&#x443;" horiz-adv-x="1120" d="M29 1061h247l295 -739l271 739h248l-551 -1495h-248l164 442z" />
<glyph unicode="&#x444;" horiz-adv-x="1904" d="M90 530q0 261 113.5 408t328.5 147q168 0 299 -124v534h242v-534q131 124 299 124q215 0 329 -147t114 -408q0 -260 -113.5 -407.5t-327.5 -147.5q-164 0 -301 121v-530h-242v530q-137 -121 -301 -121q-214 0 -327 147.5t-113 407.5zM336 530q0 -173 60.5 -265.5 t195.5 -92.5q64 0 128.5 30t110.5 81v499q-47 47 -108.5 76t-122.5 29q-141 0 -202.5 -91t-61.5 -266zM1073 283q46 -51 110.5 -81t129.5 -30q135 0 195.5 92.5t60.5 265.5q0 175 -61.5 266t-202.5 91q-61 0 -123 -29t-109 -76v-499z" />
<glyph unicode="&#x445;" horiz-adv-x="1085" d="M20 0l367 553l-332 508h260l228 -350l227 350h260l-332 -508l367 -553h-260l-262 397l-262 -397h-261z" />
<glyph unicode="&#x446;" horiz-adv-x="1267" d="M137 0v1061h242v-868h446v868h242v-868h160v-418h-242v225h-848z" />
<glyph unicode="&#x447;" horiz-adv-x="1142" d="M92 768v293h242v-279q0 -131 52 -183t163 -52q127 0 213 76v438h242v-1061h-242v446q-125 -92 -266 -92q-189 0 -296.5 103t-107.5 311z" />
<glyph unicode="&#x448;" horiz-adv-x="1536" d="M137 0v1061h242v-868h268v868h242v-868h268v868h242v-1061h-1262z" />
<glyph unicode="&#x449;" horiz-adv-x="1601" d="M137 0v1061h242v-868h268v868h242v-868h268v868h242v-868h162v-418h-242v225h-1182z" />
<glyph unicode="&#x44a;" horiz-adv-x="1218" d="M16 866v195h529v-381h170q215 0 328.5 -87.5t113.5 -252.5t-113.5 -252.5t-328.5 -87.5h-412v866h-287zM547 193h166q202 0 202 147t-202 147h-166v-294z" />
<glyph unicode="&#x44b;" horiz-adv-x="1523" d="M137 0h412q215 0 328.5 87.5t113.5 252.5t-113.5 252.5t-328.5 87.5h-170v381h-242v-1061zM381 193v294h166q203 0 203 -147t-203 -147h-166zM1145 0v1061h241v-1061h-241z" />
<glyph unicode="&#x44c;" horiz-adv-x="1050" d="M137 0v1061h242v-381h170q215 0 328.5 -87.5t113.5 -252.5t-113.5 -252.5t-328.5 -87.5h-412zM381 193h166q203 0 203 147t-203 147h-166v-294z" />
<glyph unicode="&#x44d;" horiz-adv-x="1118" d="M53 233l187 99q54 -80 116.5 -120t149.5 -40q112 0 185 67.5t95 192.5h-403v195h405q-22 125 -96 193.5t-186 68.5q-87 0 -149.5 -40t-116.5 -120l-187 98q72 123 190 190.5t273 67.5q240 0 382 -153.5t142 -401.5t-142 -401.5t-382 -153.5q-155 0 -273 67.5t-190 190.5z " />
<glyph unicode="&#x44e;" horiz-adv-x="1552" d="M137 0v1061h242v-434h147q25 207 149.5 332.5t321.5 125.5q220 0 349 -154.5t129 -400.5t-129 -400.5t-349 -154.5q-197 0 -321.5 126t-149.5 333h-147v-434h-242zM762 530q0 -167 63 -262.5t172 -95.5t172.5 95.5t63.5 262.5t-63.5 263t-172.5 96t-172 -96t-63 -263z " />
<glyph unicode="&#x44f;" horiz-adv-x="1138" d="M18 0l285 436q-96 37 -148.5 113.5t-52.5 179.5q0 152 108.5 242t307.5 90h483v-1061h-241v399h-225l-250 -399h-267zM344 729q0 -64 50 -99.5t143 -35.5h223v272h-223q-93 0 -143 -36.5t-50 -100.5z" />
<glyph unicode="&#x450;" horiz-adv-x="1187" d="M78 530q0 244 143.5 399.5t374.5 155.5q228 0 371 -156.5t143 -404.5q0 -59 -4 -82h-782q17 -122 100 -196t205 -74q154 0 264 135l170 -121q-75 -102 -186.5 -156.5t-245.5 -54.5q-249 0 -401 154.5t-152 400.5zM322 627h544q-9 120 -84 191t-186 71q-113 0 -185 -69 t-89 -193zM348 1440l139 133l291 -293l-102 -104z" />
<glyph unicode="&#x451;" horiz-adv-x="1187" d="M78 530q0 244 143.5 399.5t374.5 155.5q228 0 371 -156.5t143 -404.5q0 -59 -4 -82h-782q17 -122 100 -196t205 -74q154 0 264 135l170 -121q-75 -102 -186.5 -156.5t-245.5 -54.5q-249 0 -401 154.5t-152 400.5zM258 1366q0 54 37.5 91.5t91.5 37.5t91.5 -37.5 t37.5 -91.5t-37.5 -91.5t-91.5 -37.5t-91.5 37.5t-37.5 91.5zM322 627h544q-9 120 -84 191t-186 71q-113 0 -185 -69t-89 -193zM676 1366q0 54 37.5 91.5t91.5 37.5t91.5 -37.5t37.5 -91.5t-37.5 -91.5t-91.5 -37.5t-91.5 37.5t-37.5 91.5z" />
<glyph unicode="&#x452;" horiz-adv-x="1239" d="M10 1208v150h127v137h242v-137h401v-150h-401v-270q147 147 356 147q171 0 273 -103.5t102 -293.5v-688q0 -125 -17 -207t-61.5 -140.5t-122 -84t-196.5 -25.5q-45 0 -99 4v197q62 -4 91 -4q89 0 126 43t37 133v737q0 236 -204 236q-84 0 -161.5 -42t-123.5 -102v-745 h-242v1208h-127z" />
<glyph unicode="&#x453;" horiz-adv-x="946" d="M137 0v1061h770v-193h-528v-868h-242zM346 1280l291 293l139 -133l-327 -264z" />
<glyph unicode="&#x454;" horiz-adv-x="1118" d="M78 530q0 248 142 401.5t382 153.5q155 0 273 -67.5t190 -190.5l-186 -98q-54 80 -117 120t-150 40q-112 0 -186 -68.5t-96 -193.5h405v-195h-403q22 -125 95 -192.5t185 -67.5q87 0 150 40t117 120l186 -99q-72 -123 -190 -190.5t-273 -67.5q-240 0 -382 153.5 t-142 401.5z" />
<glyph unicode="&#x455;" horiz-adv-x="1046" d="M57 180l170 135q64 -66 144.5 -104.5t163.5 -38.5q176 0 176 113q0 60 -47 95t-183 73q-203 57 -284.5 134.5t-81.5 203.5q0 133 102.5 213.5t286.5 80.5q262 0 426 -167l-160 -132q-46 49 -112.5 76t-133.5 27q-151 0 -151 -92q0 -47 48.5 -80.5t194.5 -75.5 q179 -53 266 -134.5t87 -209.5q0 -149 -107 -235.5t-307 -86.5q-314 0 -498 205z" />
<glyph unicode="&#x456;" horiz-adv-x="536" d="M119 1366q0 63 43 105t106 42t106.5 -42t43.5 -105t-43.5 -105t-106.5 -42t-106 42t-43 105zM147 0v1061h242v-1061h-242z" />
<glyph unicode="&#x457;" horiz-adv-x="536" d="M-70 1366q0 54 37.5 91.5t91.5 37.5t91.5 -37.5t37.5 -91.5t-37.5 -91.5t-91.5 -37.5t-91.5 37.5t-37.5 91.5zM147 0v1061h242v-1061h-242zM348 1366q0 54 37.5 91.5t91.5 37.5t91.5 -37.5t37.5 -91.5t-37.5 -91.5t-91.5 -37.5t-91.5 37.5t-37.5 91.5z" />
<glyph unicode="&#x458;" horiz-adv-x="536" d="M-106 -260q27 -2 90 -2q89 0 126 43t37 133v1147h242v-1120q0 -209 -91.5 -304.5t-305.5 -95.5q-58 0 -98 6v193zM119 1366q0 63 43 105t106 42t106.5 -42t43.5 -105t-43.5 -105t-106.5 -42t-106 42t-43 105z" />
<glyph unicode="&#x459;" horiz-adv-x="1789" d="M39 -18v196q49 -6 90 -6q85 0 121.5 43.5t36.5 134.5v711h831v-381h170q215 0 329 -88t114 -252t-114 -252t-329 -88h-411v866h-349v-524q0 -188 -95 -277.5t-294 -89.5q-49 0 -100 7zM1120 193h166q203 0 203 147t-203 147h-166v-294z" />
<glyph unicode="&#x45a;" horiz-adv-x="1718" d="M137 0v1061h242v-387h426v387h242v-381h170q215 0 328.5 -87.5t113.5 -252.5t-113.5 -252.5t-328.5 -87.5h-412v479h-426v-479h-242zM1049 193h165q203 0 203 147t-203 147h-165v-294z" />
<glyph unicode="&#x45b;" horiz-adv-x="1239" d="M10 1208v150h127v137h242v-137h401v-150h-401v-270q147 147 356 147q171 0 273 -103.5t102 -293.5v-688h-242v653q0 236 -204 236q-84 0 -161.5 -42t-123.5 -102v-745h-242v1208h-127z" />
<glyph unicode="&#x45c;" horiz-adv-x="1132" d="M137 0v1061h242v-473l409 473h281l-360 -410l413 -651h-266l-295 483l-182 -209v-274h-242zM408 1280l290 293l140 -133l-328 -264z" />
<glyph unicode="&#x45d;" horiz-adv-x="1265" d="M137 0v1061h242v-715l510 715h239v-1061h-241v715l-510 -715h-240zM356 1440l140 133l290 -293l-102 -104z" />
<glyph unicode="&#x45e;" horiz-adv-x="1118" d="M29 1061h247l295 -739l271 739h248l-551 -1495h-248l164 442zM227 1491l156 37q47 -162 176 -162t176 162l156 -37q-32 -131 -116 -206t-216 -75t-216 75t-116 206z" />
<glyph unicode="&#x45f;" horiz-adv-x="1204" d="M137 0v1061h242v-868h446v868h242v-1061h-344v-225h-242v225h-344z" />
<glyph unicode="&#x490;" horiz-adv-x="1130" d="M158 0v1434h680v252h254v-465h-680v-1221h-254z" />
<glyph unicode="&#x491;" horiz-adv-x="946" d="M137 0v1061h529v270h241v-463h-528v-868h-242z" />
<glyph unicode="&#x1e80;" horiz-adv-x="2076" d="M39 1434h264l324 -1096l276 1096h271l276 -1096l324 1096h264l-422 -1434h-316l-262 1040l-262 -1040h-315zM721 1796l139 133l291 -293l-102 -104z" />
<glyph unicode="&#x1e81;" horiz-adv-x="1679" d="M29 1061h254l225 -752l223 752h217l223 -752l228 752h252l-348 -1061h-246l-217 731l-217 -731h-246zM522 1440l140 133l290 -293l-102 -104z" />
<glyph unicode="&#x1e82;" horiz-adv-x="2076" d="M39 1434h264l324 -1096l276 1096h271l276 -1096l324 1096h264l-422 -1434h-316l-262 1040l-262 -1040h-315zM926 1636l291 293l139 -133l-328 -264z" />
<glyph unicode="&#x1e83;" horiz-adv-x="1679" d="M29 1061h254l225 -752l223 752h217l223 -752l228 752h252l-348 -1061h-246l-217 731l-217 -731h-246zM727 1280l291 293l139 -133l-328 -264z" />
<glyph unicode="&#x1e84;" horiz-adv-x="2076" d="M39 1434h264l324 -1096l276 1096h271l276 -1096l324 1096h264l-422 -1434h-316l-262 1040l-262 -1040h-315zM700 1722q0 54 37.5 91.5t91.5 37.5t91.5 -37.5t37.5 -91.5t-37.5 -91.5t-91.5 -37.5t-91.5 37.5t-37.5 91.5zM1118 1722q0 54 37.5 91.5t91.5 37.5t91.5 -37.5 t37.5 -91.5t-37.5 -91.5t-91.5 -37.5t-91.5 37.5t-37.5 91.5z" />
<glyph unicode="&#x1e85;" horiz-adv-x="1679" d="M29 1061h254l225 -752l223 752h217l223 -752l228 752h252l-348 -1061h-246l-217 731l-217 -731h-246zM502 1366q0 54 37.5 91.5t91.5 37.5t91.5 -37.5t37.5 -91.5t-37.5 -91.5t-91.5 -37.5t-91.5 37.5t-37.5 91.5zM920 1366q0 54 37.5 91.5t91.5 37.5t91.5 -37.5 t37.5 -91.5t-37.5 -91.5t-91.5 -37.5t-91.5 37.5t-37.5 91.5z" />
<glyph unicode="&#x1ef2;" horiz-adv-x="1298" d="M29 1434h274l346 -631l346 631h275l-494 -869v-565h-254v565zM406 1796l139 133l291 -293l-103 -104z" />
<glyph unicode="&#x1ef3;" horiz-adv-x="1118" d="M29 1061h247l295 -739l271 739h248l-551 -1495h-248l164 442zM272 1440l140 133l290 -293l-102 -104z" />
<glyph unicode="&#x2000;" horiz-adv-x="1029" />
<glyph unicode="&#x2001;" horiz-adv-x="2058" />
<glyph unicode="&#x2002;" horiz-adv-x="1029" />
<glyph unicode="&#x2003;" horiz-adv-x="2058" />
<glyph unicode="&#x2004;" horiz-adv-x="686" />
<glyph unicode="&#x2005;" horiz-adv-x="514" />
<glyph unicode="&#x2006;" horiz-adv-x="343" />
<glyph unicode="&#x2007;" horiz-adv-x="343" />
<glyph unicode="&#x2008;" horiz-adv-x="257" />
<glyph unicode="&#x2009;" horiz-adv-x="409" />
<glyph unicode="&#x200a;" horiz-adv-x="114" />
<glyph unicode="&#x2010;" horiz-adv-x="827" d="M117 575v207h594v-207h-594z" />
<glyph unicode="&#x2011;" horiz-adv-x="827" d="M117 575v207h594v-207h-594z" />
<glyph unicode="&#x2012;" horiz-adv-x="1226" d="M82 584v190h1063v-190h-1063z" />
<glyph unicode="&#x2013;" horiz-adv-x="1024" d="M0 584v190h1024v-190h-1024z" />
<glyph unicode="&#x2014;" horiz-adv-x="2048" d="M0 584v190h2048v-190h-2048z" />
<glyph unicode="&#x2015;" horiz-adv-x="2048" d="M201 584v190h1646v-190h-1646z" />
<glyph unicode="&#x2016;" horiz-adv-x="933" d="M199 -266v1800h184v-1800h-184zM551 -266v1800h184v-1800h-184z" />
<glyph unicode="&#x2017;" horiz-adv-x="1234" d="M98 -55h1039v-164h-1039v164zM98 -289h1039v-164h-1039v164z" />
<glyph unicode="&#x2018;" horiz-adv-x="630" d="M160 1069l223 543l168 -53l-162 -568z" />
<glyph unicode="&#x2019;" horiz-adv-x="630" d="M84 1044l162 568l229 -78l-223 -543z" />
<glyph unicode="&#x201a;" horiz-adv-x="630" d="M84 -272l162 567l229 -78l-223 -543z" />
<glyph unicode="&#x201b;" horiz-adv-x="630" d="M156 1534l229 78l162 -568l-168 -53z" />
<glyph unicode="&#x201c;" horiz-adv-x="1005" d="M160 1069l223 543l168 -53l-162 -568zM535 1069l223 543l168 -53l-162 -568z" />
<glyph unicode="&#x201d;" horiz-adv-x="1005" d="M84 1044l162 568l229 -78l-223 -543zM459 1044l162 568l229 -78l-223 -543z" />
<glyph unicode="&#x201e;" horiz-adv-x="1005" d="M84 -272l162 567l229 -78l-223 -543zM459 -272l162 567l229 -78l-223 -543z" />
<glyph unicode="&#x201f;" horiz-adv-x="1005" d="M156 1534l229 78l162 -568l-168 -53zM530 1534l230 78l162 -568l-168 -53z" />
<glyph unicode="&#x2020;" horiz-adv-x="1202" d="M158 991v197h321v344h242v-344h323v-197h-323v-1259h-242v1259h-321z" />
<glyph unicode="&#x2021;" horiz-adv-x="1202" d="M158 76v196h321v719h-321v197h321v344h242v-344h323v-197h-323v-719h323v-196h-323v-344h-242v344h-321z" />
<glyph unicode="&#x2022;" horiz-adv-x="917" d="M182 678q0 119 78.5 198.5t198.5 79.5q119 0 197.5 -79.5t78.5 -198.5q0 -120 -78 -199.5t-198 -79.5t-198.5 79.5t-78.5 199.5z" />
<glyph unicode="&#x2024;" horiz-adv-x="630" d="M168 125q0 63 42.5 106t104.5 43t105 -43t43 -106t-43 -106.5t-105 -43.5t-104.5 43.5t-42.5 106.5z" />
<glyph unicode="&#x2025;" horiz-adv-x="1261" d="M168 125q0 63 42.5 106t104.5 43t105 -43t43 -106t-43 -106.5t-105 -43.5t-104.5 43.5t-42.5 106.5zM799 125q0 63 42.5 106t104.5 43t105 -43t43 -106t-43 -106.5t-105 -43.5t-104.5 43.5t-42.5 106.5z" />
<glyph unicode="&#x2026;" horiz-adv-x="1892" d="M168 125q0 63 42.5 106t104.5 43t105 -43t43 -106t-43 -106.5t-105 -43.5t-104.5 43.5t-42.5 106.5zM799 125q0 63 42.5 106t104.5 43t105 -43t43 -106t-43 -106.5t-105 -43.5t-104.5 43.5t-42.5 106.5zM1430 125q0 63 42.5 106t104.5 43t104.5 -43t42.5 -106 t-42.5 -106.5t-104.5 -43.5t-104.5 43.5t-42.5 106.5z" />
<glyph unicode="&#x202f;" horiz-adv-x="411" />
<glyph unicode="&#x2030;" horiz-adv-x="2349" d="M158 1081q0 163 87.5 265t229.5 102t230 -102t88 -265t-88 -264.5t-230 -101.5t-229.5 101.5t-87.5 264.5zM328 68l874 1392l139 -96l-874 -1393zM362 1081q0 -93 30 -139.5t83 -46.5t83 46.5t30 139.5t-30 140t-83 47t-83 -47t-30 -140zM874 350q0 164 88.5 265.5 t231.5 101.5q142 0 229.5 -101.5t87.5 -265.5q0 -163 -87.5 -264.5t-229.5 -101.5t-231 101.5t-89 264.5zM1079 350q0 -92 31 -139t84 -47t83 46.5t30 139.5q0 94 -30 141.5t-83 47.5t-84 -47.5t-31 -141.5zM1554 350q0 164 88.5 265.5t231.5 101.5q142 0 229.5 -101.5 t87.5 -265.5q0 -163 -87.5 -264.5t-229.5 -101.5t-231 101.5t-89 264.5zM1759 350q0 -92 31 -139t84 -47t83 46.5t30 139.5q0 94 -30 141.5t-83 47.5t-84 -47.5t-31 -141.5z" />
<glyph unicode="&#x2032;" horiz-adv-x="675" d="M152 903l147 545l225 -72l-213 -520z" />
<glyph unicode="&#x2033;" horiz-adv-x="1087" d="M152 903l147 545l225 -72l-213 -520zM563 903l148 545l225 -72l-213 -520z" />
<glyph unicode="&#x2039;" horiz-adv-x="747" d="M98 594v90l449 326l102 -136l-336 -235l336 -236l-102 -135z" />
<glyph unicode="&#x203a;" horiz-adv-x="747" d="M98 403l336 236l-336 235l103 136l448 -326v-90l-448 -326z" />
<glyph unicode="&#x203c;" horiz-adv-x="1060" d="M160 125q0 63 42.5 106t104.5 43t105 -43t43 -106t-43 -106.5t-105 -43.5t-104.5 43.5t-42.5 106.5zM172 1073v361h270v-361l-49 -700h-172zM606 125q0 63 43 106t105 43t104.5 -43t42.5 -106t-42.5 -106.5t-104.5 -43.5t-105 43.5t-43 106.5zM618 1073v361h271v-361 l-49 -700h-172z" />
<glyph unicode="&#x203e;" horiz-adv-x="811" d="M100 1243v164h611v-164h-611z" />
<glyph unicode="&#x2044;" horiz-adv-x="407" d="M-248 45l764 1419l139 -75l-764 -1420z" />
<glyph unicode="&#x205f;" horiz-adv-x="514" />
<glyph unicode="&#x2070;" d="M63 961q0 144 40.5 253t124.5 172.5t202 63.5t202 -63.5t124.5 -172.5t40.5 -253q0 -221 -95.5 -355.5t-271.5 -134.5t-271.5 134.5t-95.5 355.5zM262 961q0 -320 168 -320t168 320q0 319 -168 319t-168 -319z" />
<glyph unicode="&#x2074;" d="M55 678v156l428 600h195v-590h110v-166h-110v-193h-189v193h-434zM264 844h225v317z" />
<glyph unicode="&#x2075;" d="M96 604l131 113q80 -80 197 -80q63 0 103 40.5t40 100.5q0 70 -47 111t-127 41q-96 0 -188 -29l-49 29v504h565v-164h-383v-193q60 13 113 13q138 0 226.5 -86.5t88.5 -229.5q0 -133 -92.5 -219t-249.5 -86q-199 0 -328 135z" />
<glyph unicode="&#x2076;" d="M86 934q0 260 95.5 388t260.5 128q200 0 308 -158l-136 -90q-34 46 -74 65t-94 19q-66 0 -108 -60t-49 -179q86 69 188 69q135 0 219 -89t84 -234q0 -144 -92 -234t-244 -90q-164 0 -261 119t-97 346zM285 885q7 -129 49 -189.5t106 -60.5q70 0 108 43t38 117 q0 71 -39.5 113t-106.5 42q-87 0 -155 -65z" />
<glyph unicode="&#x2077;" d="M123 1266v168h627v-166l-336 -783h-213l338 781h-416z" />
<glyph unicode="&#x2078;" d="M86 760q0 145 137 233q-112 71 -112 201q0 118 84.5 187t224.5 69q143 0 229 -72t86 -194q0 -134 -112 -209q72 -42 110.5 -95.5t38.5 -131.5q0 -125 -94 -203t-246 -78q-155 0 -250.5 79.5t-95.5 213.5zM281 760q0 -61 42 -96t109 -35q64 0 106 31.5t42 78.5 q0 51 -34.5 81t-121.5 69l-62 26q-81 -63 -81 -155zM301 1198q0 -46 29 -74.5t88 -54.5l61 -27q68 56 68 138q0 52 -33.5 81t-95.5 29q-54 0 -85.5 -26t-31.5 -66z" />
<glyph unicode="&#x2079;" d="M78 1124q0 144 92.5 235t243.5 91q165 0 261.5 -117.5t96.5 -343.5q0 -520 -364 -520q-171 0 -281 113l119 114q65 -65 160 -65q149 0 163 235q-81 -65 -182 -65q-136 0 -222.5 89.5t-86.5 233.5zM272 1122q0 -71 39.5 -113t108.5 -42q88 0 153 65q-6 130 -47.5 190 t-107.5 60q-69 0 -107.5 -43t-38.5 -117z" />
<glyph unicode="&#x2080;" d="M63 217q0 221 95.5 355.5t271.5 134.5t271.5 -134.5t95.5 -355.5q0 -144 -40.5 -253t-124.5 -172.5t-202 -63.5t-202 63.5t-124.5 172.5t-40.5 253zM262 217q0 -319 168 -319t168 319q0 320 -168 320t-168 -320z" />
<glyph unicode="&#x2081;" d="M137 489l275 203h168v-950h-191v725l-139 -100z" />
<glyph unicode="&#x2082;" d="M102 551q132 156 328 156q135 0 217 -75.5t82 -203.5q0 -213 -346 -522h352v-164h-629v141q184 153 304 296.5t120 242.5q0 48 -31.5 81.5t-86.5 33.5q-96 0 -174 -88z" />
<glyph unicode="&#x2083;" d="M82 -115l135 99q66 -97 182 -97q70 0 112 36.5t42 92.5q0 71 -54.5 106.5t-146.5 35.5h-92v151h92q82 0 128 33t46 92q0 51 -29 80t-85 29q-54 0 -93.5 -19t-72.5 -63l-133 100q122 146 309 146q135 0 218 -69.5t83 -188.5q0 -72 -40.5 -129t-104.5 -84 q75 -28 122.5 -86.5t47.5 -141.5q0 -123 -91 -202.5t-249 -79.5q-216 0 -326 159z" />
<glyph unicode="&#x2084;" d="M55 -66v156l428 600h195v-590h110v-166h-110v-192h-189v192h-434zM264 100h225v318z" />
<glyph unicode="&#x2085;" d="M96 -139l131 112q79 -79 197 -79q63 0 103 40.5t40 100.5q0 70 -47 110.5t-127 40.5q-99 0 -188 -28l-49 28v504h565v-164h-383v-192q56 12 113 12q138 0 226.5 -86t88.5 -229q0 -133 -92.5 -219t-249.5 -86q-199 0 -328 135z" />
<glyph unicode="&#x2086;" d="M86 190q0 260 95.5 388.5t260.5 128.5q200 0 308 -158l-136 -90q-34 46 -74 65t-94 19q-66 0 -108 -60.5t-49 -179.5q87 70 188 70q135 0 219 -89.5t84 -234.5q0 -144 -92 -233.5t-244 -89.5q-164 0 -261 118.5t-97 345.5zM285 141q7 -129 49 -189.5t106 -60.5 q70 0 108 43t38 117q0 71 -39.5 113.5t-106.5 42.5q-86 0 -155 -66z" />
<glyph unicode="&#x2087;" d="M123 522v168h627v-166l-336 -782h-213l338 780h-416z" />
<glyph unicode="&#x2088;" d="M86 16q0 146 137 234q-112 71 -112 201q0 118 84.5 187t224.5 69q143 0 229 -72.5t86 -194.5q0 -134 -112 -209q72 -42 110.5 -95.5t38.5 -131.5q0 -125 -94 -202.5t-246 -77.5q-155 0 -250.5 79t-95.5 213zM281 16q0 -61 42 -96t109 -35q64 0 106 31.5t42 79.5 q0 51 -34.5 80.5t-121.5 68.5l-62 27q-81 -63 -81 -156zM301 455q0 -46 29 -74.5t88 -54.5l61 -27q68 56 68 137q0 53 -34 82t-95 29q-54 0 -85.5 -26t-31.5 -66z" />
<glyph unicode="&#x2089;" d="M78 381q0 144 92.5 235t243.5 91q165 0 261.5 -117.5t96.5 -343.5q0 -520 -364 -520q-172 0 -281 112l119 115q66 -66 160 -66q149 0 163 236q-82 -66 -182 -66q-136 0 -222.5 90t-86.5 234zM272 379q0 -71 40 -113.5t108 -42.5q87 0 153 66q-6 130 -47.5 190t-107.5 60 q-69 0 -107.5 -43t-38.5 -117z" />
<glyph unicode="&#x20a0;" horiz-adv-x="1593" d="M78 938q0 232 133.5 376t357.5 144q136 0 243 -58t171 -161l-166 -104q-97 133 -244 133q-125 0 -197.5 -89t-72.5 -241q0 -149 77 -238.5t193 -89.5q159 0 240 97v297h686v-179h-465v-223h430v-178h-430v-246h479v-178h-700v492q-101 -72 -252 -72q-211 0 -347 146 t-136 372z" />
<glyph unicode="&#x20a1;" horiz-adv-x="1421" d="M88 717q0 327 182 530t482 209l45 158l118 -35l-36 -129q55 -6 100 -20l53 184l119 -35l-57 -195q170 -81 260 -237l-209 -113q-53 77 -115 127l-280 -968h30q229 0 365 206l209 -112q-85 -145 -237 -228.5t-347 -83.5q-14 0 -82 5l-35 -121l-118 35l30 108 q-40 10 -96 35l-51 -178l-119 35l59 208q-129 98 -199.5 256.5t-70.5 358.5zM346 717q0 -210 90 -346l250 860q-155 -32 -247.5 -165t-92.5 -349zM537 266q48 -33 92 -49l289 1004q-46 15 -101 18z" />
<glyph unicode="&#x20a2;" horiz-adv-x="1421" d="M88 717q0 219 84 387.5t239 261t359 92.5q195 0 347 -83.5t237 -227.5l-209 -113q-137 207 -365 207q-191 0 -312.5 -137.5t-121.5 -386.5q0 -178 63.5 -300t174.5 -179v639h202v-117q110 139 297 139q42 0 62 -2v-174q-31 4 -80 4q-85 0 -160.5 -40t-118.5 -107v-387 q223 3 359 206l209 -112q-85 -145 -237 -228.5t-347 -83.5q-204 0 -359 93t-239 261.5t-84 387.5z" />
<glyph unicode="&#x20a3;" horiz-adv-x="1122" d="M39 537v122h119v144h-119v123h119v508h925v-213h-671v-295h565v-123h-565v-144h565v-122h-565v-537h-254v537h-119z" />
<glyph unicode="&#x20a4;" horiz-adv-x="1226" d="M78 0v197q157 113 160 295h-160v122h160v144h-160v123h160v141q0 216 119 326t339 110q129 0 247.5 -52.5t191.5 -143.5l-177 -138q-43 53 -109 85t-134 32q-223 0 -223 -223v-137h399v-123h-399v-144h399v-122h-402q-9 -188 -120 -279h798v-213h-1089z" />
<glyph unicode="&#x20a6;" horiz-adv-x="1482" d="M29 516v123h133v154h-133v122h133v519h252l327 -519h338v519h242v-519h133v-122h-133v-154h133v-123h-133v-516h-252l-328 516h-338v-516h-241v516h-133zM403 639h261l-99 154h-162v-154zM403 915h84l-84 134v-134zM819 793l99 -154h161v154h-260zM995 516l84 -131v131 h-84z" />
<glyph unicode="&#x20a7;" horiz-adv-x="2220" d="M158 0v1434h278q215 0 355 -96.5t167 -276.5h109v317h217v-317h334v-21q76 45 176 45q106 0 184 -37t148 -118l-152 -109q-65 76 -155 76q-52 0 -85.5 -28t-33.5 -74q0 -55 39 -91.5t141 -74.5q133 -51 197.5 -128t64.5 -186q0 -149 -96.5 -232t-265.5 -83h-363 q-86 0 -147 20t-100.5 57.5t-62 100.5t-31.5 139t-9 183v366h-115q-32 -170 -170 -261t-346 -91h-51v-514h-227zM385 723h43q157 0 234 60.5t77 189.5q0 130 -77 191t-234 61h-43v-502zM1284 537q0 -74 1.5 -118.5t7 -88.5t16 -67t29.5 -42.5t45.5 -26t64.5 -6.5h315 q71 0 108.5 31.5t37.5 89.5q0 56 -36 94.5t-138 73.5q-134 44 -197 120t-63 191q0 49 10 78h-201v-329z" />
<glyph unicode="&#x20a8;" horiz-adv-x="2162" d="M158 0v1434h442q260 0 401.5 -112t141.5 -321q0 -148 -75.5 -246.5t-213.5 -140.5l348 -614h-278l-312 571h-202v-571h-252zM410 778h186q291 0 291 223q0 226 -291 226h-186v-449zM1184 176l159 125q144 -141 318 -141q81 0 129.5 37.5t48.5 89.5q0 63 -50.5 99.5 t-180.5 72.5q-200 55 -283.5 134t-83.5 195q0 129 105 213t290 84q244 0 412 -165l-147 -119q-116 100 -250 100q-74 0 -119 -29t-45 -75q0 -47 47 -80t176 -70q188 -55 281.5 -134t93.5 -216q0 -143 -116 -232.5t-302 -89.5q-152 0 -276.5 55.5t-206.5 145.5z" />
<glyph unicode="&#x20a9;" horiz-adv-x="2076" d="M39 1434h264l164 -555h295l141 555h271l139 -555h297l164 555h264l-164 -555h164v-123h-201l-39 -135h240v-123h-277l-145 -498h-316l-126 498h-273l-125 -498h-315l-148 498h-272v123h238l-41 135h-197v123h162zM502 756l41 -135h153l35 135h-229zM580 498l47 -160 l39 160h-86zM932 621h211l-33 135h-145zM997 879h82l-41 161zM1343 756l35 -135h154l41 135h-230zM1409 498l41 -160l47 160h-88z" />
<glyph unicode="&#x20aa;" horiz-adv-x="1806" d="M158 0v1434h559q245 0 383.5 -149.5t138.5 -438.5v-320h-223v295q0 124 -21 208.5t-64 131t-98.5 65.5t-134.5 19h-319v-1245h-221zM567 588v319h224v-295q0 -124 21 -208.5t63.5 -131t98 -65.5t134.5 -19h319v1246h222v-1434h-559q-245 0 -384 149.5t-139 438.5z" />
<glyph unicode="&#x20ab;" horiz-adv-x="1249" d="M90 500q0 245 121 384.5t338 139.5q185 0 319 -127v250h-399v149h399v138h242v-138h129v-149h-129v-1147h-242v102q-134 -127 -319 -127q-217 0 -338 140t-121 385zM289 -166h778v-149h-778v149zM336 500q0 -157 68 -241.5t206 -84.5q70 0 141 30t117 83v426 q-46 52 -117 82t-141 30q-138 0 -206 -84t-68 -241z" />
<glyph unicode="&#x20ac;" horiz-adv-x="1482" d="M39 526v125h113q-2 20 -2 66q0 43 2 63h-113v125h127q52 255 228.5 404t436.5 149q195 0 347 -83.5t237 -227.5l-209 -113q-137 207 -364 207q-151 0 -261.5 -87.5t-152.5 -248.5h537l-37 -125h-518q-2 -20 -2 -63q0 -46 2 -66h481l-39 -125h-422q42 -161 151.5 -247 t260.5 -86q228 0 364 206l209 -112q-85 -145 -237 -228.5t-347 -83.5q-260 0 -437 148.5t-228 402.5h-127z" />
<glyph unicode="&#x2122;" horiz-adv-x="1394" d="M18 1315v119h531v-119h-189v-545h-153v545h-189zM600 770v664h154l194 -375l195 375h153v-664h-151v379l-141 -270h-111l-141 270v-379h-152z" />
<glyph unicode="&#x2202;" horiz-adv-x="1214" d="M82 453q0 214 127.5 348.5t333.5 134.5q179 0 317 -121q-24 426 -287 426q-81 0 -139.5 -31.5t-109.5 -99.5l-183 121q77 113 191 170t254 57q252 0 391 -190t139 -584q0 -363 -141 -536t-393 -173q-225 0 -362.5 132t-137.5 346zM340 457q0 -128 62.5 -196t185.5 -68 q260 0 276 413q-120 117 -272 117q-122 0 -187 -69.5t-65 -196.5z" />
<glyph unicode="&#x2206;" horiz-adv-x="1374" d="M39 59l608 1393h80l608 -1393l-39 -59h-1218zM356 215h662l-332 799z" />
<glyph unicode="&#x220f;" horiz-adv-x="1458" d="M158 -227v1743h1142v-1743h-253v1527h-635v-1527h-254z" />
<glyph unicode="&#x2211;" horiz-adv-x="1255" d="M78 -25l442 701l-442 629v211h1118v-213h-831l401 -588v-82l-399 -647h829v-213h-1118v202z" />
<glyph unicode="&#x221a;" horiz-adv-x="1273" d="M197 618v150h254l251 -465l310 1274h186l-395 -1577h-127l-332 618h-147z" />
<glyph unicode="&#x221e;" horiz-adv-x="1605" d="M117 678q0 135 87.5 218t235.5 83q192 0 363 -176q171 176 362 176q148 0 236 -83t88 -218t-88 -218t-236 -83q-191 0 -362 176q-171 -176 -363 -176q-148 0 -235.5 83t-87.5 218zM315 678q0 -62 34.5 -99.5t101.5 -37.5q61 0 117 29t128 108q-72 79 -128 108t-117 29 q-67 0 -101.5 -37.5t-34.5 -99.5zM909 678q72 -79 128.5 -108t117.5 -29q67 0 101 37t34 100t-34 100t-101 37q-61 0 -117.5 -29t-128.5 -108z" />
<glyph unicode="&#x222b;" horiz-adv-x="856" d="M31 -252q53 -6 108 -6q93 0 130.5 39.5t37.5 122.5v1290q0 177 90 259.5t285 82.5q86 0 143 -8v-191q-53 6 -108 6q-93 0 -130.5 -39t-37.5 -122v-1291q0 -177 -90 -259.5t-285 -82.5q-78 0 -143 9v190z" />
<glyph unicode="&#x2248;" horiz-adv-x="1261" d="M84 367q22 134 108 219.5t207 85.5q72 0 133 -20.5t134 -69.5q103 -68 172 -68q101 0 137 127l203 -33q-22 -134 -108.5 -219.5t-207.5 -85.5q-72 0 -132.5 20.5t-133.5 69.5q-103 68 -172 68q-101 0 -137 -127zM84 754q22 134 108 219.5t207 85.5q72 0 133 -20.5 t134 -69.5q103 -68 172 -68q101 0 137 127l203 -33q-22 -134 -108.5 -219.5t-207.5 -85.5q-72 0 -132.5 20.5t-133.5 69.5q-103 68 -172 68q-101 0 -137 -127z" />
<glyph unicode="&#x2260;" horiz-adv-x="1263" d="M117 346v189h340l174 288h-514v189h626l193 319l125 -76l-146 -243h230v-189h-342l-174 -288h516v-189h-629l-188 -317l-127 75l143 242h-227z" />
<glyph unicode="&#x2264;" horiz-adv-x="1263" d="M117 0v188h1028v-188h-1028zM117 694v168l954 416l74 -193l-715 -307l715 -307l-74 -192z" />
<glyph unicode="&#x2265;" horiz-adv-x="1263" d="M117 0v188h1028v-188h-1028zM117 471l714 307l-714 307l73 193l955 -416v-168l-955 -415z" />
<glyph unicode="&#x25ca;" horiz-adv-x="1150" d="M76 618l499 941l500 -941l-500 -940zM289 618l286 -550l287 550l-287 549z" />
<glyph unicode="&#x25fc;" horiz-adv-x="1064" d="M0 0v1065h1065v-1065h-1065z" />
<glyph horiz-adv-x="1261" d="M94 717q0 129 21 240.5t64 204t106 158.5t151 102t195 36q176 0 298.5 -97.5t180 -261.5t57.5 -382q0 -162 -33.5 -296t-98.5 -234.5t-168 -156t-236 -55.5q-107 0 -195 36.5t-151 102t-106 158t-64 204.5t-21 241zM352 717q0 -256 71 -390t208 -134t207.5 134t70.5 390 t-70.5 390t-207.5 134t-208 -134t-71 -390z" />
<glyph horiz-adv-x="1261" d="M184 1126l422 308h225v-1434h-253v1145l-248 -178z" />
<glyph horiz-adv-x="1261" d="M113 1210q90 116 221.5 182t277.5 66q214 0 342.5 -112.5t128.5 -313.5q0 -81 -34.5 -171.5t-89 -173t-131.5 -170.5t-153 -160t-163 -144h592v-213h-950v190q111 92 194 166t178 170t156 176t102 166.5t41 159.5q0 102 -57 157.5t-166 55.5q-87 0 -169.5 -42.5 t-145.5 -119.5z" />
<glyph horiz-adv-x="1261" d="M98 211l176 143q133 -161 332 -161q125 0 199 55t74 153q0 62 -25 108.5t-70.5 73.5t-102.5 40.5t-126 13.5h-135v213h133q125 0 200.5 55.5t75.5 153.5q0 86 -56 134t-159 48q-83 0 -161.5 -37t-139.5 -106l-172 139q97 109 224 165t268 56q203 0 328.5 -100.5 t125.5 -272.5q0 -124 -64.5 -212.5t-164.5 -124.5q133 -41 206 -131.5t73 -225.5q0 -184 -136 -300t-374 -116q-166 0 -302.5 62.5t-226.5 173.5z" />
<glyph horiz-adv-x="1261" d="M74 287v202l688 945h235v-934h183v-213h-183v-287h-254v287h-669zM348 500h395v542z" />
<glyph horiz-adv-x="1261" d="M125 207l174 143q71 -85 147 -121t170 -36q115 0 185.5 66.5t70.5 174.5q0 120 -78.5 186t-215.5 66q-162 0 -304 -49l-51 33v764h834v-213h-580v-340q83 22 182 22q213 0 342 -128t129 -347q0 -198 -131.5 -325.5t-367.5 -127.5q-324 0 -506 232z" />
<glyph horiz-adv-x="1261" d="M123 684q0 394 139 584t391 190q140 0 254 -57t191 -170l-183 -121q-51 68 -109.5 99.5t-139.5 31.5q-263 0 -287 -426q138 121 317 121q206 0 333.5 -134.5t127.5 -348.5t-137.5 -346t-362.5 -132q-252 0 -393 173t-141 536zM375 606q16 -413 276 -413q123 0 185.5 68 t62.5 196q0 127 -65 196.5t-187 69.5q-152 0 -272 -117z" />
<glyph horiz-adv-x="1261" d="M131 1221v213h973v-209l-543 -1225h-270l543 1221h-703z" />
<glyph horiz-adv-x="1261" d="M98 399q0 119 59 214.5t171 156.5q-170 122 -170 301q0 170 126.5 278.5t342.5 108.5t345.5 -109.5t129.5 -275.5q0 -101 -50 -186.5t-141 -141.5q131 -69 190.5 -158t59.5 -204q0 -183 -146.5 -294.5t-385.5 -111.5q-241 0 -386 113t-145 309zM356 399q0 -96 77.5 -150 t197.5 -54t196 46.5t76 131.5q0 29 -6.5 51.5t-16 42t-34.5 39t-48 35t-71.5 38.5t-89.5 41t-117 50q-78 -47 -121 -118t-43 -153zM416 1071q0 -69 65 -122t236 -118q60 38 93.5 96.5t33.5 125.5q0 89 -57 138.5t-156 49.5t-157 -46t-58 -124z" />
<glyph horiz-adv-x="1261" d="M104 981q0 214 137.5 345.5t362.5 131.5q123 0 219.5 -40.5t168 -124.5t109.5 -221t38 -322q0 -204 -41.5 -355.5t-118.5 -242t-178.5 -134t-229.5 -43.5q-246 0 -411 162l164 156q93 -100 247 -100q280 0 312 425q-137 -120 -318 -120q-206 0 -333.5 134.5t-127.5 348.5 zM362 977q0 -127 65 -196.5t187 -69.5q154 0 273 116q-16 414 -277 414q-123 0 -185.5 -68t-62.5 -196z" />
<glyph horiz-adv-x="768" d="M197 717q0 510 321 907l160 -78q-256 -382 -256 -829q0 -448 256 -830l-160 -77q-321 397 -321 907z" />
<glyph horiz-adv-x="768" d="M90 -113q256 382 256 830q0 447 -256 829l160 78q321 -397 321 -907t-321 -907z" />
<glyph horiz-adv-x="827" d="M117 612v207h594v-207h-594z" />
<glyph horiz-adv-x="1972" d="M141 717q0 187 60 351t168 285t268 191t350 70q150 0 283 -43.5t234.5 -122.5t175.5 -185t112.5 -235.5t38.5 -269.5q0 -104 -20.5 -190.5t-62 -155.5t-111.5 -107.5t-162 -38.5q-89 0 -156 32.5t-100 94.5q-57 -65 -136 -102t-161 -37q-129 0 -220 60.5t-133.5 161.5 t-42.5 235q0 204 102 330t294 126q154 0 268 -114v90h215v-586q0 -65 29 -100t79 -35q168 0 168 336q0 207 -92.5 373t-251 258t-350.5 92q-145 0 -273.5 -55.5t-221.5 -154.5t-147 -242.5t-54 -311.5q0 -134 34.5 -254t97.5 -212.5t149 -160.5t192 -103.5t223 -35.5 q123 0 245 42t214 116l76 -117q-104 -81 -245.5 -126.5t-289.5 -45.5q-190 0 -350 70t-268 191t-168 285t-60 351zM741 711q0 -138 50 -213.5t170 -75.5q132 0 229 115v346q-99 114 -229 114q-121 0 -170.5 -74t-49.5 -212z" />
<glyph horiz-adv-x="856" d="M236 -184v1802h581v-178h-356v-1448h356v-176h-581z" />
<glyph horiz-adv-x="856" d="M39 -8h356v1448h-356v178h582v-1802h-582v176z" />
<glyph horiz-adv-x="819" d="M121 627v178q88 0 146.5 55.5t58.5 149.5v229q0 204 66.5 291.5t238.5 87.5h149v-180h-139q-90 0 -90 -95v-296q0 -144 -43.5 -221.5t-161.5 -108.5q118 -31 161.5 -108.5t43.5 -223.5v-297q0 -92 90 -92h139v-180h-149q-305 0 -305 268v338q0 94 -58.5 149.5 t-146.5 55.5z" />
<glyph horiz-adv-x="819" d="M39 -4h139q90 0 90 92v297q0 146 43.5 223.5t161.5 108.5q-118 31 -161.5 108.5t-43.5 221.5v296q0 95 -90 95h-139v180h149q173 0 239.5 -87.5t66.5 -291.5v-229q0 -94 58 -149.5t146 -55.5v-178q-88 0 -146 -55.5t-58 -149.5v-338q0 -268 -306 -268h-149v180z" />
<glyph horiz-adv-x="614" d="M160 1309q0 63 42.5 106t104.5 43t105 -43t43 -106q0 -61 -43.5 -104.5t-104.5 -43.5t-104 43t-43 105zM172 0v358l49 703h174l47 -703v-358h-270z" />
<glyph horiz-adv-x="1224" d="M98 672v90l449 325l102 -135l-336 -235l336 -236l-102 -135zM575 672v90l449 325l102 -135l-335 -235l335 -236l-102 -135z" />
<glyph horiz-adv-x="630" d="M168 717q0 63 42.5 106t104.5 43t105 -43t43 -106t-43 -106.5t-105 -43.5t-104.5 43.5t-42.5 106.5z" />
<glyph horiz-adv-x="1224" d="M98 481l336 236l-336 235l103 135l448 -325v-90l-448 -326zM575 481l336 236l-336 235l103 135l448 -325v-90l-448 -326z" />
<glyph horiz-adv-x="1118" d="M137 342q0 120 57 214.5t183 178.5q75 49 103 99t28 133v92h254v-109q0 -118 -46.5 -204.5t-152.5 -155.5q-97 -63 -132.5 -116t-35.5 -124q0 -75 52.5 -117.5t146.5 -42.5q76 0 147 37.5t123 98.5l166 -136q-78 -99 -200 -158t-257 -59q-202 0 -319 97.5t-117 271.5z M487 1307q0 63 43 106t105 43t104.5 -43t42.5 -106t-42.5 -106.5t-104.5 -43.5t-105 43.5t-43 106.5z" />
<glyph horiz-adv-x="1024" d="M0 621v190h1024v-190h-1024z" />
<glyph horiz-adv-x="2048" d="M0 621v190h2048v-190h-2048z" />
<glyph horiz-adv-x="917" d="M182 715q0 119 78.5 198.5t198.5 79.5q119 0 197.5 -79.5t78.5 -198.5q0 -120 -78 -199.5t-198 -79.5t-198.5 79.5t-78.5 199.5z" />
<glyph horiz-adv-x="747" d="M98 672v90l449 325l102 -135l-336 -235l336 -236l-102 -135z" />
<glyph horiz-adv-x="747" d="M98 481l336 236l-336 235l103 135l448 -325v-90l-448 -326z" />
<glyph d="M63 961q0 144 40.5 253t124.5 172.5t202 63.5t202 -63.5t124.5 -172.5t40.5 -253q0 -221 -95.5 -355.5t-271.5 -134.5t-271.5 134.5t-95.5 355.5zM262 961q0 -320 168 -320t168 320q0 319 -168 319t-168 -319z" />
<glyph d="M137 1233l275 203h168v-951h-191v725l-139 -100z" />
<glyph d="M96 1294q132 156 328 156q135 0 217 -75.5t82 -203.5q0 -213 -346 -522h352v-164h-629v142q185 153 304.5 296t119.5 242q0 48 -31.5 81.5t-86.5 33.5q-97 0 -175 -88z" />
<glyph d="M82 629l135 98q65 -96 182 -96q70 0 112 36.5t42 92.5q0 71 -54.5 106t-146.5 35h-92v152h92q82 0 128 33t46 92q0 51 -29 79.5t-85 28.5q-54 0 -93.5 -19t-72.5 -63l-133 101q121 145 309 145q135 0 218 -69.5t83 -188.5q0 -72 -40.5 -129t-104.5 -84 q75 -29 122.5 -86.5t47.5 -140.5q0 -123 -91 -203t-249 -80q-215 0 -326 160z" />
<glyph d="M55 678v156l428 600h195v-590h110v-166h-110v-193h-189v193h-434zM264 844h225v317z" />
<glyph d="M96 604l131 113q80 -80 197 -80q63 0 103 40.5t40 100.5q0 70 -47 111t-127 41q-96 0 -188 -29l-49 29v504h565v-164h-383v-193q60 13 113 13q138 0 226.5 -86.5t88.5 -229.5q0 -133 -92.5 -219t-249.5 -86q-199 0 -328 135z" />
<glyph d="M86 934q0 260 95.5 388t260.5 128q200 0 308 -158l-136 -90q-34 46 -74 65t-94 19q-66 0 -108 -60t-49 -179q86 69 188 69q135 0 219 -89t84 -234q0 -144 -92 -234t-244 -90q-164 0 -261 119t-97 346zM285 885q7 -129 49 -189.5t106 -60.5q70 0 108 43t38 117 q0 71 -39.5 113t-106.5 42q-87 0 -155 -65z" />
<glyph d="M123 1266v168h627v-166l-336 -783h-213l338 781h-416z" />
<glyph d="M86 760q0 145 137 233q-112 71 -112 201q0 118 84.5 187t224.5 69q143 0 229 -72t86 -194q0 -134 -112 -209q72 -42 110.5 -95.5t38.5 -131.5q0 -125 -94 -203t-246 -78q-155 0 -250.5 79.5t-95.5 213.5zM281 760q0 -61 42 -96t109 -35q64 0 106 31.5t42 78.5 q0 51 -34.5 81t-121.5 69l-62 26q-81 -63 -81 -155zM301 1198q0 -46 29 -74.5t88 -54.5l61 -27q68 56 68 138q0 52 -33.5 81t-95.5 29q-54 0 -85.5 -26t-31.5 -66z" />
<glyph d="M78 1124q0 144 92.5 235t243.5 91q165 0 261.5 -117.5t96.5 -343.5q0 -520 -364 -520q-171 0 -281 113l119 114q65 -65 160 -65q149 0 163 235q-81 -65 -182 -65q-136 0 -222.5 89.5t-86.5 233.5zM272 1122q0 -71 39.5 -113t108.5 -42q88 0 153 65q-6 130 -47.5 190 t-107.5 60q-69 0 -107.5 -43t-38.5 -117z" />
<glyph d="M63 475q0 221 95.5 355.5t271.5 134.5t271.5 -134.5t95.5 -355.5q0 -144 -40.5 -253t-124.5 -172.5t-202 -63.5t-202 63.5t-124.5 172.5t-40.5 253zM262 475q0 -319 168 -319t168 319q0 320 -168 320t-168 -320z" />
<glyph d="M137 748l275 202h168v-950h-191v725l-139 -100z" />
<glyph d="M96 809q132 156 328 156q135 0 217 -75.5t82 -203.5q0 -213 -346 -522h352v-164h-629v141q184 153 304 296.5t120 242.5q0 48 -31.5 81.5t-86.5 33.5q-97 0 -175 -88z" />
<glyph d="M82 143l135 99q66 -97 182 -97q70 0 112 36.5t42 92.5q0 71 -54.5 106.5t-146.5 35.5h-92v151h92q82 0 128 33t46 92q0 51 -29 80t-85 29q-54 0 -93.5 -19t-72.5 -63l-133 100q122 146 309 146q135 0 218 -69.5t83 -188.5q0 -72 -40.5 -129t-104.5 -84 q75 -28 122.5 -86.5t47.5 -141.5q0 -123 -91 -202.5t-249 -79.5q-216 0 -326 159z" />
<glyph d="M55 193v155l428 600h195v-590h110v-165h-110v-193h-189v193h-434zM264 358h225v318z" />
<glyph d="M96 119l131 112q79 -79 197 -79q63 0 103 40.5t40 100.5q0 70 -47 110.5t-127 40.5q-99 0 -188 -28l-49 28v504h565v-164h-383v-192q55 12 113 12q138 0 226.5 -86t88.5 -229q0 -133 -92.5 -219t-249.5 -86q-199 0 -328 135z" />
<glyph d="M86 449q0 260 95.5 388t260.5 128q200 0 308 -158l-136 -90q-34 46 -74 65t-94 19q-66 0 -108 -60.5t-49 -179.5q87 70 188 70q135 0 219 -89.5t84 -234.5q0 -144 -92 -233.5t-244 -89.5q-164 0 -261 119t-97 346zM285 399q7 -129 48.5 -189t106.5 -60q70 0 108 42.5 t38 116.5q0 71 -39.5 113.5t-106.5 42.5q-86 0 -155 -66z" />
<glyph d="M123 780v168h627v-166l-336 -782h-213l338 780h-416z" />
<glyph d="M86 274q0 146 137 234q-112 71 -112 201q0 118 84.5 187t224.5 69q143 0 229 -72.5t86 -194.5q0 -134 -112 -209q72 -42 110.5 -95.5t38.5 -131.5q0 -125 -94 -202.5t-246 -77.5q-155 0 -250.5 79t-95.5 213zM281 274q0 -61 42 -96t109 -35q64 0 106 31.5t42 79.5 q0 51 -34.5 80.5t-121.5 68.5l-62 27q-81 -63 -81 -156zM301 713q0 -46 29 -74.5t88 -54.5l61 -27q68 56 68 137q0 53 -34 82t-95 29q-54 0 -85.5 -26t-31.5 -66z" />
<glyph d="M78 639q0 144 92.5 235t243.5 91q165 0 261.5 -117.5t96.5 -343.5q0 -520 -364 -520q-172 0 -281 112l119 115q66 -66 160 -66q149 0 163 236q-82 -66 -182 -66q-136 0 -222.5 90t-86.5 234zM272 637q0 -71 40 -113.5t108 -42.5q87 0 153 66q-6 130 -47.5 190t-107.5 60 q-69 0 -107.5 -43t-38.5 -117z" />
</font>
</defs>
</svg>
